<svg xmlns:osb="http://www.openswatchbook.org/uri/2009/osb" xmlns="http://www.w3.org/2000/svg" xmlns:xlink="http://www.w3.org/1999/xlink" width="128" height="128">
  <defs>
    <linearGradient xlink:href="#a" id="d" x1="-777.10431" y1="1026.2157" x2="-646.86963" y2="1026.2157" gradientUnits="userSpaceOnUse"/>
    <linearGradient id="a" osb:paint="solid">
      <stop offset="0" stop-opacity="0"/>
    </linearGradient>
    <filter id="e" x="-.10376413" width="1.2075284" y="-.11738477" height="1.2347695" color-interpolation-filters="sRGB">
      <feGaussianBlur stdDeviation="4.6110333"/>
    </filter>
    <linearGradient xlink:href="#b" id="f" gradientUnits="userSpaceOnUse" gradientTransform="translate(-771.907 965.797)" x1="57" y1="-e-8" x2="57" y2="120.02604"/>
    <linearGradient id="b">
      <stop offset="0" stop-color="#787878"/>
      <stop offset="1" stop-color="#787878"/>
    </linearGradient>
    <linearGradient xlink:href="#c" id="g" gradientUnits="userSpaceOnUse" gradientTransform="translate(-579.076 -1.742) scale(1.06557)" x1="57" y1="-e-8" x2="57" y2="120.02604"/>
    <linearGradient id="c">
      <stop offset="0" stop-color="#22a0ef"/>
      <stop offset="1" stop-color="#22a0ef"/>
    </linearGradient>
  </defs>
  <path d="M-730.75036 979.07849c-1.0259-.006-2.07306.0466-3.1875.1875-17.79816 2.24997-17.25 17.24993-17.25 17.24993-7.28984 1.2171-13.25 7.46758-13.25 13.99998 0 6.5325 7.61805 12.3189 14 14 3.79621 1 8.75 0 8.75 0 2.25347 3.9031 9.69309 6.5 14.875 6.5 8.44939 0 17.09375-2.75 19.09375-6.5 0 0 35.01871 2.75 42.28124 0 10.57262-4.0034 7.28463-16.521.25-20.75-7.03462-4.22898-16.24999-1.25-16.24999-1.25s-.0516-8.60448-10-12.71868c-9.94834-4.11426-18.34375 4.9687-18.34375 4.9687s-5.58019-15.59426-20.96875-15.68743zm-18.78125 50.18741c-5.3144 2.4646-18.12549 11.5356-15.40625 14.9374 2.71916 3.4019 12.82288-9.7003 15.40625-14.9374zm80.93749 1.625c-5.31438 2.4645-18.15672 11.5044-15.43749 14.9062 2.71917 3.4019 12.85413-9.6692 15.43749-14.9062zm-20.43749.7813c-5.3144 2.4645-18.15674 11.5356-15.4375 14.9374 2.71916 3.4019 12.85413-9.7004 15.4375-14.9374zm-18.40625 2.4999c-5.31439 2.4646-18.15673 11.5357-15.4375 14.9375 2.71916 3.4019 12.85413-9.7004 15.4375-14.9375zm-21.71875 2.2812c-5.3144 2.4646-18.15674 11.5357-15.4375 14.9375 2.71916 3.4019 12.85413-9.7004 15.4375-14.9375zm-19.75 11.3125c-5.3144 2.4646-18.15674 11.5357-15.4375 14.9375 2.71916 3.4019 12.85413-9.7004 15.4375-14.9375zm58.90625 1.5313c-5.3144 2.4646-18.15673 11.5357-15.4375 14.9375 2.71916 3.4019 12.85413-9.7004 15.4375-14.9375zm-21.09375 4.1875c-5.3144 2.4646-18.15674 11.5357-15.4375 14.9375 2.71916 3.4019 12.85413-9.7004 15.4375-14.9375zm31.71875 3.0312c-5.3144 2.4646-18.15674 11.5357-15.4375 14.9375 2.71916 3.4019 12.85413-9.7004 15.4375-14.9375zm-52.25 1.3438c-5.31439 2.4646-18.15673 11.5357-15.4375 14.9375 2.71916 3.4019 12.85414-9.7004 15.4375-14.9375z" opacity=".6" fill="url(#d)" filter="url(#e)" transform="translate(822.675 -1029.51) scale(1.06557)"/>
  <path d="M-730.75036 979.07849c-1.0259-.006-2.07306.0466-3.1875.1875-17.79816 2.24997-17.25 17.24993-17.25 17.24993-7.28984 1.2171-13.25 7.46758-13.25 13.99998 0 6.5325 7.61805 12.3189 14 14 3.79621 1 8.75 0 8.75 0 2.25347 3.9031 9.69309 6.5 14.875 6.5 8.44939 0 17.09375-2.75 19.09375-6.5 0 0 35.01871 2.75 42.28124 0 10.57262-4.0034 7.28463-16.521.25-20.75-7.03462-4.22898-16.24999-1.25-16.24999-1.25s-.0516-8.60448-10-12.71868c-9.94834-4.11426-18.34375 4.9687-18.34375 4.9687s-5.58019-15.59426-20.96875-15.68743z" fill="url(#f)" transform="translate(822.675 -1029.51) scale(1.06557)"/>
  <path transform="translate(579.227 1.362)" d="M-555.21875 65.875c-5.66289 2.626213-19.33505 12.312631-16.4375 15.9375 2.89747 3.624976 13.68473-10.356983 16.4375-15.9375zM-469 67.625c-5.66286 2.626107-19.33504 12.250131-16.4375 15.875 2.89748 3.624976 13.68474-10.29459 16.4375-15.875zm-21.78125.8125c-5.66289 2.626107-19.33505 12.312631-16.4375 15.9375 2.89747 3.624976 13.68473-10.35709 16.4375-15.9375zM-510.375 71.125c-5.66287 2.626213-19.36629 12.281381-16.46875 15.90625 2.89747 3.624976 13.71598-10.325733 16.46875-15.90625zm-23.15625 2.4375c-5.66289 2.626213-19.33505 12.281381-16.4375 15.90625 2.89747 3.624976 13.68473-10.325733 16.4375-15.90625zm-21.03125 12.03125c-5.66289 2.626213-19.3663 12.312631-16.46875 15.9375 2.89747 3.62498 13.71598-10.356983 16.46875-15.9375zm62.75 1.625c-5.66289 2.626213-19.33504 12.312631-16.4375 15.9375 2.89747 3.62498 13.68473-10.356983 16.4375-15.9375zm-22.46875 4.46875c-5.66289 2.626213-19.33505 12.31263-16.4375 15.9375 2.89747 3.62498 13.68473-10.356983 16.4375-15.9375zm33.8125 3.25c-5.66289 2.626213-19.3663 12.28138-16.46875 15.90625 2.89747 3.62498 13.71598-10.32573 16.46875-15.90625zm-55.6875 1.40625c-5.66287 2.626213-19.33504 12.31263-16.4375 15.9375 2.89747 3.62498 13.68474-10.35698 16.4375-15.9375z" fill="url(#g)"/>
</svg>
