<svg xmlns:osb="http://www.openswatchbook.org/uri/2009/osb" xmlns="http://www.w3.org/2000/svg" xmlns:xlink="http://www.w3.org/1999/xlink" width="128" height="128">
  <defs>
    <linearGradient id="a" osb:paint="solid">
      <stop offset="0" stop-opacity="0"/>
    </linearGradient>
    <filter id="g" x="-.10462177" width="1.2092435" y="-.11842415" height="1.2368484" color-interpolation-filters="sRGB">
      <feGaussianBlur stdDeviation="4.6110333"/>
    </filter>
    <linearGradient id="e">
      <stop offset="0" stop-color="#c6c6c6"/>
      <stop offset="1" stop-color="#c6c6c6"/>
    </linearGradient>
    <linearGradient id="b">
      <stop offset="0" stop-color="#787878"/>
      <stop offset="1" stop-color="#787878"/>
    </linearGradient>
    <linearGradient id="c">
      <stop offset="0" stop-color="#22a0ef"/>
      <stop offset="1" stop-color="#22a0ef"/>
    </linearGradient>
    <linearGradient id="d">
      <stop offset="0" stop-color="#ffea31"/>
      <stop offset="1" stop-color="#ffea31"/>
    </linearGradient>
    <linearGradient xlink:href="#a" id="h" gradientUnits="userSpaceOnUse" x1="-442.79214" y1="1153.8883" x2="-313.43176" y2="1153.8883"/>
    <linearGradient xlink:href="#a" id="i" gradientUnits="userSpaceOnUse" x1="-442.79214" y1="1153.8883" x2="-313.43176" y2="1153.8883"/>
    <linearGradient xlink:href="#a" id="j" gradientUnits="userSpaceOnUse" x1="-442.79214" y1="1153.8883" x2="-313.43176" y2="1153.8883"/>
    <linearGradient xlink:href="#a" id="k" gradientUnits="userSpaceOnUse" x1="-442.79214" y1="1153.8883" x2="-313.43176" y2="1153.8883"/>
    <linearGradient xlink:href="#a" id="l" gradientUnits="userSpaceOnUse" x1="-442.79214" y1="1153.8883" x2="-313.43176" y2="1153.8883"/>
    <linearGradient xlink:href="#a" id="m" gradientUnits="userSpaceOnUse" x1="-442.79214" y1="1153.8883" x2="-313.43176" y2="1153.8883"/>
    <linearGradient xlink:href="#a" id="n" gradientUnits="userSpaceOnUse" x1="-442.79214" y1="1153.8883" x2="-313.43176" y2="1153.8883"/>
    <linearGradient xlink:href="#a" id="o" gradientUnits="userSpaceOnUse" x1="-442.79214" y1="1153.8883" x2="-313.43176" y2="1153.8883"/>
    <linearGradient xlink:href="#a" id="p" gradientUnits="userSpaceOnUse" x1="-442.79214" y1="1153.8883" x2="-313.43176" y2="1153.8883"/>
    <linearGradient xlink:href="#a" id="f" gradientUnits="userSpaceOnUse" x1="-442.79214" y1="1153.8883" x2="-313.43176" y2="1153.8883"/>
    <linearGradient xlink:href="#b" id="r" gradientUnits="userSpaceOnUse" x1="-379.42209" y1="1094.3872" x2="-379.42209" y2="1214.6141"/>
    <linearGradient xlink:href="#c" id="s" gradientUnits="userSpaceOnUse" gradientTransform="translate(-112.32 -1024.444) scale(1.06557)" x1="-379.42209" y1="1094.3872" x2="-379.42209" y2="1214.6141"/>
    <linearGradient xlink:href="#d" id="t" gradientUnits="userSpaceOnUse" x1="-379.42209" y1="1094.3872" x2="-379.42209" y2="1214.6141"/>
    <linearGradient xlink:href="#e" id="q" gradientUnits="userSpaceOnUse" x1="-379.42209" y1="1094.3872" x2="-379.42209" y2="1214.6141"/>
  </defs>
  <g opacity=".6" fill="url(#f)" filter="url(#g)" transform="translate(466.906 -1165.553) scale(1.06557)">
    <path d="M-417 1152.6122c3.79621 1 8.76977 0 8.76977 0 2.25347 3.9031 9.68191 6.5 14.86382 6.5 8.44939 0 17.11382-2.75 19.11382-6.5 0 0 34.99005 2.75 42.25259 0 10.57262-4.0034 7.28463-16.521.25-20.75-7.03463-4.229-16.25-1.25-16.25-1.25s-.0274-8.6201-9.97575-12.7344c-9.94833-4.1142-18.35543 4.9844-18.35543 4.9844s-6.33785-17.7542-24.16882-15.5c-17.79816 2.25-17.25 17.25-17.25 17.25-7.28984 1.2171-13.25 7.4675-13.25 14 0 6.5324 7.61805 12.3188 14 14z" fill="url(#h)"/>
    <path d="M-418.66034 1195.4106c-5.70464-1.545.13593-11.9846 3.63786-15.397 1.68705 4.5096 2.06678 16.942-3.63786 15.397z" fill="url(#i)"/>
    <path d="M-407.93851 1180.0834c-5.70464-1.545.13593-11.9846 3.63786-15.397 1.68705 4.5096 2.06678 16.942-3.63786 15.397z" fill="url(#j)"/>
    <path d="M-423.29511 1172.6827c-5.70464-1.545.13593-11.9846 3.63785-15.397 1.68705 4.5096 2.06679 16.942-3.63785 15.397z" fill="url(#k)"/>
    <path d="M-363.39562 1173.0111c-5.70464-1.545.13593-11.9846 3.63786-15.397 1.68705 4.5096 2.06678 16.942-3.63786 15.397z" fill="url(#l)"/>
    <path d="M-368.64562 1200.0111c-5.70464-1.545.13593-11.9846 3.63786-15.397 1.68705 4.5096 2.06678 16.942-3.63786 15.397z" fill="url(#m)"/>
    <path d="M-339.14562 1173.2611c-5.70464-1.545.13593-11.9846 3.63786-15.397 1.68705 4.5096 2.06678 16.942-3.63786 15.397z" fill="url(#n)"/>
    <path d="M-351.80983 1190.1753c-5.70464-1.545.13593-11.9846 3.63786-15.397 1.68705 4.5096 2.06678 16.942-3.63786 15.397z" fill="url(#o)"/>
    <path d="M-396 1163.3622c10.05146.4705 14.65062-1.015 21.75-4.5l-12 15.75 14 1.75-22 24.25 8.75-19.5-11.25 2.25.75-20z" fill="url(#p)"/>
  </g>
  <g fill="url(#q)" transform="translate(466.906 -1165.553) scale(1.06557)">
    <path d="M-417 1152.6122c3.79621 1 8.76977 0 8.76977 0 2.25347 3.9031 9.68191 6.5 14.86382 6.5 8.44939 0 17.11382-2.75 19.11382-6.5 0 0 34.99005 2.75 42.25259 0 10.57262-4.0034 7.28463-16.521.25-20.75-7.03463-4.229-16.25-1.25-16.25-1.25s-.0274-8.6201-9.97575-12.7344c-9.94833-4.1142-18.35543 4.9844-18.35543 4.9844s-6.33785-17.7542-24.16882-15.5c-17.79816 2.25-17.25 17.25-17.25 17.25-7.28984 1.2171-13.25 7.4675-13.25 14 0 6.5324 7.61805 12.3188 14 14z" fill="url(#r)"/>
    <path transform="translate(105.41 961.402) scale(.93846)" d="M-559.5 208.71875c-3.73155 3.63616-9.95371 14.75994-3.875 16.40625 6.07871 1.64631 5.67268-11.60094 3.875-16.40625zm63.84375.375c-3.73156 3.63616-9.95371 14.75994-3.875 16.40625 6.07871 1.64631 5.67268-11.60094 3.875-16.40625zm25.8125.25c-3.73156 3.63616-9.95371 14.75994-3.875 16.40625 6.07871 1.64631 5.67268-11.60094 3.875-16.40625zM-543.125 216.625c-3.73156 3.63616-9.95371 14.75994-3.875 16.40625 6.07871 1.64631 5.67268-11.60094 3.875-16.40625zm59.8125 10.75c-3.73156 3.63616-9.95371 14.75994-3.875 16.40625 6.07871 1.64631 5.67268-11.60094 3.875-16.40625zm-71.25 5.5625c-3.73156 3.63616-9.95371 14.75994-3.875 16.40625 6.07871 1.64631 5.67268-11.60094 3.875-16.40625zm53.3125 4.90625c-3.73156 3.63616-9.95371 14.75994-3.875 16.40625 6.07871 1.64631 5.67268-11.60094 3.875-16.40625z" fill="url(#s)"/>
    <path d="M-396 1163.3622c10.05146.4705 14.65062-1.015 21.75-4.5l-12 15.75 14 1.75-22 24.25 8.75-19.5-11.25 2.25.75-20z" fill="url(#t)"/>
  </g>
</svg>
