<svg xmlns:osb="http://www.openswatchbook.org/uri/2009/osb" xmlns="http://www.w3.org/2000/svg" xmlns:xlink="http://www.w3.org/1999/xlink" width="128" height="128">
  <defs>
    <linearGradient xlink:href="#a" id="e" x1="-606.32935" y1="800.41412" x2="-476.95706" y2="800.41412" gradientUnits="userSpaceOnUse"/>
    <linearGradient id="a" osb:paint="solid">
      <stop offset="0" stop-opacity="0"/>
    </linearGradient>
    <filter id="f" x="-.10462177" width="1.2092435" y="-.12363704" height="1.247274" color-interpolation-filters="sRGB">
      <feGaussianBlur stdDeviation="4.6110333"/>
    </filter>
    <linearGradient xlink:href="#b" id="g" gradientUnits="userSpaceOnUse" gradientTransform="translate(-601.997 -189.827)" x1="56.568542" y1="932.50757" x2="56.568542" y2="1052.8176"/>
    <linearGradient id="b">
      <stop offset="0" stop-color="#c6c6c6"/>
      <stop offset="1" stop-color="#c6c6c6"/>
    </linearGradient>
    <linearGradient xlink:href="#c" id="h" gradientUnits="userSpaceOnUse" gradientTransform="translate(-435.593 -1278.01) scale(1.0661)" x1="56.568542" y1="932.50757" x2="56.568542" y2="1052.8176"/>
    <linearGradient id="c">
      <stop offset="0" stop-color="#22a0ef"/>
      <stop offset="1" stop-color="#22a0ef"/>
    </linearGradient>
    <linearGradient xlink:href="#d" id="i" gradientUnits="userSpaceOnUse" gradientTransform="translate(-435.593 -1278.01) scale(1.0661)" x1="56.568542" y1="932.50757" x2="56.568542" y2="1052.8176"/>
    <linearGradient id="d">
      <stop offset="0" stop-color="#fff"/>
      <stop offset="1" stop-color="#fff"/>
    </linearGradient>
  </defs>
  <path d="M-560.81249 755.66131c-1.0259-.01-2.10432.047-3.21875.1875-17.79816 2.25-17.25 17.25-17.25 17.25-7.28985 1.2171-13.25 7.4675-13.25 14 0 6.5324 7.61805 12.3188 14 14 3.79621 1 8.78125 0 8.78125 0 2.25346 3.9031 9.66184 6.5 14.84375 6.5 8.44939 0 17.125-2.75 19.125-6.5 0 0 34.98746 2.75 42.24999 0 10.57262-4.0034 7.28463-16.521.25-20.75-7.03462-4.229-16.24999-1.25-16.24999-1.25s-.0204-8.6045-9.96875-12.7187c-9.94834-4.1143-18.375 4.9687-18.375 4.9687s-5.54894-15.5943-20.9375-15.6875zm-22.375 50.125c-3.50194 3.41229-9.32965 13.86104-3.625 15.40604 5.70464 1.545 5.31205-10.8966 3.625-15.40604zm84.15624.5625c-3.50192 3.41224-9.36088 13.86104-3.65624 15.40604 5.70463 1.545 5.34329-10.8966 3.65624-15.40604zm-25.37499.3438a.81470476.81470476 0 0 0-.0937.031.81470476.81470476 0 0 0-.625.8125v2.53099l-2.25-1.4373a.8149003.8149003 0 1 0-.875 1.3748l3.125 1.96865v4.5625l-3.96875-2.2812-.15625-3.6875a.81470476.81470476 0 0 0-1-.7812.81470476.81470476 0 0 0-.625.8437l.125 2.6562-2.15625-1.25a.81999905.81999905 0 1 0-.84375 1.4063l2.1875 1.25-2.34375 1.2187a.82460194.82460194 0 1 0 .75 1.4688l3.25-1.7188 3.96875 2.2813-3.9375 2.2812-3.28125-1.7187a.81470476.81470476 0 1 0-.75 1.4375l2.34375 1.2187-2.1875 1.2813a.81999905.81999905 0 1 0 .84375 1.4062l2.15625-1.25-.125 2.625a.81470476.81470476 0 1 0 1.625.094l.15625-3.6875 3.96875-2.2813v4.5625l-3.125 1.9688a.8149003.8149003 0 1 0 .875 1.375l2.25-1.4375v2.5a.81470476.81470476 0 1 0 1.625 0v-2.4688l2.21875 1.4063a.8149003.8149003 0 1 0 .875-1.375l-3.09375-1.9688v-4.5625l3.9375 2.25.15625 3.7188a.81470476.81470476 0 1 0 1.625-.094l-.125-2.625 2.1875 1.25a.81470476.81470476 0 1 0 .8125-1.4062l-2.1875-1.2813 2.375-1.2187a.81470476.81470476 0 1 0-.75-1.4375l-3.28125 1.6875-3.9375-2.2813 3.9375-2.25 3.28125 1.7188a.82460194.82460194 0 1 0 .75-1.4688l-2.34375-1.2187 2.15625-1.25a.81470476.81470476 0 1 0-.8125-1.4063l-2.1875 1.25.125-2.6562a.81470476.81470476 0 0 0-.9375-.8437.81470476.81470476 0 0 0-.6875.7812l-.15625 3.6875-3.9375 2.2812v-4.5625l3.09375-1.96865a.8149003.8149003 0 1 0-.875-1.3748l-2.21875 1.406v-2.49969a.81470476.81470476 0 0 0-.90625-.8435zm-38.3125 5.62474a.60915636.60915636 0 0 0-.15625.031.60915636.60915636 0 0 0-.46875.625v1.875l-1.6875-1.0625a.60915636.60915636 0 1 0-.625 1l2.3125 1.5v3.4063l-2.9375-1.7188-.125-2.75a.60915636.60915636 0 0 0-.71875-.5937.60915636.60915636 0 0 0-.5.6562l.0937 1.9688-1.625-.9375a.61634634.61634634 0 1 0-.625 1.0625l1.625.9375-1.75.9062a.61498063.61498063 0 0 0 .5625 1.0938l2.4375-1.2813 2.96875 1.7188-2.96875 1.6875-2.4375-1.2813a.61498063.61498063 0 1 0-.5625 1.0938l1.75.9062-1.625.9375a.61634634.61634634 0 1 0 .625 1.0625l1.625-.9375-.0937 1.9688a.61017576.61017576 0 1 0 1.21875.062l.125-2.75 2.9375-1.7188v3.4063l-2.3125 1.5a.60915636.60915636 0 1 0 .625 1l1.6875-1.0625v1.875a.609375.609375 0 0 0 1.21875 0v-1.875l1.6875 1.0625a.60915636.60915636 0 1 0 .625-1l-2.3125-1.5v-3.4063l2.9375 1.7188.125 2.75a.61017576.61017576 0 1 0 1.21875-.062l-.0937-1.9688 1.625.9375a.61634634.61634634 0 1 0 .625-1.0625l-1.625-.9375 1.75-.9062a.61498063.61498063 0 1 0-.5625-1.0938l-2.4375 1.2813-2.96875-1.7188 2.96875-1.6875 2.4375 1.2813a.61498063.61498063 0 0 0 .5625-1.0938l-1.75-.9062 1.625-.9375a.61634634.61634634 0 1 0-.625-1.0625l-1.625.9375.0937-1.9688a.60915636.60915636 0 0 0-.71875-.6562.60915636.60915636 0 0 0-.5.5937l-.125 2.75-2.9375 1.7188v-3.4063l2.3125-1.5a.60915636.60915636 0 1 0-.625-1l-1.6875 1.0625v-1.875a.60915636.60915636 0 0 0-.59375-.6562zm18.21875 12.1875c-3.50194 3.4124-9.32965 13.83-3.625 15.375 5.70464 1.545 5.31205-10.8654 3.625-15.375zm-31.9375 2.5937c-3.50194 3.4124-9.32965 13.8613-3.625 15.4063 5.70464 1.545 5.31205-10.8967 3.625-15.4063zm65.4375 2.5313c-3.50194 3.4124-9.32965 13.8612-3.625 15.4062 5.70464 1.545 5.31205-10.8966 3.625-15.4062z" opacity=".6" fill="url(#e)" filter="url(#f)" transform="translate(641.452 -789.33) scale(1.0661)"/>
  <path d="M-560.81249 755.66131c-1.0259-.01-2.10432.047-3.21875.1875-17.79816 2.25-17.25 17.25-17.25 17.25-7.28985 1.2171-13.25 7.4675-13.25 14 0 6.5324 7.61805 12.3188 14 14 3.79621 1 8.78125 0 8.78125 0 2.25346 3.9031 9.66184 6.5 14.84375 6.5 8.44939 0 17.125-2.75 19.125-6.5 0 0 34.98746 2.75 42.24999 0 10.57262-4.0034 7.28463-16.521.25-20.75-7.03462-4.229-16.24999-1.25-16.24999-1.25s-.0204-8.6045-9.96875-12.7187c-9.94834-4.1143-18.375 4.9687-18.375 4.9687s-5.54894-15.5943-20.9375-15.6875z" fill="url(#g)" transform="translate(641.452 -789.33) scale(1.0661)"/>
  <path transform="translate(435.25 286.303)" d="M-415.53125-216.5625c-3.73346 3.63788-9.95679 14.75911-3.875 16.40625 6.08178 1.64714 5.67358-11.59868 3.875-16.40625zm89.71875.59375c-3.73344 3.63783-9.98803 14.75911-3.90625 16.40625 6.08177 1.64714 5.70483-11.59868 3.90625-16.40625zm-48.46875 19.34375c-3.73346 3.638-9.95679 14.75911-3.875 16.40625 6.08178 1.64714 5.67358-11.59851 3.875-16.40625zm-34.0625 2.78125c-3.73346 3.638-9.95679 14.75911-3.875 16.40625 6.08178 1.64714 5.67358-11.59851 3.875-16.40625zm69.75 2.6875c-3.73346 3.638-9.92554 14.79036-3.84375 16.4375 6.08178 1.64714 5.64233-11.62976 3.84375-16.4375z" fill="url(#h)"/>
  <path transform="translate(435.25 286.303)" d="M-352.84375-215.625a.8685661.8685661 0 0 0-.0312.0312.8685661.8685661 0 0 0-.0937.0312.8685661.8685661 0 0 0-.65625.84375v2.71875l-2.40625-1.53125a.87122512.87122512 0 1 0-.9375 1.46875l3.34375 2.09375v4.84375l-4.25-2.4375-.15625-3.90625a.8685661.8685661 0 0 0-1.0625-.84375.8685661.8685661 0 0 0-.6875.90625l.15625 2.8125-2.3125-1.3125a.87625468.87625468 0 1 0-.90625 1.5l2.34375 1.3125-2.5 1.3125a.88056268.88056268 0 0 0 .8125 1.5625l3.4375-1.84375 4.25 2.4375-4.21875 2.4375-3.46875-1.84375a.88056268.88056268 0 1 0-.8125 1.5625l2.5 1.28125-2.34375 1.375a.87625468.87625468 0 1 0 .90625 1.5l2.3125-1.34375-.15625 2.8125a.87625468.87625468 0 1 0 1.75.0937l.15625-3.9375 4.25-2.4375v4.875l-3.34375 2.09375a.87122512.87122512 0 0 0 .9375 1.46875l2.40625-1.53125v2.65625a.8685661.8685661 0 1 0 1.71875 0v-2.625l2.375 1.5a.87122512.87122512 0 0 0 .9375-1.46875l-3.3125-2.09375v-4.875l4.1875 2.40625.1875 3.96875a.8685661.8685661 0 1 0 1.71875-.0937l-.125-2.8125 2.3125 1.34375a.8685661.8685661 0 1 0 .875-1.5l-2.3125-1.375 2.53125-1.28125a.88056268.88056268 0 1 0-.8125-1.5625l-3.5 1.8125-4.1875-2.4375 4.1875-2.40625 3.5 1.84375a.88056268.88056268 0 0 0 .8125-1.5625l-2.5-1.3125 2.28125-1.3125a.8685661.8685661 0 1 0-.875-1.5l-2.3125 1.3125.125-2.8125a.8685661.8685661 0 0 0-1-.90625.8685661.8685661 0 0 0-.71875.84375l-.1875 3.90625-4.1875 2.4375v-4.84375l3.3125-2.09375a.87122512.87122512 0 1 0-.9375-1.46875l-2.375 1.5v-2.6875a.8685661.8685661 0 0 0-.9375-.90625zm-40.875 6a.6494286.6494286 0 0 0-.15625.0312.6494286.6494286 0 0 0-.5.6875v2l-1.8125-1.125a.6494286.6494286 0 1 0-.65625 1.0625l2.46875 1.59375v3.625l-3.15625-1.84375-.125-2.90625a.6494286.6494286 0 0 0-.75-.65625.6494286.6494286 0 0 0-.53125.71875l.0937 2.09375-1.75-1a.65709392.65709392 0 1 0-.65625 1.125l1.75 1-1.875.96875a.65563792.65563792 0 0 0 .59375 1.15625l2.59375-1.34375 3.15625 1.8125-3.15625 1.8125-2.59375-1.375a.65563792.65563792 0 1 0-.59375 1.15625l1.875.96875-1.75 1a.66475148.66475148 0 0 0 .65625 1.15625l1.75-1-.0937 2.09375a.6505154.6505154 0 1 0 1.28125.0625l.125-2.9375 3.15625-1.84375v3.65625l-2.46875 1.59375a.6494286.6494286 0 1 0 .65625 1.0625l1.8125-1.125v2a.6496617.6496617 0 0 0 1.28125 0v-2l1.8125 1.125a.6494286.6494286 0 1 0 .65625-1.0625l-2.46875-1.59375v-3.65625l3.125 1.84375.15625 2.9375a.6505154.6505154 0 1 0 1.28125-.0625l-.0937-2.09375 1.75 1a.66475148.66475148 0 0 0 .65625-1.15625l-1.75-1 1.875-.96875a.65563792.65563792 0 1 0-.59375-1.15625l-2.59375 1.375-3.15625-1.84375 3.15625-1.78125 2.59375 1.34375a.65563792.65563792 0 0 0 .59375-1.15625l-1.875-.96875 1.75-1a.65709392.65709392 0 0 0-.65625-1.125l-1.75 1 .0937-2.09375a.6494286.6494286 0 0 0-.75-.71875.6494286.6494286 0 0 0-.53125.65625l-.15625 2.90625-3.125 1.84375v-3.625l2.46875-1.59375a.6494286.6494286 0 1 0-.65625-1.0625l-1.8125 1.125v-2a.6494286.6494286 0 0 0-.625-.71875z" fill="url(#i)"/>
</svg>
