<svg xmlns:osb="http://www.openswatchbook.org/uri/2009/osb" xmlns="http://www.w3.org/2000/svg" xmlns:xlink="http://www.w3.org/1999/xlink" width="128" height="128">
  <defs>
    <linearGradient xlink:href="#a" id="e" x1="-606.32935" y1="1138.1901" x2="-476.95706" y2="1138.1901" gradientUnits="userSpaceOnUse"/>
    <linearGradient id="a" osb:paint="solid">
      <stop offset="0" stop-opacity="0"/>
    </linearGradient>
    <filter id="f" x="-.10462177" width="1.2092435" y="-.11590752" height="1.231815" color-interpolation-filters="sRGB">
      <feGaussianBlur stdDeviation="4.6110333"/>
    </filter>
    <linearGradient xlink:href="#b" id="g" gradientUnits="userSpaceOnUse" gradientTransform="translate(-602 1077.328)" x1="54" y1="-e-8" x2="54" y2="120.56637"/>
    <linearGradient id="b">
      <stop offset="0" stop-color="#c6c6c6"/>
      <stop offset="1" stop-color="#c6c6c6"/>
    </linearGradient>
    <linearGradient xlink:href="#c" id="h" gradientUnits="userSpaceOnUse" gradientTransform="translate(-435.597 140.223) scale(1.0661)" x1="54" y1="-e-8" x2="54" y2="120.56637"/>
    <linearGradient id="c">
      <stop offset="0" stop-color="#22a0ef"/>
      <stop offset="1" stop-color="#22a0ef"/>
    </linearGradient>
    <linearGradient xlink:href="#d" id="i" gradientUnits="userSpaceOnUse" gradientTransform="translate(-435.597 140.223) scale(1.0661)" x1="54" y1="-e-8" x2="54" y2="120.56637"/>
    <linearGradient id="d">
      <stop offset="0" stop-color="#fff"/>
      <stop offset="1" stop-color="#fff"/>
    </linearGradient>
    <linearGradient xlink:href="#d" id="j" gradientUnits="userSpaceOnUse" gradientTransform="translate(-435.597 140.223) scale(1.0661)" x1="54" y1="-e-8" x2="54" y2="120.56637"/>
  </defs>
  <path d="M-560.8125 1090.4528c-1.0259-.01-2.10431.047-3.21875.1875-17.79816 2.25-17.25 17.25-17.25 17.25-7.28984 1.2171-13.25 7.4675-13.25 14 0 6.5324 7.61805 12.3188 14 14 3.79621 1 8.78125 0 8.78125 0 2.25347 3.9031 9.66184 6.5 14.84375 6.5 8.44939 0 17.125-2.75 19.125-6.5 0 0 34.98746 2.75 42.25 0 10.57262-4.0034 7.28463-16.521.25-20.75-7.03463-4.229-16.25-1.25-16.25-1.25s-.0204-8.6045-9.96875-12.7188c-9.94833-4.1142-18.375 4.9688-18.375 4.9688s-5.54894-15.5944-20.9375-15.6875zm-22.375 50.125c-3.50193 3.4124-9.36089 13.8612-3.65625 15.4062 5.70464 1.545 5.3433-10.8966 3.65625-15.4062zm59.71875 4.0625a.79781176.79781176 0 0 0-.625.8125v1.4687l-1.3125-.875a.8149003.8149003 0 1 0-.875 1.375l2.1875 1.375v2.875l-2.5-1.4375-.0937-2.5625a.79781176.79781176 0 0 0-.84375-.7812.79781176.79781176 0 0 0-.75.8437l.0625 1.5625-1.28125-.75a.80436796.80436796 0 1 0-.78125 1.4063l1.25.7187-1.40625.75a.79922413.79922413 0 0 0 .75 1.4063l2.3125-1.1875 2.5 1.4375-2.5 1.4375-2.3125-1.2188a.8106951.8106951 0 1 0-.75 1.4375l1.4375.7188-1.28125.7187a.80436796.80436796 0 1 0 .78125 1.4063l1.28125-.75-.0625 1.5937a.79781176.79781176 0 1 0 1.59375.062l.0937-2.5937 2.5-1.4375v2.875l-2.1875 1.4062a.79781176.79781176 0 1 0 .875 1.3125l1.3125-.8437v1.4687a.79781176.79781176 0 1 0 1.59375 0v-1.4375l1.34375.8438a.79984986.79984986 0 1 0 .84375-1.3438l-2.1875-1.4062v-2.875l2.5 1.4375.125 2.5937a.79842416.79842416 0 0 0 1.59375-.062l-.0625-1.5937 1.25.75a.8120708.8120708 0 1 0 .8125-1.4063l-1.28125-.7187 1.40625-.7188a.8106951.8106951 0 1 0-.75-1.4375l-2.3125 1.2188-2.46875-1.4688 2.46875-1.4062 2.3125 1.1875a.79781176.79781176 0 1 0 .75-1.4063l-1.40625-.75 1.28125-.7187a.8120708.8120708 0 1 0-.8125-1.4063l-1.25.75.0625-1.5625a.79781176.79781176 0 0 0-.84375-.8437.79781176.79781176 0 0 0-.75.7812l-.125 2.5625-2.5 1.4375v-2.875l2.1875-1.375a.80661934.80661934 0 1 0-.84375-1.375l-1.34375.875v-1.4687a.79781176.79781176 0 0 0-.875-.8125.79781176.79781176 0 0 0-.0937 0zm-48.46875.1875c-1.46446 0-2.84375 2.0667-2.84375 3.5312 0 1.4645 1.37929 1.75 2.84375 1.75 1.46447 0 2.625-2.0667 2.625-3.5312 0-1.4644-1.16053-1.75-2.625-1.75zm70.03125 1.4687c-1.46446 0-1.59375 2.4418-1.59375 3.9063 0 1.4645 1.19179 1.2187 2.65625 1.2187 1.46447 0 2.65625-1.1918 2.65625-2.6562 0-1.4645-2.25428-2.4688-3.71875-2.4688zm-48.65625 2.4063c-1.46446 0-4.0625 1.3792-4.0625 2.8437 0 1.4645.47304 2.8125 1.9375 2.8125 1.46447 0 3.375-1.348 3.375-2.8125s.21447-2.8437-1.25-2.8437zm8.1875 10.2187c-3.50193 3.4124-9.36089 13.8613-3.65625 15.4063 5.70464 1.545 5.3433-10.8967 3.65625-15.4063zm35.375 3.25c-3.50193 3.4124-9.32964 13.8613-3.625 15.4063 5.70464 1.545 5.31205-10.8967 3.625-15.4063zm-57.78125 1.9063a1.0319234 1.0319234 0 0 0-.90625 1.0625v1.875l-1.71875-1.0938a1.0402073 1.0402073 0 1 0-1.125 1.75l2.84375 1.8125v3.7188l-3.25-1.875-.125-3.3438a1.0319234 1.0319234 0 0 0-1.09375-1 1.0319234 1.0319234 0 0 0-.96875 1.0938l.0937 2.0312-1.65625-.9687a1.0426688 1.0426688 0 1 0-1.03125 1.8125l1.625.9375-1.78125.9687a1.0337219 1.0337219 0 1 0 .96875 1.8125l2.9375-1.5312 3.25 1.8437-3.25 1.875-2.9375-1.5625a1.0414023 1.0414023 0 1 0-.96875 1.8438l1.8125.9375-1.65625.9375a1.0319234 1.0319234 0 1 0 1.03125 1.7812l1.65625-.9375-.0937 2.0313a1.0323205 1.0323205 0 1 0 2.0625.094l.125-3.3437 3.25-1.8438v3.6875l-2.84375 1.8125a1.0319234 1.0319234 0 1 0 1.125 1.7188l1.71875-1.0938v1.9375a1.0319234 1.0319234 0 1 0 2.0625 0v-1.9062l1.71875 1.0937a1.034561 1.034561 0 1 0 1.09375-1.75l-2.8125-1.7812v-3.75l3.21875 1.875.15625 3.3437a1.0327156 1.0327156 0 1 0 2.0625-.094l-.0937-2.0313 1.625.9375a1.0319234 1.0319234 0 1 0 1.03125-1.7812l-1.65625-.9375 1.84375-.9375a1.0414023 1.0414023 0 1 0-.96875-1.8438l-2.96875 1.5625-3.21875-1.875 3.21875-1.8437 2.96875 1.5312a1.0319234 1.0319234 0 1 0 .96875-1.8125l-1.8125-.9687 1.625-.9375a1.0426688 1.0426688 0 1 0-1.03125-1.8125l-1.625.9687.0937-2.0312a1.0319234 1.0319234 0 0 0-1.09375-1.0938 1.0319234 1.0319234 0 0 0-.96875 1l-.15625 3.3438-3.21875 1.875v-3.7188l2.8125-1.8125a1.034561 1.034561 0 1 0-1.09375-1.75l-1.71875 1.0938v-1.875a1.0319234 1.0319234 0 0 0-1.15625-1.0625zm33.09375 3.125c-1.46446 0-2.125 1.3792-2.125 2.8437 0 1.4644 1.19179 2.625 2.65625 2.625 1.46447 0 2.8125-.098 2.8125-1.5625 0-1.4644-1.87928-3.9062-3.34375-3.9062zm-53.75 3.5c-1.46446 0-2.65625 1.1917-2.65625 2.6562 0 1.4644.84987 3 3.375 3 1.46447 0 1.9375-2.7855 1.9375-4.25 0-1.4642-1.19178-1.4062-2.65625-1.4062z" opacity=".6" fill="url(#e)" filter="url(#f)" transform="translate(641.452 -1149.438) scale(1.0661)"/>
  <path d="M-560.8125 1090.4528c-1.0259-.01-2.10431.047-3.21875.1875-17.79816 2.25-17.25 17.25-17.25 17.25-7.28984 1.2171-13.25 7.4675-13.25 14 0 6.5324 7.61805 12.3188 14 14 3.79621 1 8.78125 0 8.78125 0 2.25347 3.9031 9.66184 6.5 14.84375 6.5 8.44939 0 17.125-2.75 19.125-6.5 0 0 34.98746 2.75 42.25 0 10.57262-4.0034 7.28463-16.521.25-20.75-7.03463-4.229-16.25-1.25-16.25-1.25s-.0204-8.6045-9.96875-12.7188c-9.94833-4.1142-18.375 4.9688-18.375 4.9688s-5.54894-15.5944-20.9375-15.6875z" fill="url(#g)" transform="translate(641.452 -1149.438) scale(1.0661)"/>
  <path transform="translate(435.25 -141.11)" d="M-415.53125 207.65625c-3.73345 3.638-9.98803 14.79036-3.90625 16.4375 6.08178 1.64714 5.70483-11.62976 3.90625-16.4375zm43.5 19.5625c-3.73345 3.638-9.98803 14.75911-3.90625 16.40625 6.08178 1.64714 5.70483-11.59851 3.90625-16.40625zm37.71875 3.46875c-3.73345 3.638-9.95678 14.75911-3.875 16.40625 6.08178 1.64714 5.67358-11.59851 3.875-16.40625z" fill="url(#h)"/>
  <path transform="translate(435.25 -141.11)" d="M-351.6875 211.96875a.8505563.8505563 0 0 0-.0937.0312.8505563.8505563 0 0 0-.0937 0 .8505563.8505563 0 0 0-.65625.84375v1.5625l-1.40625-.90625a.86877458.86877458 0 1 0-.9375 1.4375l2.34375 1.46875v3.0625l-2.6875-1.53125-.0937-2.71875a.8505563.8505563 0 0 0-.9064-.8437.8505563.8505563 0 0 0-.78125.90625l.0625 1.65625-1.375-.78125a.85754593.85754593 0 1 0-.8125 1.5l1.3125.75-1.5.8125a.852959.852959 0 0 0 .8125 1.5l2.46875-1.28125 2.65625 1.53125-2.65625 1.53125-2.46875-1.28125a.8667299.8667299 0 1 0-.8125 1.53125l1.53125.75-1.34375.78125a.85754593.85754593 0 1 0 .8125 1.5l1.375-.8125-.0625 1.71875a.8505563.8505563 0 1 0 1.6875.0625l.0937-2.78125 2.6875-1.53125V225.5l-2.34375 1.5a.8505563.8505563 0 1 0 .9375 1.40625l1.40625-.90625v1.5625a.8505563.8505563 0 1 0 1.6875 0v-1.53125l1.4375.90625A.85272913.85272913 0 1 0-348.5 227l-2.34375-1.5v-3.0625l2.65625 1.53125.15625 2.78125a.85120918.85120918 0 0 0 1.6875-.0625l-.0625-1.71875 1.34375.8125a.86575802.86575802 0 1 0 .84375-1.5l-1.34375-.78125 1.5-.75a.8667299.8667299 0 0 0-.8125-1.53125l-2.46875 1.28125-2.625-1.5625 2.625-1.5 2.46875 1.28125a.852959.852959 0 1 0 .8125-1.5l-1.5-.8125 1.34375-.75a.86575802.86575802 0 1 0-.84375-1.5l-1.34375.78125.0625-1.65625a.8505563.8505563 0 0 0-.90625-.90625.8505563.8505563 0 0 0-.78125.84375l-.15625 2.71875-2.65625 1.53125v-3.0625l2.34375-1.46875a.85994616.85994616 0 1 0-.90625-1.4375l-1.4375.90625v-1.5625a.8505563.8505563 0 0 0-.84375-.875zm-44.09375 20.71875a1.1001454 1.1001454 0 0 0-.125.0312 1.1001454 1.1001454 0 0 0-.96875 1.125v2l-1.84375-1.15625a1.108977 1.108977 0 0 0-1.1875 1.84375l3.03125 1.9375v3.96875l-3.46875-2-.125-3.5625a1.1001454 1.1001454 0 0 0-1.1875-1.0625 1.1001454 1.1001454 0 0 0-1.03125 1.15625l.0937 2.15625-1.75-1.03125a1.1124517 1.1124517 0 1 0-1.09375 1.9375l1.71875 1-1.90625 1.03125a1.1020628 1.1020628 0 1 0 1.03125 1.9375l3.15625-1.625 3.46875 1.96875-3.46875 2-3.15625-1.6875a1.111244 1.111244 0 1 0-1.03125 1.96875l1.9375 1-1.75 1a1.1001454 1.1001454 0 1 0 1.09375 1.90625l1.75-1-.0937 2.15625a1.1111342 1.1111342 0 1 0 2.21875.125l.125-3.59375 3.46875-1.9375v3.90625l-3.03125 1.9375a1.1001454 1.1001454 0 1 0 1.1875 1.84375l1.84375-1.15625v2.0625a1.1001454 1.1001454 0 1 0 2.1875 0v-2.03125l1.84375 1.15625a1.1029574 1.1029574 0 1 0 1.15625-1.875l-3-1.90625v-3.96875l3.4375 1.96875.15625 3.59375a1.1111342 1.1111342 0 1 0 2.21875-.125l-.125-2.15625 1.75 1a1.1001454 1.1001454 0 1 0 1.09375-1.90625l-1.75-1 1.9375-1A1.111244 1.111244 0 1 0-387 244.65625l-3.15625 1.6875-3.4375-2 3.4375-1.96875L-387 244a1.1001454 1.1001454 0 1 0 1.03125-1.9375l-1.90625-1.03125 1.71875-1a1.1124517 1.1124517 0 1 0-1.09375-1.9375L-389 239.125l.125-2.15625a1.1001454 1.1001454 0 0 0-1.1875-1.15625 1.1001454 1.1001454 0 0 0-1.03125 1.0625l-.15625 3.5625-3.4375 2v-3.96875l3-1.9375a1.1029574 1.1029574 0 1 0-1.15625-1.84375l-1.84375 1.15625v-2a1.1001454 1.1001454 0 0 0-1.09375-1.15625z" fill="url(#i)"/>
  <path transform="translate(435.25 -141.11)" d="M-403.53125 212.1875c-1.56128 0-3.0625 2.18868-3.0625 3.75 0 1.56132 1.50122 1.875 3.0625 1.875 1.56129 0 2.78125-2.18868 2.78125-3.75 0-1.56121-1.21996-1.875-2.78125-1.875zm74.65625 1.5625c-1.56128 0-1.71875 2.59493-1.71875 4.15625 0 1.56132 1.28247 1.3125 2.84375 1.3125 1.56129 0 2.84375-1.28254 2.84375-2.84375 0-1.56132-2.40746-2.625-3.96875-2.625zm-51.875 2.5625c-1.56128 0-4.34375 1.46993-4.34375 3.03125s.50122 3 2.0625 3c1.56129 0 3.59375-1.43868 3.59375-3s.24879-3.03125-1.3125-3.03125zm20.125 19.71875c-1.56128 0-2.28125 1.46993-2.28125 3.03125 0 1.56121 1.28247 2.8125 2.84375 2.8125 1.56129 0 3-.0949 3-1.65625 0-1.56121-2.00121-4.1875-3.5625-4.1875zm-57.3125 3.75c-1.56128 0-2.84375 1.25118-2.84375 2.8125 0 1.56121.90168 3.21875 3.59375 3.21875 1.56129 0 2.09375-2.96993 2.09375-4.53125 0-1.561-1.28246-1.5-2.84375-1.5z" fill="url(#j)"/>
</svg>
