<svg xmlns:osb="http://www.openswatchbook.org/uri/2009/osb" xmlns="http://www.w3.org/2000/svg" xmlns:xlink="http://www.w3.org/1999/xlink" width="128" height="128">
  <defs>
    <linearGradient xlink:href="#a" id="e" x1="-606.32941" y1="1258.8959" x2="-476.957" y2="1258.8959" gradientUnits="userSpaceOnUse"/>
    <linearGradient id="a" osb:paint="solid">
      <stop offset="0" stop-opacity="0"/>
    </linearGradient>
    <filter id="f" x="-.10462177" width="1.2092435" y="-.10567694" height="1.2113539" color-interpolation-filters="sRGB">
      <feGaussianBlur stdDeviation="4.6110333"/>
    </filter>
    <linearGradient xlink:href="#b" id="g" gradientUnits="userSpaceOnUse" gradientTransform="translate(-435.23 277.6) scale(1.06612)" x1="55.507881" y1=".14540049" x2="55.507881" y2="120.45541"/>
    <linearGradient id="b">
      <stop offset="0" stop-color="#c6c6c6"/>
      <stop offset="1" stop-color="#c6c6c6"/>
    </linearGradient>
    <linearGradient xlink:href="#c" id="h" gradientUnits="userSpaceOnUse" gradientTransform="translate(-435.23 277.6) scale(1.06612)" x1="55.507881" y1=".14540049" x2="55.507881" y2="120.45541"/>
    <linearGradient id="c">
      <stop offset="0" stop-color="#22a0ef"/>
      <stop offset="1" stop-color="#22a0ef"/>
    </linearGradient>
    <linearGradient xlink:href="#d" id="i" gradientUnits="userSpaceOnUse" gradientTransform="translate(-435.23 277.6) scale(1.06612)" x1="55.507881" y1=".14540049" x2="55.507881" y2="120.45541"/>
    <linearGradient id="d">
      <stop offset="0" stop-color="#7d7d7d"/>
      <stop offset="1" stop-color="#6e6e6e"/>
    </linearGradient>
  </defs>
  <path d="M-560.8125 1206.5371c-1.0259-.01-2.10431.047-3.21875.1875-17.79816 2.25-17.25 17.25-17.25 17.25-7.28984 1.2171-13.25 7.4675-13.25 14 0 6.5324 7.61805 12.3188 14 14 3.79621 1 8.78125 0 8.78125 0 2.25347 3.9031 9.66184 6.5 14.84375 6.5 8.44939 0 17.125-2.75 19.125-6.5 0 0 34.98746 2.75 42.25 0 10.57262-4.0034 7.28463-16.521.25-20.75-7.03463-4.229-16.25-1.25-16.25-1.25s-.0204-8.6045-9.96875-12.7187c-9.94833-4.1143-18.375 4.9687-18.375 4.9687s-5.54894-15.5943-20.9375-15.6875zm2.15625 12.125A1.50015 1.50015 0 0 1-557 1220.1934v2.75l2.5-1.5938a1.5040034 1.5040034 0 0 1 1.625 2.5313l-4.125 2.625v5.4062l4.6875-2.7187.21875-4.8438a1.50015 1.50015 0 0 1 1.40625-1.4687 1.50015 1.50015 0 0 1 1.59375 1.5937l-.125 2.9375 2.375-1.375a1.5116733 1.5116733 0 0 1 1.5 2.625l-2.375 1.375 2.625 1.375a1.50015 1.50015 0 1 1-1.375 2.6563l-4.34375-2.25-4.6875 2.6875 4.6875 2.7187 4.34375-2.25a1.50015 1.50015 0 1 1 1.375 2.6563l-2.65625 1.375 2.40625 1.375a1.50015 1.50015 0 1 1-1.5 2.5937l-2.375-1.375.125 2.9688a1.5013015 1.5013015 0 0 1-3 .125l-.21875-4.875-4.6875-2.7188v5.4375l4.125 2.625a1.5040034 1.5040034 0 0 1-1.625 2.5313l-2.5-1.5938v2.75a1.50015 1.50015 0 1 1-3 0v-2.7812l-2.5 1.5937a1.50015 1.50015 0 1 1-1.625-2.5l4.125-2.6562v-5.375l-4.6875 2.6875-.21875 4.875a1.50015 1.50015 0 1 1-2.96875-.125l.125-2.9688-2.40625 1.375a1.50015 1.50015 0 1 1-1.5-2.5937l2.40625-1.375-2.65625-1.375a1.5027865 1.5027865 0 0 1 1.40625-2.6563l4.3125 2.25 4.6875-2.6875-4.6875-2.7187-4.3125 2.25a1.5027865 1.5027865 0 0 1-1.40625-2.6563l2.625-1.375-2.375-1.375a1.5116733 1.5116733 0 0 1 1.5-2.625l2.40625 1.375-.125-2.9375a1.50015 1.50015 0 0 1 1.40625-1.5937 1.50015 1.50015 0 0 1 1.5625 1.4687l.21875 4.8438 4.6875 2.7187v-5.4062l-4.125-2.625a1.5040034 1.5040034 0 0 1 1.625-2.5313l2.5 1.5938v-2.75a1.50015 1.50015 0 0 1 1.34375-1.5313zm-22.375 39.3125c-3.50193 3.4124-9.36089 13.8613-3.65625 15.4063 5.70464 1.545 5.3433-10.8967 3.65625-15.4063zm52 1c-3.50193 3.4124-9.36089 13.8613-3.65625 15.4063 5.70464 1.545 5.3433-10.8967 3.65625-15.4063zm17.25.25c-3.50193 3.4124-9.36089 13.8613-3.65625 15.4063 5.70464 1.545 5.3433-10.8967 3.65625-15.4063zm-36 2.25c-3.50193 3.4124-9.36089 13.8613-3.65625 15.4063 5.70464 1.545 5.3433-10.8967 3.65625-15.4063zm-19.25 6.5c-3.50193 3.4124-9.36089 13.8613-3.65625 15.4063 5.70464 1.545 5.3433-10.8967 3.65625-15.4063zm62.5 7c-3.50193 3.4124-9.36089 13.8613-3.65625 15.4063 5.70464 1.545 5.3433-10.8967 3.65625-15.4063zm-18.75.2188c-3.50193 3.4124-9.36089 13.83-3.65625 15.375 5.70464 1.545 5.3433-10.8654 3.65625-15.375zm-16.5.2812c-3.50193 3.4124-9.36089 13.8613-3.65625 15.4063 5.70464 1.545 5.3433-10.8967 3.65625-15.4063zm-17 6.5c-3.50193 3.4124-9.36089 13.8613-3.65625 15.4063 5.70464 1.545 5.3433-10.8967 3.65625-15.4063zm-24 .5c-3.50193 3.4124-9.36089 13.8613-3.65625 15.4063 5.70464 1.545 5.3433-10.8967 3.65625-15.4063zm28.5625 12.7813c-2.39302 0-2.38812 3 0 3h42.0625c2.74146 0 2.74574-3 0-3h-42.0625zm-40.25 6c-2.39302 0-2.38812 3 0 3h42.0625c2.74146 0 2.74574-3 0-3h-42.0625zm55.5 1c-2.39302 0-2.38812 3 0 3h42.0625c2.74147 0 2.74574-3 0-3h-42.0625zm-35 6c-2.39302 0-2.38812 3 0 3h42.0625c2.74146 0 2.74574-3 0-3h-42.0625z" opacity=".6" fill="url(#e)" filter="url(#f)" transform="translate(641.455 -1278.13) scale(1.06612)"/>
  <path transform="translate(435.25 -283.58)" d="M-391.6875 291.75c-1.09373-.0107-2.24938.069-3.4375.21875-18.97492 2.39876-18.375 18.375-18.375 18.375-7.77182 1.29757-14.125 7.97309-14.125 14.9375 0 6.9643 8.10234 13.11389 14.90625 14.90625 4.0472 1.06612 9.375 0 9.375 0 2.40246 4.16116 10.28798 6.9375 15.8125 6.9375 9.00804 0 18.27402-2.93956 20.40625-6.9375 0 0 37.28853 2.93182 45.03125 0 11.27165-4.26809 7.78099-17.58514.28125-22.09375-7.49974-4.50861-17.34375-1.34375-17.34375-1.34375s-.0189-9.17628-10.625-13.5625c-10.60608-4.38633-19.59375 5.28125-19.59375 5.28125s-5.90649-16.61939-22.3125-16.71875zm2.3125 12.9375a1.5993354 1.5993354 0 0 1 1.75 1.625v2.9375l2.65625-1.6875a1.603524 1.603524 0 0 1 1.75 2.6875l-4.40625 2.8125v5.75l5-2.90625.21875-5.15625a1.5993354 1.5993354 0 0 1 1.5-1.5625 1.5993354 1.5993354 0 0 1 1.71875 1.6875l-.125 3.125 2.53125-1.4375a1.6116206 1.6116206 0 0 1 1.59375 2.78125l-2.53125 1.46875 2.78125 1.46875a1.6003235 1.6003235 0 1 1-1.46875 2.84375l-4.625-2.40625-5 2.84375 5 2.90625 4.625-2.40625a1.6003235 1.6003235 0 1 1 1.46875 2.84375l-2.8125 1.46875 2.5625 1.46875a1.5993354 1.5993354 0 1 1-1.59375 2.75l-2.53125-1.46875.125 3.1875a1.6105881 1.6105881 0 0 1-3.21875.125l-.21875-5.1875-5-2.90625v5.78125l4.40625 2.8125a1.603524 1.603524 0 0 1-1.75 2.6875l-2.65625-1.6875v2.9375a1.5993354 1.5993354 0 1 1-3.1875 0v-2.96875l-2.6875 1.6875a1.5993354 1.5993354 0 1 1-1.71875-2.65625l4.40625-2.84375V324.375l-5 2.875-.25 5.1875a1.5993354 1.5993354 0 1 1-3.15625-.125l.125-3.1875-2.5625 1.46875a1.5993354 1.5993354 0 1 1-1.59375-2.75l2.5625-1.46875-2.8125-1.46875a1.6075536 1.6075536 0 0 1 1.5-2.84375l4.59375 2.40625 5-2.84375-5-2.90625L-402 321.125a1.6075536 1.6075536 0 0 1-1.5-2.84375l2.78125-1.46875-2.53125-1.46875a1.6116206 1.6116206 0 0 1 1.59375-2.78125l2.5625 1.4375-.125-3.125a1.5993354 1.5993354 0 0 1 1.5-1.6875 1.5993354 1.5993354 0 0 1 1.65625 1.5625l.25 5.15625 5 2.90625v-5.75l-4.40625-2.8125a1.6034436 1.6034436 0 0 1 1.71875-2.6875l2.6875 1.6875v-2.9375a1.5993354 1.5993354 0 0 1 1.4375-1.625z" fill="url(#g)"/>
  <path transform="translate(435.25 -283.58)" d="M-413.25 346.59375c-3.73347 3.63802-9.95681 14.79035-3.875 16.4375 6.08181 1.64715 5.67359-11.62974 3.875-16.4375zm55.4375 1.0625c-3.73347 3.63802-9.95681 14.79035-3.875 16.4375 6.08181 1.64715 5.67359-11.62974 3.875-16.4375zm18.40625.28125c-3.73347 3.63802-9.98806 14.7591-3.90625 16.40625 6.08181 1.64715 5.70484-11.59849 3.90625-16.40625zm-38.375 2.40625c-3.73347 3.63802-9.98806 14.7591-3.90625 16.40625 6.08181 1.64715 5.70484-11.59849 3.90625-16.40625zM-398.3125 357.25c-3.73347 3.63802-9.98806 14.79035-3.90625 16.4375 6.08181 1.64715 5.70484-11.62974 3.90625-16.4375zm66.625 7.46875c-3.73347 3.63802-9.98806 14.79035-3.90625 16.4375 6.08181 1.64715 5.70484-11.62974 3.90625-16.4375zm-20 .25c-3.73347 3.63802-9.95681 14.72785-3.875 16.375 6.08181 1.64715 5.67359-11.56724 3.875-16.375zm-17.5625.28125c-3.73347 3.63802-9.98806 14.79035-3.90625 16.4375 6.08181 1.64715 5.70484-11.62974 3.90625-16.4375zm-18.125 6.9375c-3.73347 3.63802-9.98806 14.7591-3.90625 16.40625 6.08181 1.64715 5.70484-11.59849 3.90625-16.40625zm-25.59375.53125c-3.73347 3.63802-9.98806 14.79035-3.90625 16.4375 6.08181 1.64715 5.70484-11.62974 3.90625-16.4375z" fill="url(#h)"/>
  <path transform="translate(435.25 -283.58)" d="M-382.53125 386.34375c-2.55124 0-2.54602 3.1875 0 3.1875h44.84375c2.92272 0 2.92728-3.1875 0-3.1875h-44.84375zM-425.4375 392.75c-2.55124 0-2.54602 3.1875 0 3.1875h44.84375c2.92272 0 2.92728-3.1875 0-3.1875h-44.84375zm59.15625 1.0625c-2.55124 0-2.54602 3.1875 0 3.1875h44.84375c2.92273 0 2.92728-3.1875 0-3.1875h-44.84375zm-37.3125 6.375c-2.55124 0-2.54602 3.21875 0 3.21875H-358.75c2.92272 0 2.92728-3.21875 0-3.21875h-44.84375z" fill="url(#i)"/>
</svg>
