<svg xmlns:osb="http://www.openswatchbook.org/uri/2009/osb" xmlns="http://www.w3.org/2000/svg" xmlns:xlink="http://www.w3.org/1999/xlink" width="128" height="128">
  <defs>
    <linearGradient xlink:href="#a" id="e" x1="-606.90906" y1="1384.2233" x2="-476.37741" y2="1384.2233" gradientUnits="userSpaceOnUse"/>
    <linearGradient id="a" osb:paint="solid">
      <stop offset="0" stop-opacity="0"/>
    </linearGradient>
    <filter id="f" x="-.10323786" width="1.2064757" y="-.10567694" height="1.2113539" color-interpolation-filters="sRGB">
      <feGaussianBlur stdDeviation="4.6110333"/>
    </filter>
    <linearGradient xlink:href="#b" id="g" gradientUnits="userSpaceOnUse" gradientTransform="translate(-434.704 420.837) scale(1.05443)" x1="51.836906" y1=".23269074" x2="51.836906" y2="120.3674"/>
    <linearGradient id="b">
      <stop offset="0" stop-color="#c6c6c6"/>
      <stop offset="1" stop-color="#c6c6c6"/>
    </linearGradient>
    <linearGradient xlink:href="#c" id="h" gradientUnits="userSpaceOnUse" gradientTransform="translate(-434.704 420.837) scale(1.05443)" x1="51.836906" y1=".23269074" x2="51.836906" y2="120.3674"/>
    <linearGradient id="c">
      <stop offset="0" stop-color="#22a0ef"/>
      <stop offset="1" stop-color="#22a0ef"/>
    </linearGradient>
    <linearGradient xlink:href="#d" id="i" gradientUnits="userSpaceOnUse" gradientTransform="translate(-434.704 420.837) scale(1.05443)" x1="51.836906" y1=".23269074" x2="51.836906" y2="120.3674"/>
    <linearGradient id="d">
      <stop offset="0" stop-color="#7d7d7d"/>
      <stop offset="1" stop-color="#6e6e6e"/>
    </linearGradient>
  </defs>
  <path d="M-560.10354 1331.8645c-1.0259-.01-2.10431.047-3.21875.1875-17.79816 2.25-17.25 17.25-17.25 17.25-7.28984 1.2171-13.25 7.4675-13.25 14 0 6.5324 7.61805 12.3188 14 14 3.79621 1 8.78125 0 8.78125 0 2.25347 3.9031 9.66184 6.5 14.84375 6.5 8.44939 0 17.125-2.75 19.125-6.5 0 0 34.98746 2.75 42.25 0 10.57262-4.0034 7.28463-16.521.25-20.75-7.03463-4.229-16.25-1.25-16.25-1.25s-.0204-8.6045-9.96875-12.7187c-9.94833-4.1143-18.375 4.9687-18.375 4.9687s-5.54894-15.5943-20.9375-15.6875zm2.15625 12.125a1.50015 1.50015 0 0 1 1.65625 1.5313v2.75l2.5-1.5938a1.5040034 1.5040034 0 0 1 1.625 2.5313l-4.125 2.625v5.4062l4.6875-2.7187.21875-4.8438a1.50015 1.50015 0 0 1 1.40625-1.4687 1.50015 1.50015 0 0 1 1.59375 1.5937l-.125 2.9375 2.375-1.375a1.5116733 1.5116733 0 0 1 1.5 2.625l-2.375 1.375 2.625 1.375a1.50015 1.50015 0 1 1-1.375 2.6563l-4.34375-2.25-4.6875 2.6875 4.6875 2.7187 4.34375-2.25a1.50015 1.50015 0 1 1 1.375 2.6563l-2.65625 1.375 2.40625 1.375a1.50015 1.50015 0 1 1-1.5 2.5937l-2.375-1.375.125 2.9688a1.5013015 1.5013015 0 0 1-3 .125l-.21875-4.875-4.6875-2.7188v5.4375l4.125 2.625a1.5040034 1.5040034 0 0 1-1.625 2.5313l-2.5-1.5938v2.75a1.50015 1.50015 0 1 1-3 0v-2.7812l-2.5 1.5937a1.50015 1.50015 0 1 1-1.625-2.5l4.125-2.6562v-5.375l-4.6875 2.6875-.21875 4.875a1.50015 1.50015 0 1 1-2.96875-.125l.125-2.9688-2.40625 1.375a1.50015 1.50015 0 1 1-1.5-2.5937l2.40625-1.375-2.65625-1.375a1.5027865 1.5027865 0 0 1 1.40625-2.6563l4.3125 2.25 4.6875-2.6875-4.6875-2.7187-4.3125 2.25a1.5027865 1.5027865 0 0 1-1.40625-2.6563l2.625-1.375-2.375-1.375a1.5116733 1.5116733 0 0 1 1.5-2.625l2.40625 1.375-.125-2.9375a1.50015 1.50015 0 0 1 1.40625-1.5937 1.50015 1.50015 0 0 1 1.5625 1.4687l.21875 4.8438 4.6875 2.7187v-5.4062l-4.125-2.625a1.5040034 1.5040034 0 0 1 1.625-2.5313l2.5 1.5938v-2.75a1.50015 1.50015 0 0 1 1.34375-1.5313zm-20.9375 38.0625c-5.3144 2.4646-18.15674 11.5357-15.4375 14.9375 2.71916 3.4019 12.85413-9.7004 15.4375-14.9375zm61.875 1.3438c-5.3144 2.4646-18.12549 11.5357-15.40625 14.9375 2.71916 3.4019 12.82288-9.7005 15.40625-14.9375zm19.03125.25c-5.31439 2.4646-18.15673 11.5357-15.4375 14.9375 2.71917 3.4019 12.85414-9.7004 15.4375-14.9375zm-38.84375 3.3125c-5.31439 2.4646-18.12548 11.5357-15.40625 14.9375 2.71916 3.4019 12.82288-9.7004 15.40625-14.9375zm-21.71875 2.2812c-5.3144 2.4646-18.12549 11.5045-15.40625 14.9063 2.71916 3.4019 12.82288-9.6692 15.40625-14.9063zm64.28125 10.5313c-5.3144 2.4646-18.15674 11.5357-15.4375 14.9375 2.71916 3.4019 12.85413-9.7004 15.4375-14.9375zm-29 .5312c-5.3144 2.4646-18.15673 11.5357-15.4375 14.9375 2.71916 3.4019 12.85413-9.7004 15.4375-14.9375zm-55.03125.25c-5.3144 2.4646-18.15674 11.5357-15.4375 14.9375 2.71916 3.4019 12.85413-9.7004 15.4375-14.9375zm21.53125 5.5c-5.31439 2.4646-18.15673 11.5357-15.4375 14.9375 2.71916 3.4019 12.85414-9.7004 15.4375-14.9375zm3.5625 14.5313c-2.39302 0-2.38812 3 0 3h42.0625c2.74146 0 2.74574-3 0-3h-42.0625zm-40.25 6c-2.39302 0-2.38812 3 0 3h42.0625c2.74146 0 2.74574-3 0-3h-42.0625zm55.5 1c-2.39302 0-2.38812 3 0 3h42.0625c2.74147 0 2.74574-3 0-3h-42.0625zm-35 6c-2.39302 0-2.38812 3 0 3h42.0625c2.74146 0 2.74574-3 0-3h-42.0625z" opacity=".6" fill="url(#e)" filter="url(#f)" transform="translate(635.124 -1395.564) scale(1.05443)"/>
  <path transform="translate(435.25 -426.05)" d="M-390.71875 434.84375c-1.08174-.0105-2.1999.0394-3.375.1875-18.76688 2.37246-18.21875 18.1875-18.21875 18.1875-7.68661 1.28334-13.96875 7.8932-13.96875 14.78125 0 6.88795 8.05194 12.9773 14.78125 14.75 4.00283 1.05443 9.25 0 9.25 0 2.37612 4.11554 10.1923 6.84375 15.65625 6.84375 8.90928 0 18.04739-2.88964 20.15625-6.84375 0 0 36.90467 2.89968 44.5625 0 11.14807-4.2213 7.66751-17.41582.25-21.875s-17.125-1.3125-17.125-1.3125-.0102-9.06812-10.5-13.40625c-10.4898-4.33823-19.375 5.21875-19.375 5.21875s-5.86762-16.43298-22.09375-16.53125zm2.28125 12.78125a1.5818005 1.5818005 0 0 1 1.75 1.625v2.875l2.625-1.65625a1.5858636 1.5858636 0 0 1 1.71875 2.65625l-4.34375 2.78125v5.6875l4.9375-2.875.21875-5.09375a1.5818005 1.5818005 0 0 1 1.5-1.5625 1.5818005 1.5818005 0 0 1 1.6875 1.6875l-.15625 3.09375 2.5-1.4375a1.593951 1.593951 0 1 1 1.59375 2.75l-2.5 1.46875 2.78125 1.4375a1.586457 1.586457 0 1 1-1.46875 2.8125l-4.5625-2.375-4.96875 2.84375 4.96875 2.84375 4.5625-2.375a1.586457 1.586457 0 1 1 1.46875 2.8125l-2.8125 1.4375 2.53125 1.46875A1.5818005 1.5818005 0 1 1-376 473.25l-2.5-1.4375.15625 3.125a1.594975 1.594975 0 0 1-3.1875.125l-.21875-5.125-4.9375-2.875v5.75l4.34375 2.75a1.5950516 1.5950516 0 0 1-1.71875 2.6875l-2.625-1.6875v2.90625a1.5818005 1.5818005 0 1 1-3.15625 0v-2.9375l-2.65625 1.6875a1.5819107 1.5819107 0 1 1-1.71875-2.65625l4.375-2.78125v-5.6875l-4.96875 2.84375-.21875 5.125a1.5818005 1.5818005 0 1 1-3.125-.125l.125-3.125-2.53125 1.4375a1.5818005 1.5818005 0 1 1-1.59375-2.71875l2.53125-1.46875-2.78125-1.4375a1.586457 1.586457 0 0 1 1.46875-2.8125l4.5625 2.375 4.9375-2.8125-4.9375-2.875-4.5625 2.375a1.586457 1.586457 0 0 1-1.46875-2.8125l2.75-1.4375-2.5-1.46875a1.593951 1.593951 0 1 1 1.59375-2.75l2.53125 1.4375-.125-3.09375a1.5818005 1.5818005 0 0 1 1.46875-1.6875 1.5818005 1.5818005 0 0 1 1.65625 1.5625l.21875 5.09375 4.96875 2.875v-5.6875l-4.375-2.78125a1.5858636 1.5858636 0 0 1 1.71875-2.65625l2.65625 1.65625v-2.875a1.5818005 1.5818005 0 0 1 1.40625-1.625z" fill="url(#g)"/>
  <path transform="translate(435.25 -426.05)" d="M-410.53125 487.75c-5.60365 2.59874-19.11724 12.16305-16.25 15.75 2.86716 3.58706 13.52602-10.22785 16.25-15.75zm65.25 1.4375c-5.60365 2.59874-19.11724 12.16305-16.25 15.75 2.86716 3.58706 13.52602-10.22796 16.25-15.75zm20.0625.25c-5.60364 2.59874-19.14848 12.16305-16.28125 15.75 2.86717 3.58706 13.55728-10.22785 16.28125-15.75zm-40.9375 3.5c-5.60364 2.59874-19.11723 12.16305-16.25 15.75 2.86716 3.58706 13.52602-10.22785 16.25-15.75zm-22.90625 2.40625c-5.60365 2.59874-19.11724 12.1318-16.25 15.71875 2.86716 3.58706 13.52602-10.1966 16.25-15.71875zm67.78125 11.09375c-5.60365 2.59874-19.14849 12.16305-16.28125 15.75 2.86716 3.58706 13.55727-10.22785 16.28125-15.75zM-351.875 507c-5.60365 2.59874-19.14848 12.16305-16.28125 15.75 2.86716 3.58706 13.55727-10.22785 16.28125-15.75zm-58.03125.28125c-5.60365 2.59874-19.11724 12.16305-16.25 15.75 2.86716 3.58706 13.52602-10.22785 16.25-15.75zm22.71875 5.78125c-5.60364 2.59874-19.14848 12.16305-16.28125 15.75 2.86716 3.58706 13.55728-10.22785 16.28125-15.75z" fill="url(#h)"/>
  <path transform="translate(435.25 -426.05)" d="M-383.4375 528.375c-2.52327 0-2.5181 3.1875 0 3.1875h44.34375c2.89067 0 2.89519-3.1875 0-3.1875h-44.34375zm-42.4375 6.34375c-2.52327 0-2.5181 3.15625 0 3.15625h44.34375c2.89067 0 2.89519-3.15625 0-3.15625H-425.875zm58.53125 1.0625c-2.52327 0-2.5181 3.15625 0 3.15625H-323c2.89068 0 2.89519-3.15625 0-3.15625h-44.34375zm-36.90625 6.3125c-2.52327 0-2.5181 3.15625 0 3.15625h44.34375c2.89067 0 2.89519-3.15625 0-3.15625H-404.25z" fill="url(#i)"/>
</svg>
