<svg xmlns:osb="http://www.openswatchbook.org/uri/2009/osb" xmlns="http://www.w3.org/2000/svg" xmlns:xlink="http://www.w3.org/1999/xlink" width="128" height="128">
  <defs>
    <linearGradient xlink:href="#a" id="d" x1="-5.5635328" y1="995.51898" x2="123.80887" y2="995.51898" gradientUnits="userSpaceOnUse"/>
    <linearGradient id="a" osb:paint="solid">
      <stop offset="0" stop-opacity="0"/>
    </linearGradient>
    <filter id="e" x="-.10462177" width="1.2092435" y="-.12367717" height="1.2473543" color-interpolation-filters="sRGB">
      <feGaussianBlur stdDeviation="4.6110333"/>
    </filter>
    <linearGradient xlink:href="#a" id="f" gradientUnits="userSpaceOnUse" x1="-5.5635328" y1="995.51898" x2="123.80887" y2="995.51898"/>
    <linearGradient xlink:href="#a" id="g" gradientUnits="userSpaceOnUse" x1="-5.5635328" y1="995.51898" x2="123.80887" y2="995.51898"/>
    <linearGradient xlink:href="#a" id="h" gradientUnits="userSpaceOnUse" x1="-5.5635328" y1="995.51898" x2="123.80887" y2="995.51898"/>
    <linearGradient xlink:href="#a" id="i" gradientUnits="userSpaceOnUse" x1="-5.5635328" y1="995.51898" x2="123.80887" y2="995.51898"/>
    <linearGradient xlink:href="#a" id="j" gradientUnits="userSpaceOnUse" x1="-5.5635328" y1="995.51898" x2="123.80887" y2="995.51898"/>
    <linearGradient xlink:href="#a" id="k" gradientUnits="userSpaceOnUse" x1="-5.5635328" y1="995.51898" x2="123.80887" y2="995.51898"/>
    <linearGradient xlink:href="#b" id="l" gradientUnits="userSpaceOnUse" x1="49.734631" y1="937.51898" x2="49.734631" y2="1057.7362"/>
    <linearGradient id="b">
      <stop offset="0" stop-color="#c6c6c6"/>
      <stop offset="1" stop-color="#c6c6c6"/>
    </linearGradient>
    <linearGradient xlink:href="#b" id="m" gradientUnits="userSpaceOnUse" x1="49.734631" y1="937.51898" x2="49.734631" y2="1057.7362"/>
    <linearGradient xlink:href="#c" id="n" gradientUnits="userSpaceOnUse" x1="49.734631" y1="937.51898" x2="49.734631" y2="1057.7362" gradientTransform="translate(-578.26 -1283.642) scale(1.06612)"/>
    <linearGradient id="c">
      <stop offset="0" stop-color="#22a0ef"/>
      <stop offset="1" stop-color="#22a0ef"/>
    </linearGradient>
  </defs>
  <g opacity=".6" fill="url(#d)" filter="url(#e)" transform="translate(.968 -997.34) scale(1.06612)">
    <path d="M20.23463 996.22742c3.79621 1 8.76977 0 8.76977 0 2.25347 3.90308 9.68191 6.49998 14.86382 6.49998 8.44939 0 17.11382-2.74998 19.11382-6.49998 0 0 34.99005 2.75 42.25259 0 10.57262-4.0034 7.28463-16.52103.25-20.75002s-16.25-1.25-16.25-1.25-.0274-8.62013-9.97575-12.73438c-9.94833-4.11424-18.35543 4.98438-18.35543 4.98438s-6.33785-17.75415-24.16882-15.5c-17.79816 2.25-17.25 17.25-17.25 17.25-7.28984 1.2171-13.25 7.46754-13.25 14.00002 0 6.5324 7.61805 12.3188 14 14z" fill="url(#f)"/>
    <path d="M16.08901 1017.6263c-5.70464-1.545.13593-11.9846 3.63786-15.397 1.68705 4.5096 2.06678 16.942-3.63786 15.397z" fill="url(#g)"/>
    <path d="M34.08901 1036.6263c-5.70464-1.545.13593-11.9846 3.63786-15.397 1.68705 4.5096 2.06678 16.942-3.63786 15.397z" fill="url(#h)"/>
    <path d="M59.33901 1024.1263c-5.70464-1.545.13593-11.9846 3.63786-15.397 1.68705 4.5096 2.06678 16.942-3.63786 15.397z" fill="url(#i)"/>
    <path d="M73.83901 1040.1263c-5.70464-1.545.13593-11.9846 3.63786-15.397 1.68705 4.5096 2.06678 16.942-3.63786 15.397z" fill="url(#j)"/>
    <path d="M92.83901 1022.8763c-5.70464-1.545.13593-11.9846 3.63786-15.397 1.68705 4.5096 2.06678 16.942-3.63786 15.397z" fill="url(#k)"/>
  </g>
  <g fill="url(#l)" transform="translate(.968 -997.34) scale(1.06612)">
    <path d="M20.23463 996.22742c3.79621 1 8.76977 0 8.76977 0 2.25347 3.90308 9.68191 6.49998 14.86382 6.49998 8.44939 0 17.11382-2.74998 19.11382-6.49998 0 0 34.99005 2.75 42.25259 0 10.57262-4.0034 7.28463-16.52103.25-20.75002s-16.25-1.25-16.25-1.25-.0274-8.62013-9.97575-12.73438c-9.94833-4.11424-18.35543 4.98438-18.35543 4.98438s-6.33785-17.75415-24.16882-15.5c-17.79816 2.25-17.25 17.25-17.25 17.25-7.28984 1.2171-13.25 7.46754-13.25 14.00002 0 6.5324 7.61805 12.3188 14 14z" fill="url(#m)"/>
    <path transform="translate(542.397 1204.035) scale(.93798)" d="M-557.21875-215.15625c-3.73347 3.63802-9.95681 14.79035-3.875 16.4375 6.08181 1.64715 5.67359-11.62974 3.875-16.4375zm81.8125 5.59375c-3.73347 3.63802-9.95681 14.79035-3.875 16.4375 6.08181 1.64715 5.67359-11.62974 3.875-16.4375zm-35.71875 1.34375c-3.73347 3.63802-9.95681 14.7591-3.875 16.40625 6.08181 1.64715 5.67359-11.59849 3.875-16.40625zm-26.90625 13.3125c-3.73347 3.63802-9.95681 14.79035-3.875 16.4375 6.08181 1.64715 5.67359-11.62974 3.875-16.4375zm42.375 3.75c-3.73347 3.63802-9.95681 14.7591-3.875 16.40625 6.08181 1.64715 5.67359-11.59849 3.875-16.40625z" fill="url(#n)"/>
  </g>
</svg>
