<svg xmlns:osb="http://www.openswatchbook.org/uri/2009/osb" xmlns="http://www.w3.org/2000/svg" xmlns:xlink="http://www.w3.org/1999/xlink" width="128" height="128">
  <defs>
    <linearGradient xlink:href="#a" id="d" x1="-606.32941" y1="573.03052" x2="-476.957" y2="573.03052" gradientUnits="userSpaceOnUse"/>
    <linearGradient id="a" osb:paint="solid">
      <stop offset="0" stop-opacity="0"/>
    </linearGradient>
    <filter id="e" x="-.10462177" width="1.2092435" y="-.11798295" height="1.2359658" color-interpolation-filters="sRGB">
      <feGaussianBlur stdDeviation="4.6110333"/>
    </filter>
    <linearGradient xlink:href="#b" id="f" gradientUnits="userSpaceOnUse" gradientTransform="translate(-601.125 512.85)" x1="57.27565" y1="-.20815283" x2="57.27565" y2="120.03327"/>
    <linearGradient id="b">
      <stop offset="0" stop-color="#c6c6c6"/>
      <stop offset="1" stop-color="#c6c6c6"/>
    </linearGradient>
    <linearGradient xlink:href="#c" id="g" gradientUnits="userSpaceOnUse" gradientTransform="translate(-434.664 -571.402) scale(1.06612)" x1="57.27565" y1="-.20815283" x2="57.27565" y2="120.03327"/>
    <linearGradient id="c">
      <stop offset="0" stop-color="#fff"/>
      <stop offset="1" stop-color="#fff"/>
    </linearGradient>
  </defs>
  <path d="M-560.8125 526.13233c-1.02591-.006-2.10432.0466-3.21875.1875-17.79816 2.25-17.25 17.25-17.25 17.25-7.28984 1.2171-13.25 7.46752-13.25 14 0 6.5324 7.61805 12.3188 14 14 3.79621 1 8.78125 0 8.78125 0 2.25347 3.9031 9.66184 6.5 14.84375 6.5 8.44939 0 17.125-2.75 19.125-6.5 0 0 34.98746 2.75 42.25 0 10.57262-4.0034 7.28463-16.52101.25-20.75s-16.25-1.25-16.25-1.25-.0204-8.6045-9.96875-12.71875c-9.94833-4.11424-18.375 4.96875-18.375 4.96875s-5.54894-15.59434-20.9375-15.6875zm-17 55.6875a.60915636.60915636 0 0 0-.46875.625v1.875l-1.6875-1.0625a.61119632.61119632 0 1 0-.65625 1.03125l2.34375 1.46875v3.40625l-2.96875-1.6875-.125-2.78125a.60915636.60915636 0 0 0-.625-.59375.60915636.60915636 0 0 0-.59375.65625l.0937 1.96875-1.625-.9375a.60915636.60915636 0 1 0-.59375 1.0625l1.625.9375-1.78125.9375a.60915636.60915636 0 1 0 .5625 1.0625l2.4375-1.28125 2.9375 1.71875-2.90625 1.6875-2.46875-1.28125a.61498063.61498063 0 1 0-.5625 1.09375l1.75.90625-1.59375.9375a.60915636.60915636 0 1 0 .59375 1.0625l1.625-.9375-.0937 1.96875a.61017576.61017576 0 1 0 1.21875.0625l.125-2.75 2.96875-1.6875v3.40625l-2.34375 1.46875a.61119632.61119632 0 1 0 .65625 1.03125l1.6875-1.0625v1.84375a.609375.609375 0 0 0 1.21875 0v-1.84375l1.65625 1.0625a.61119632.61119632 0 1 0 .65625-1.03125l-2.3125-1.46875v-3.40625l2.9375 1.6875.125 2.75a.61017576.61017576 0 1 0 1.21875-.0625l-.0937-1.96875 1.625.9375a.60915636.60915636 0 1 0 .59375-1.0625l-1.59375-.9375 1.75-.90625a.61498063.61498063 0 1 0-.5625-1.09375l-2.46875 1.28125-2.9375-1.6875 2.96875-1.71875 2.4375 1.28125a.60915636.60915636 0 1 0 .5625-1.0625l-1.78125-.9375 1.625-.9375a.60915636.60915636 0 1 0-.59375-1.0625l-1.625.9375.0937-1.96875a.60915636.60915636 0 0 0-.65625-.65625.60915636.60915636 0 0 0-.5625.59375l-.125 2.78125-2.9375 1.6875v-3.40625l2.3125-1.46875a.61119632.61119632 0 1 0-.65625-1.03125l-1.65625 1.0625v-1.875a.60915636.60915636 0 0 0-.6875-.625.60915636.60915636 0 0 0-.0625 0zm59.96875 1.53125a.81470476.81470476 0 0 0-.65625.84375v2.46875l-2.21875-1.40625a.8149003.8149003 0 1 0-.875 1.375l3.09375 1.96875v4.5625l-3.9375-2.28125-.15625-3.6875a.81470476.81470476 0 0 0-.9375-.78125.81470476.81470476 0 0 0-.6875.84375l.125 2.65625-2.1875-1.25a.81470476.81470476 0 1 0-.8125 1.40625l2.1875 1.28125-2.375 1.21875a.81804.81804 0 0 0 .78125 1.4375l3.25-1.6875 3.9375 2.25-3.9375 2.28125-3.25-1.71875a.83182405.83182405 0 1 0-.78125 1.46875l2.34375 1.21875-2.15625 1.25a.81470476.81470476 0 1 0 .8125 1.40625l2.1875-1.25-.125 2.65625a.81470476.81470476 0 1 0 1.625.0625l.15625-3.6875 3.9375-2.25v4.53125l-3.09375 1.96875a.8149003.8149003 0 1 0 .875 1.375l2.21875-1.40625v2.5a.828125.828125 0 0 0 1.65625 0v-2.5l2.21875 1.40625a.8149003.8149003 0 1 0 .875-1.375l-3.09375-1.96875v-4.5625l3.9375 2.28125.15625 3.6875a.81470476.81470476 0 1 0 1.625-.0625l-.125-2.65625 2.1875 1.25a.81470476.81470476 0 1 0 .8125-1.40625l-2.15625-1.25 2.34375-1.21875a.83182405.83182405 0 0 0-.78125-1.46875l-3.25 1.71875-3.9375-2.28125 3.9375-2.25 3.25 1.6875a.81804.81804 0 0 0 .78125-1.4375l-2.375-1.21875 2.1875-1.28125a.81470476.81470476 0 1 0-.8125-1.40625l-2.1875 1.25.125-2.65625a.81470476.81470476 0 0 0-.96875-.84375.81470476.81470476 0 0 0-.65625.78125l-.15625 3.6875-3.9375 2.28125v-4.5625l3.09375-1.96875a.8149003.8149003 0 1 0-.875-1.375l-2.21875 1.40625v-2.46875a.81470476.81470476 0 0 0-.90625-.84375.81470476.81470476 0 0 0-.0937 0zm-33.3125 19.78125a.60915636.60915636 0 0 0-.15625.0312.60915636.60915636 0 0 0-.46875.625v1.84375l-1.6875-1.0625a.61117523.61117523 0 0 0-.65625 1.03125l2.34375 1.46875v3.40625l-2.96875-1.6875-.125-2.75a.60915636.60915636 0 0 0-.6875-.59375.60915636.60915636 0 0 0-.53125.65625l.0937 1.96875-1.625-.9375a.60915636.60915636 0 1 0-.59375 1.0625l1.59375.9375-1.75.90625a.6149584.6149584 0 1 0 .5625 1.09375l2.46875-1.28125 2.90625 1.6875-2.9375 1.71875-2.4375-1.28125a.60915636.60915636 0 1 0-.5625 1.0625l1.78125.9375-1.625.9375a.60915636.60915636 0 1 0 .59375 1.0625l1.625-.9375-.0937 1.96875a.6101886.6101886 0 0 0 1.21875.0625l.125-2.78125 2.96875-1.6875v3.40625l-2.34375 1.46875a.61117523.61117523 0 0 0 .65625 1.03125l1.6875-1.0625v1.875a.609375.609375 0 0 0 1.21875 0v-1.875l1.65625 1.0625a.61117523.61117523 0 1 0 .65625-1.03125l-2.3125-1.46875v-3.40625l2.9375 1.6875.125 2.78125a.6101886.6101886 0 0 0 1.21875-.0625l-.0937-1.96875 1.625.9375a.60915636.60915636 0 1 0 .59375-1.0625l-1.625-.9375 1.78125-.9375a.60915636.60915636 0 1 0-.5625-1.0625l-2.4375 1.28125-2.96875-1.71875 2.9375-1.6875 2.46875 1.28125a.6149584.6149584 0 1 0 .5625-1.09375l-1.75-.90625 1.59375-.9375a.60915636.60915636 0 1 0-.59375-1.0625l-1.625.9375.0937-1.96875a.60915636.60915636 0 0 0-.71875-.65625.60915636.60915636 0 0 0-.5.59375l-.125 2.75-2.9375 1.6875v-3.40625l2.3125-1.46875a.61117523.61117523 0 0 0-.65625-1.03125l-1.65625 1.0625v-1.84375a.60915636.60915636 0 0 0-.59375-.65625z" opacity=".6" fill="url(#d)" filter="url(#e)" transform="translate(641.455 -546.918) scale(1.06612)"/>
  <path d="M-560.8125 526.13233c-1.02591-.006-2.10432.0466-3.21875.1875-17.79816 2.25-17.25 17.25-17.25 17.25-7.28984 1.2171-13.25 7.46752-13.25 14 0 6.5324 7.61805 12.3188 14 14 3.79621 1 8.78125 0 8.78125 0 2.25347 3.9031 9.66184 6.5 14.84375 6.5 8.44939 0 17.125-2.75 19.125-6.5 0 0 34.98746 2.75 42.25 0 10.57262-4.0034 7.28463-16.52101.25-20.75s-16.25-1.25-16.25-1.25-.0204-8.6045-9.96875-12.71875c-9.94833-4.11424-18.375 4.96875-18.375 4.96875s-5.54894-15.59434-20.9375-15.6875z" fill="url(#f)" transform="translate(641.455 -546.918) scale(1.06612)"/>
  <path transform="translate(435.25 571.244)" d="M-409.8125-497.875a.64943195.64943195 0 0 0-.5.65625v2l-1.78125-1.125a.65438724.65438724 0 1 0-.71875 1.09375l2.5 1.5625v3.65625l-3.15625-1.8125-.125-2.96875a.64943195.64943195 0 0 0-.6875-.625.64943195.64943195 0 0 0-.625.6875l.0937 2.09375-1.71875-1a.66475148.66475148 0 1 0-.65625 1.15625l1.75 1-1.90625 1a.64943195.64943195 0 1 0 .59375 1.125l2.59375-1.375 3.15625 1.84375-3.09375 1.78125-2.65625-1.34375a.6556413.6556413 0 1 0-.59375 1.15625l1.875.96875-1.71875 1a.6512083.6512083 0 1 0 .65625 1.125l1.71875-1-.0937 2.09375a.65699363.65699363 0 1 0 1.3125.0625l.125-2.90625 3.15625-1.8125v3.625l-2.5 1.5625a.6675003.6675003 0 1 0 .71875 1.125l1.78125-1.15625v1.96875a.65625.65625 0 0 0 1.3125 0v-1.96875l1.75 1.15625a.6675003.6675003 0 1 0 .71875-1.125L-409-484.15625v-3.625l3.125 1.8125.125 2.90625a.65699363.65699363 0 1 0 1.3125-.0625l-.0937-2.09375 1.71875 1a.64943195.64943195 0 1 0 .625-1.125l-1.6875-1 1.875-.96875a.6571794.6571794 0 1 0-.625-1.15625l-2.625 1.34375-3.125-1.78125 3.15625-1.84375 2.59375 1.375A.64943195.64943195 0 1 0-402-490.5l-1.90625-1 1.71875-1a.6571794.6571794 0 1 0-.625-1.15625l-1.71875 1 .0937-2.09375a.64943195.64943195 0 0 0-.71875-.6875.64943195.64943195 0 0 0-.59375.625l-.125 2.96875-3.125 1.8125v-3.65625l2.46875-1.5625a.65438724.65438724 0 1 0-.71875-1.09375l-1.75 1.125v-2a.64943195.64943195 0 0 0-.75-.65625.64943195.64943195 0 0 0-.0625 0zm63.9375 1.625a.8685706.8685706 0 0 0-.6875.90625v2.625l-2.375-1.5a.87122512.87122512 0 1 0-.9375 1.46875l3.3125 2.09375v4.875l-4.21875-2.4375-.15625-3.9375a.8685706.8685706 0 0 0-1-.8125.8685706.8685706 0 0 0-.75.90625l.15625 2.8125-2.34375-1.3125a.8685706.8685706 0 1 0-.875 1.5l2.34375 1.34375-2.53125 1.3125a.87416255.87416255 0 0 0 .84375 1.53125l3.46875-1.8125 4.1875 2.40625-4.1875 2.4375-3.46875-1.84375a.88787954.88787954 0 1 0-.84375 1.5625l2.5 1.3125-2.3125 1.34375a.8685706.8685706 0 1 0 .875 1.5l2.34375-1.34375-.15625 2.8125a.87625468.87625468 0 1 0 1.75.0937l.15625-3.9375 4.21875-2.40625v4.84375l-3.3125 2.09375a.87122512.87122512 0 0 0 .9375 1.46875l2.375-1.5v2.65625a.88287814.88287814 0 0 0 1.75 0v-2.65625l2.375 1.5a.87122512.87122512 0 1 0 .9375-1.46875l-3.3125-2.09375v-4.875l4.1875 2.4375.1875 3.9375a.8685706.8685706 0 1 0 1.71875-.0937l-.125-2.8125 2.34375 1.34375a.8685706.8685706 0 1 0 .84375-1.5l-2.28125-1.34375 2.5-1.3125a.88787954.88787954 0 0 0-.84375-1.5625l-3.46875 1.84375-4.1875-2.4375 4.1875-2.40625 3.46875 1.8125a.87416255.87416255 0 0 0 .84375-1.53125l-2.53125-1.3125 2.3125-1.34375a.8685706.8685706 0 1 0-.84375-1.5l-2.34375 1.3125.125-2.8125a.8685706.8685706 0 0 0-1.03125-.90625.8685706.8685706 0 0 0-.6875.8125l-.1875 3.9375-4.1875 2.4375v-4.875L-341.5-492.75a.87122512.87122512 0 1 0-.9375-1.46875l-2.375 1.5v-2.625a.8685706.8685706 0 0 0-.96875-.90625.8685706.8685706 0 0 0-.0937 0zm-35.59375 21.09375a.64943195.64943195 0 0 0-.0937.0312.64943195.64943195 0 0 0-.5.6875v1.9375l-1.78125-1.125a.65438724.65438724 0 0 0-.71875 1.09375l2.5 1.5625v3.65625l-3.15625-1.8125-.125-2.9375a.64943195.64943195 0 0 0-.75-.625.64943195.64943195 0 0 0-.5625.6875l.0937 2.125-1.71875-1a.64943195.64943195 0 1 0-.625 1.125l1.6875 1-1.875.96875a.6556176.6556176 0 0 0 .59375 1.15625l2.65625-1.375 3.09375 1.8125-3.125 1.84375-2.625-1.375a.64943195.64943195 0 1 0-.59375 1.125l1.90625 1-1.71875 1a.64943195.64943195 0 1 0 .625 1.125l1.71875-1-.0937 2.09375a.65792198.65792198 0 0 0 1.3125.0937l.125-2.96875 3.15625-1.8125v3.625l-2.5 1.5625a.6675003.6675003 0 0 0 .71875 1.125l1.78125-1.15625v2a.65625.65625 0 0 0 1.3125 0v-2l1.75 1.15625a.6675003.6675003 0 1 0 .71875-1.125l-2.46875-1.5625v-3.625l3.125 1.8125.125 2.96875a.65792198.65792198 0 0 0 1.3125-.0937l-.0937-2.09375 1.71875 1a.64943195.64943195 0 1 0 .625-1.125l-1.71875-1 1.90625-1a.64943195.64943195 0 1 0-.625-1.125l-2.59375 1.375-3.15625-1.84375 3.125-1.8125 2.625 1.375a.6571794.6571794 0 0 0 .625-1.15625l-1.875-.96875 1.6875-1a.64943195.64943195 0 1 0-.625-1.125l-1.71875 1 .0937-2.125a.64943195.64943195 0 0 0-.78125-.6875.64943195.64943195 0 0 0-.53125.625l-.125 2.9375-3.125 1.8125v-3.65625l2.46875-1.5625A.65438724.65438724 0 0 0-379-473.625l-1.75 1.125v-1.9375a.64943195.64943195 0 0 0-.65625-.71875.64943195.64943195 0 0 0-.0625 0z" fill="url(#g)"/>
</svg>
