<svg xmlns:osb="http://www.openswatchbook.org/uri/2009/osb" xmlns="http://www.w3.org/2000/svg" xmlns:xlink="http://www.w3.org/1999/xlink" width="128" height="128">
  <defs>
    <linearGradient xlink:href="#a" id="d" x1="-606.32941" y1="687.79468" x2="-476.957" y2="687.79468" gradientUnits="userSpaceOnUse"/>
    <linearGradient id="a" osb:paint="solid">
      <stop offset="0" stop-opacity="0"/>
    </linearGradient>
    <filter id="e" x="-.10462177" width="1.2092435" y="-.11708574" height="1.2341715" color-interpolation-filters="sRGB">
      <feGaussianBlur stdDeviation="4.6110333"/>
    </filter>
    <linearGradient xlink:href="#b" id="f" gradientUnits="userSpaceOnUse" x1="57.629204" y1=".14540049" x2="57.629204" y2="120.0881" gradientTransform="translate(-601.125 627.256)"/>
    <linearGradient id="b">
      <stop offset="0" stop-color="#c6c6c6"/>
      <stop offset="1" stop-color="#c6c6c6"/>
    </linearGradient>
    <linearGradient xlink:href="#c" id="g" gradientUnits="userSpaceOnUse" gradientTransform="translate(-434.664 -429.315) scale(1.06612)" x1="57.629204" y1=".14540049" x2="57.629204" y2="120.0881"/>
    <linearGradient id="c">
      <stop offset="0" stop-color="#fff"/>
      <stop offset="1" stop-color="#fff"/>
    </linearGradient>
  </defs>
  <path d="M-560.8125 640.53711c-1.02591-.006-2.10432.0466-3.21875.1875-17.79816 2.25-17.25 17.25-17.25 17.25-7.28984 1.2171-13.25 7.46752-13.25 14 0 6.5324 7.61805 12.3188 14 14 3.79621 1 8.78125 0 8.78125 0 2.25347 3.9031 9.66184 6.5 14.84375 6.5 8.44939 0 17.125-2.75 19.125-6.5 0 0 34.98746 2.75 42.25 0 10.57262-4.0034 7.28463-16.52101.25-20.75s-16.25-1.25-16.25-1.25-.0204-8.6045-9.96875-12.71875c-9.94833-4.11424-18.375 4.96875-18.375 4.96875s-5.54894-15.59434-20.9375-15.6875zm-21.96875 51.4375a.60915636.60915636 0 0 0-.46875.625v1.875l-1.65625-1.0625a.61117523.61117523 0 1 0-.65625 1.03125l2.3125 1.46875v3.40625l-2.9375-1.6875-.125-2.75a.60915636.60915636 0 0 0-.75-.59375.60915636.60915636 0 0 0-.46875.625l.0937 2-1.625-.9375a.60915636.60915636 0 1 0-.625 1.03125l1.65625.9375-1.78125.9375a.60915636.60915636 0 1 0 .5625 1.0625l2.46875-1.25 2.9375 1.6875-2.96875 1.6875-2.4375-1.25a.60915636.60915636 0 1 0-.5625 1.0625l1.75.90625-1.625.9375a.61634634.61634634 0 1 0 .625 1.0625l1.625-.9375-.0937 2a.6095753.6095753 0 1 0 1.21875.0312l.125-2.75 2.9375-1.6875v3.40625l-2.3125 1.46875a.61119632.61119632 0 1 0 .65625 1.03125l1.65625-1.0625v1.875a.609375.609375 0 0 0 1.21875 0v-1.875l1.6875 1.0625a.61119632.61119632 0 1 0 .65625-1.03125l-2.34375-1.46875v-3.4375l2.9375 1.71875.125 2.75a.6095753.6095753 0 0 0 1.21875-.0312l-.0937-2 1.625.9375a.61634634.61634634 0 1 0 .625-1.0625l-1.625-.9375 1.75-.90625a.60915636.60915636 0 1 0-.5625-1.0625l-2.4375 1.25-2.96875-1.6875 2.9375-1.6875 2.46875 1.25a.60915636.60915636 0 1 0 .5625-1.0625l-1.78125-.9375 1.65625-.9375a.60915636.60915636 0 1 0-.625-1.03125l-1.625.9375.0937-2a.60915636.60915636 0 0 0-.78125-.625.60915636.60915636 0 0 0-.4375.59375l-.125 2.75-2.9375 1.6875v-3.40625l2.34375-1.46875a.61117523.61117523 0 1 0-.65625-1.03125l-1.6875 1.0625v-1.875a.60915636.60915636 0 0 0-.625-.625.60915636.60915636 0 0 0-.125 0zm77.4375 1.53125a.60915636.60915636 0 0 0-.5.625v1.875l-1.65625-1.0625a.61119632.61119632 0 0 0-.65625 1.03125l2.3125 1.46875v3.40625l-2.9375-1.6875-.125-2.75a.60915636.60915636 0 0 0-.75-.59375.60915636.60915636 0 0 0-.46875.625l.0937 2-1.625-.9375a.60915636.60915636 0 1 0-.59375 1.03125l1.625.9375-1.78125.9375a.60915636.60915636 0 1 0 .5625 1.0625l2.46875-1.25 2.9375 1.6875-2.9375 1.6875-2.46875-1.25a.60915636.60915636 0 1 0-.5625 1.0625l1.75.90625-1.59375.9375a.60915636.60915636 0 1 0 .59375 1.0625l1.625-.9375-.0937 2a.6095753.6095753 0 1 0 1.21875.0312l.125-2.75 2.9375-1.6875v3.40625l-2.3125 1.46875a.61117523.61117523 0 0 0 .65625 1.03125l1.65625-1.0625v1.875a.609375.609375 0 0 0 1.21875 0v-1.875l1.6875 1.0625a.61117523.61117523 0 1 0 .65625-1.03125l-2.34375-1.46875v-3.4375l2.9375 1.71875.125 2.75a.6095753.6095753 0 0 0 1.21875-.0312l-.0937-2 1.625.9375a.61634634.61634634 0 1 0 .625-1.0625l-1.59375-.9375 1.71875-.90625a.60915636.60915636 0 1 0-.5625-1.0625l-2.4375 1.25-2.9375-1.6875 2.9375-1.6875 2.4375 1.25a.60915636.60915636 0 1 0 .5625-1.0625l-1.75-.9375 1.625-.9375a.60915636.60915636 0 1 0-.625-1.03125l-1.625.9375.0937-2a.60915636.60915636 0 0 0-.75-.625.60915636.60915636 0 0 0-.46875.59375l-.125 2.75-2.9375 1.6875v-3.40625l2.34375-1.46875a.61119632.61119632 0 0 0-.65625-1.03125l-1.6875 1.0625v-1.875a.60915636.60915636 0 0 0-.59375-.625.60915636.60915636 0 0 0-.0625 0 .60915636.60915636 0 0 0-.0625 0zm-28.78125 2.125a.81470476.81470476 0 0 0-.625.84375v2.5l-2.25-1.4375a.8149003.8149003 0 1 0-.875 1.375l3.125 1.96875v4.59375l-3.9375-2.28125-.15625-3.71875a.81470476.81470476 0 0 0-.9375-.78125.81470476.81470476 0 0 0-.6875.875l.0937 2.625-2.15625-1.25a.8256153.8256153 0 1 0-.8125 1.4375l2.15625 1.25-2.34375 1.21875a.81470476.81470476 0 1 0 .75 1.4375l3.28125-1.6875 3.9375 2.25-3.9375 2.28125-3.28125-1.6875a.81470476.81470476 0 1 0-.75 1.4375l2.34375 1.21875-2.15625 1.25a.81470476.81470476 0 1 0 .8125 1.40625l2.15625-1.25-.0937 2.65625a.81470476.81470476 0 1 0 1.625.0625l.15625-3.6875 3.9375-2.28125v4.5625l-3.125 1.96875a.8149003.8149003 0 1 0 .875 1.375l2.25-1.4375v2.53125a.81470476.81470476 0 1 0 1.625 0v-2.53125l2.25 1.4375a.8149003.8149003 0 1 0 .875-1.375l-3.125-1.96875v-4.5625l3.96875 2.28125.125 3.6875a.81470476.81470476 0 1 0 1.625-.0625l-.0937-2.65625 2.15625 1.25a.81470476.81470476 0 1 0 .8125-1.40625l-2.15625-1.25 2.34375-1.21875a.81470476.81470476 0 1 0-.75-1.4375l-3.25 1.6875-3.96875-2.25 3.96875-2.28125 3.25 1.6875a.81470476.81470476 0 1 0 .75-1.4375l-2.34375-1.21875 2.15625-1.25a.8256153.8256153 0 1 0-.8125-1.4375l-2.15625 1.25.0937-2.625a.81470476.81470476 0 0 0-.9375-.875.81470476.81470476 0 0 0-.6875.78125l-.125 3.6875-3.96875 2.28125v-4.5625l3.125-1.96875a.8149003.8149003 0 1 0-.875-1.375l-2.25 1.4375v-2.5a.81470476.81470476 0 0 0-.90625-.84375.81470476.81470476 0 0 0-.0937 0zm-28.1875 16.25a.81470476.81470476 0 0 0-.0937.0312.81470476.81470476 0 0 0-.625.8125v2.53125l-2.25-1.4375a.8149003.8149003 0 1 0-.875 1.375l3.125 1.96875v4.5625l-3.96875-2.28125-.125-3.6875a.81470476.81470476 0 0 0-1.03125-.78125.81470476.81470476 0 0 0-.59375.84375l.0937 2.65625-2.15625-1.25a.81470476.81470476 0 1 0-.8125 1.40625l2.15625 1.25-2.34375 1.21875a.81470476.81470476 0 1 0 .75 1.4375l3.25-1.6875 3.9375 2.25-3.9375 2.28125-3.25-1.6875a.81470476.81470476 0 1 0-.75 1.4375l2.34375 1.21875-2.15625 1.25a.8256153.8256153 0 1 0 .8125 1.4375l2.15625-1.25-.0937 2.625a.81470476.81470476 0 1 0 1.625.0937l.125-3.6875 3.96875-2.28125v4.5625l-3.125 1.96875a.8149003.8149003 0 1 0 .875 1.375l2.25-1.4375v2.5a.81470476.81470476 0 1 0 1.625 0v-2.5l2.25 1.4375a.8149003.8149003 0 1 0 .875-1.375l-3.125-1.96875v-4.5625l3.96875 2.28125.125 3.6875a.81470476.81470476 0 1 0 1.625-.0937l-.0937-2.625 2.15625 1.25a.8256153.8256153 0 1 0 .8125-1.4375l-2.15625-1.25 2.34375-1.21875a.81470476.81470476 0 1 0-.75-1.4375l-3.25 1.6875-3.96875-2.28125 3.96875-2.25 3.25 1.6875a.81470476.81470476 0 1 0 .75-1.4375l-2.34375-1.21875 2.15625-1.25a.81470476.81470476 0 1 0-.8125-1.40625l-2.15625 1.25.0937-2.65625a.81470476.81470476 0 0 0-.78125-.875.81470476.81470476 0 0 0-.84375.8125l-.125 3.6875-3.96875 2.28125v-4.5625l3.125-1.96875a.8149003.8149003 0 1 0-.875-1.375l-2.25 1.4375v-2.53125a.81470476.81470476 0 0 0-.90625-.84375zm48.46875 6.375a.60915636.60915636 0 0 0-.46875.625v1.875l-1.6875-1.0625a.61119632.61119632 0 1 0-.65625 1.03125l2.34375 1.46875v3.40625l-2.9375-1.6875-.125-2.78125a.60915636.60915636 0 0 0-.78125-.5625.60915636.60915636 0 0 0-.4375.625l.0937 2-1.625-.9375a.60915636.60915636 0 1 0-.625 1.03125l1.625.9375-1.75.9375a.60915636.60915636 0 1 0 .5625 1.0625l2.4375-1.28125 2.96875 1.71875-2.96875 1.6875-2.4375-1.25a.60915636.60915636 0 1 0-.5625 1.0625l1.75.90625-1.625.9375a.61634634.61634634 0 1 0 .625 1.0625l1.625-.9375-.0937 2a.6095753.6095753 0 1 0 1.21875.0312l.125-2.75 2.9375-1.6875v3.40625l-2.34375 1.46875A.61117523.61117523 0 0 0-516 733.63081l1.6875-1.0625v1.875a.609375.609375 0 0 0 1.21875 0v-1.875l1.65625 1.0625a.61117523.61117523 0 1 0 .65625-1.03125l-2.3125-1.46875v-3.4375l2.9375 1.71875.125 2.75a.6095753.6095753 0 0 0 1.21875-.0312l-.0937-2 1.625.9375a.60915636.60915636 0 1 0 .59375-1.0625l-1.59375-.9375 1.75-.90625a.60915636.60915636 0 1 0-.5625-1.0625l-2.46875 1.25-2.9375-1.6875 2.9375-1.6875 2.46875 1.25a.60915636.60915636 0 1 0 .5625-1.0625l-1.78125-.9375 1.625-.9375a.60915636.60915636 0 1 0-.59375-1.03125l-1.625.9375.0937-2a.60915636.60915636 0 0 0-.78125-.625.60915636.60915636 0 0 0-.4375.5625l-.125 2.78125-2.9375 1.6875v-3.40625l2.3125-1.46875a.61119632.61119632 0 1 0-.65625-1.03125l-1.65625 1.0625v-1.875a.60915636.60915636 0 0 0-.625-.625.60915636.60915636 0 0 0-.125 0z" opacity=".6" fill="url(#d)" filter="url(#e)" transform="translate(641.455 -669.27) scale(1.06612)"/>
  <path d="M-560.8125 640.53711c-1.02591-.006-2.10432.0466-3.21875.1875-17.79816 2.25-17.25 17.25-17.25 17.25-7.28984 1.2171-13.25 7.46752-13.25 14 0 6.5324 7.61805 12.3188 14 14 3.79621 1 8.78125 0 8.78125 0 2.25347 3.9031 9.66184 6.5 14.84375 6.5 8.44939 0 17.125-2.75 19.125-6.5 0 0 34.98746 2.75 42.25 0 10.57262-4.0034 7.28463-16.52101.25-20.75s-16.25-1.25-16.25-1.25-.0204-8.6045-9.96875-12.71875c-9.94833-4.11424-18.375 4.96875-18.375 4.96875s-5.54894-15.59434-20.9375-15.6875z" fill="url(#f)" transform="translate(641.455 -669.27) scale(1.06612)"/>
  <path transform="translate(435.25 428.773)" d="M-415.15625-360.3125a.64943195.64943195 0 0 0-.4375.65625v2l-1.78125-1.125a.6515843.6515843 0 1 0-.6875 1.09375l2.46875 1.5625v3.625l-3.15625-1.78125-.125-2.9375a.64943195.64943195 0 0 0-.78125-.625.64943195.64943195 0 0 0-.5.65625l.0937 2.125-1.75-1a.6512083.6512083 0 1 0-.65625 1.125l1.75.96875-1.875 1A.64990624.64990624 0 1 0-422-351.8125l2.625-1.34375 3.125 1.8125-3.15625 1.78125L-422-350.875a.64943195.64943195 0 1 0-.59375 1.125l1.84375.96875-1.71875 1a.6570973.6570973 0 0 0 .65625 1.125l1.75-1-.0937 2.125a.64987858.64987858 0 1 0 1.28125.0312l.125-2.9375 3.15625-1.78125v3.625l-2.46875 1.5625a.6516068.6516068 0 1 0 .6875 1.09375l1.78125-1.125v2a.64966505.64966505 0 0 0 1.28125 0v-2l1.8125 1.125a.6516068.6516068 0 1 0 .6875-1.09375l-2.5-1.5625v-3.65625l3.125 1.8125.15625 2.9375a.64987858.64987858 0 0 0 1.28125-.0312l-.0937-2.125 1.71875 1a.65921947.65921947 0 1 0 .6875-1.125l-1.75-1 1.875-.96875a.64943195.64943195 0 1 0-.59375-1.125l-2.59375 1.3125-3.1875-1.78125 3.15625-1.8125 2.625 1.34375a.64989482.64989482 0 1 0 .59375-1.15625l-1.90625-1 1.78125-.96875a.65921947.65921947 0 1 0-.6875-1.125l-1.71875 1 .0937-2.125a.64943195.64943195 0 0 0-.8125-.65625.64943195.64943195 0 0 0-.46875.625l-.15625 2.9375-3.125 1.78125v-3.625l2.5-1.5625a.6515843.6515843 0 1 0-.6875-1.09375l-1.8125 1.125v-2a.64943195.64943195 0 0 0-.65625-.65625.64943195.64943195 0 0 0-.125 0 .64943195.64943195 0 0 0-.0625 0zm82.59375 1.625a.64943195.64943195 0 0 0-.53125.65625v2l-1.75-1.125a.65438724.65438724 0 0 0-.71875 1.09375l2.46875 1.5625v3.65625l-3.125-1.8125-.125-2.9375a.64943195.64943195 0 0 0-.8125-.625.64943195.64943195 0 0 0-.5.65625l.0937 2.15625-1.71875-1a.64943195.64943195 0 1 0-.625 1.09375l1.71875 1-1.90625 1a.64943195.64943195 0 1 0 .625 1.125l2.625-1.34375 3.125 1.8125-3.125 1.78125-2.625-1.3125a.64943195.64943195 0 1 0-.625 1.125l1.875.96875-1.6875 1a.64943195.64943195 0 1 0 .625 1.125l1.71875-1-.0937 2.125a.65699363.65699363 0 0 0 1.3125.0625l.125-2.9375 3.125-1.8125v3.625l-2.46875 1.5625a.6675003.6675003 0 0 0 .71875 1.125l1.75-1.15625v2a.65625.65625 0 0 0 1.3125 0v-2L-330-342.28125a.6675003.6675003 0 1 0 .71875-1.125l-2.5-1.5625v-3.65625l3.125 1.84375.125 2.9375a.65699363.65699363 0 0 0 1.3125-.0625l-.0937-2.125 1.71875 1a.65921947.65921947 0 0 0 .6875-1.125l-1.71875-1 1.84375-.96875a.64943195.64943195 0 1 0-.59375-1.125l-2.625 1.3125-3.125-1.78125 3.125-1.8125 2.625 1.34375a.64943195.64943195 0 1 0 .59375-1.125l-1.875-1 1.75-1a.64943195.64943195 0 1 0-.6875-1.09375l-1.71875 1 .0937-2.15625a.64943195.64943195 0 0 0-.8125-.65625.64943195.64943195 0 0 0-.5.625l-.125 2.9375-3.125 1.8125V-354.5l2.5-1.5625A.65438724.65438724 0 0 0-330-357.15625l-1.78125 1.125v-2a.64943195.64943195 0 0 0-.625-.65625.64943195.64943195 0 0 0-.0625 0 .64943195.64943195 0 0 0-.0937 0zm-30.46875 2.25a.8685706.8685706 0 0 0-.0937.0312.8685706.8685706 0 0 0-.0937 0 .8685706.8685706 0 0 0-.6875.875v2.6875l-2.40625-1.53125a.86877906.86877906 0 1 0-.90625 1.46875l3.3125 2.09375v4.875l-4.1875-2.40625-.15625-3.96875a.8685706.8685706 0 0 0-1-.84375.8685706.8685706 0 0 0-.75.9375l.0937 2.78125-2.28125-1.3125a.88180944.88180944 0 1 0-.875 1.53125l2.3125 1.34375-2.5 1.28125a.8685706.8685706 0 1 0 .78125 1.53125l3.5-1.78125 4.1875 2.375-4.1875 2.4375-3.5-1.78125a.8685706.8685706 0 1 0-.78125 1.53125l2.5 1.28125-2.3125 1.34375a.8685706.8685706 0 1 0 .875 1.5l2.28125-1.34375-.0937 2.84375a.87555786.87555786 0 1 0 1.75.0625l.15625-3.9375 4.1875-2.4375v4.875l-3.3125 2.09375a.86877906.86877906 0 1 0 .90625 1.46875l2.40625-1.53125v2.6875a.875.875 0 1 0 1.75 0v-2.6875l2.375 1.53125a.87122512.87122512 0 1 0 .9375-1.46875l-3.3125-2.09375v-4.875l4.21875 2.4375.125 3.9375a.87555786.87555786 0 1 0 1.75-.0625l-.0937-2.84375 2.28125 1.34375a.8685706.8685706 0 1 0 .875-1.5l-2.3125-1.34375 2.5-1.28125a.8685706.8685706 0 1 0-.78125-1.53125l-3.46875 1.78125-4.25-2.40625 4.25-2.40625 3.46875 1.78125a.8685706.8685706 0 1 0 .78125-1.53125l-2.5-1.28125 2.3125-1.34375a.88180944.88180944 0 0 0-.875-1.53125l-2.28125 1.3125.0937-2.78125a.8685706.8685706 0 0 0-1-.9375.8685706.8685706 0 0 0-.75.84375l-.125 3.9375-4.21875 2.40625v-4.84375l3.3125-2.09375a.87122512.87122512 0 1 0-.9375-1.46875l-2.375 1.53125v-2.6875a.8685706.8685706 0 0 0-.875-.90625zm-30.25 17.34375a.8685706.8685706 0 0 0-.0937.0312.8685706.8685706 0 0 0-.6875.875v2.6875l-2.375-1.53125a.87122512.87122512 0 1 0-.9375 1.46875l3.3125 2.09375v4.875l-4.21875-2.4375-.125-3.9375a.8685706.8685706 0 0 0-1.09375-.8125.8685706.8685706 0 0 0-.65625.875l.0937 2.84375-2.28125-1.34375a.8685706.8685706 0 1 0-.875 1.5l2.3125 1.34375-2.5 1.28125a.87346405.87346405 0 1 0 .78125 1.5625l3.46875-1.8125 4.21875 2.40625-4.21875 2.4375-3.46875-1.8125a.8685706.8685706 0 1 0-.78125 1.53125l2.5 1.3125-2.3125 1.3125a.88180944.88180944 0 1 0 .875 1.53125l2.28125-1.3125-.0937 2.78125a.87625468.87625468 0 1 0 1.75.0937l.125-3.90625 4.21875-2.4375v4.84375l-3.3125 2.125a.86877906.86877906 0 1 0 .9375 1.4375l2.375-1.53125v2.6875a.875.875 0 1 0 1.75 0v-2.6875l2.40625 1.53125A.86877906.86877906 0 0 0-389-318.625l-3.3125-2.125v-4.84375l4.21875 2.4375.125 3.90625a.87625468.87625468 0 1 0 1.75-.0937l-.0937-2.78125 2.28125 1.3125a.88180944.88180944 0 1 0 .875-1.53125l-2.3125-1.3125 2.5-1.3125a.8685706.8685706 0 1 0-.7813-1.5313l-3.46875 1.8125-4.21875-2.4375 4.21875-2.40625 3.46875 1.8125a.87346405.87346405 0 1 0 .78125-1.5625l-2.5-1.28125 2.3125-1.34375a.8685706.8685706 0 1 0-.875-1.5l-2.28125 1.34375.0937-2.84375a.8685706.8685706 0 0 0-.84375-.9375.8685706.8685706 0 0 0-.90625.875l-.125 3.9375-4.21875 2.4375v-4.875l3.3125-2.09375a.86877906.86877906 0 1 0-.90625-1.46875l-2.40625 1.53125v-2.6875a.8685706.8685706 0 0 0-.96875-.90625zm51.65625 6.78125a.64943195.64943195 0 0 0-.5.6875v2l-1.78125-1.125a.65438724.65438724 0 1 0-.71875 1.09375l2.5 1.5625v3.625l-3.125-1.8125-.125-2.9375a.64943195.64943195 0 0 0-.84375-.625.64943195.64943195 0 0 0-.46875.6875l.125 2.125-1.75-1a.64943195.64943195 0 1 0-.65625 1.09375l1.71875 1-1.84375 1a.64943195.64943195 0 1 0 .59375 1.125l2.59375-1.34375 3.15625 1.8125-3.15625 1.8125L-348.5-322.875a.64943195.64943195 0 1 0-.59375 1.125l1.84375.96875-1.71875 1a.66475148.66475148 0 0 0 .65625 1.15625l1.75-1-.125 2.125a.656436.656436 0 1 0 1.3125.0312l.125-2.9375 3.125-1.8125v3.65625l-2.5 1.5625a.65438724.65438724 0 0 0 .71875 1.09375l1.78125-1.125v2a.65625.65625 0 0 0 1.3125 0v-2l1.78125 1.125a.6515843.6515843 0 1 0 .6875-1.09375l-2.46875-1.5625v-3.6875l3.125 1.84375.125 2.9375a.656436.656436 0 0 0 1.3125-.0312l-.0937-2.125 1.71875 1a.66475148.66475148 0 1 0 .65625-1.15625l-1.71875-1 1.875-.96875a.64943195.64943195 0 1 0-.59375-1.125l-2.65625 1.34375-3.125-1.8125 3.125-1.78125 2.65625 1.3125a.64943195.64943195 0 1 0 .59375-1.125l-1.90625-1 1.75-1a.64943195.64943195 0 1 0-.65625-1.09375l-1.71875 1 .0937-2.125a.64943195.64943195 0 0 0-.84375-.6875.64943195.64943195 0 0 0-.46875.625l-.125 2.9375-3.125 1.8125v-3.625l2.46875-1.5625a.6516068.6516068 0 1 0-.6875-1.09375l-1.78125 1.125v-2a.64943195.64943195 0 0 0-.65625-.6875.64943195.64943195 0 0 0-.15625 0z" fill="url(#g)"/>
</svg>
