<svg xmlns:osb="http://www.openswatchbook.org/uri/2009/osb" xmlns="http://www.w3.org/2000/svg" xmlns:xlink="http://www.w3.org/1999/xlink" width="128" height="128">
  <defs>
    <linearGradient xlink:href="#a" id="d" x1="-606.32941" y1="1623.3613" x2="-476.957" y2="1623.3613" gradientUnits="userSpaceOnUse"/>
    <linearGradient id="a" osb:paint="solid">
      <stop offset="0" stop-opacity="0"/>
    </linearGradient>
    <filter id="e" x="-.10462177" width="1.2092435" y="-.11595451" height="1.231909" color-interpolation-filters="sRGB">
      <feGaussianBlur stdDeviation="4.6110333"/>
    </filter>
    <linearGradient xlink:href="#b" id="f" gradientUnits="userSpaceOnUse" x1="58" y1="-e-8" x2="58" y2="119.76749" gradientTransform="translate(-601.125 1562.362)"/>
    <linearGradient id="b">
      <stop offset="0" stop-color="#c6c6c6"/>
      <stop offset="1" stop-color="#c6c6c6"/>
    </linearGradient>
    <linearGradient xlink:href="#c" id="g" gradientUnits="userSpaceOnUse" gradientTransform="translate(-434.664 710.488) scale(1.06612)" x1="58" y1="-e-8" x2="58" y2="119.76749"/>
    <linearGradient id="c">
      <stop offset="0" stop-color="#fff"/>
      <stop offset="1" stop-color="#fff"/>
    </linearGradient>
  </defs>
  <path d="M-560.8125 1575.6434c-1.0259-.01-2.10431.047-3.21875.1875-17.79816 2.25-17.25 17.25-17.25 17.25-7.28984 1.2171-13.25 7.4675-13.25 14 0 6.5324 7.61805 12.3188 14 14 3.79621 1 8.78125 0 8.78125 0 2.25347 3.9031 9.66184 6.5 14.84375 6.5 8.44939 0 17.125-2.75 19.125-6.5 0 0 34.98746 2.75 42.25 0 10.57262-4.0034 7.28463-16.521.25-20.75-7.03463-4.229-16.25-1.25-16.25-1.25s-.0204-8.6045-9.96875-12.7187c-9.94833-4.1143-18.375 4.9687-18.375 4.9687s-5.54894-15.5943-20.9375-15.6875zm-16.75 56.5313c-1.46447 0-4.0625 1.348-4.0625 2.8125 0 1.4644.47303 2.8437 1.9375 2.8437 1.46446 0 3.34375-1.3793 3.34375-2.8437 0-1.4645.24571-2.8125-1.21875-2.8125zm57.78125.062c-1.46446 0-2.625 1.1605-2.625 2.625 0 1.4644.81862 3.0312 3.34375 3.0312 1.46447 0 1.9375-2.7855 1.9375-4.25 0-1.4642-1.19178-1.4062-2.65625-1.4062zm-30.65625 4.9062c-1.46447 0-2.125 1.3793-2.125 2.8438 0 1.4644 1.19178 2.625 2.65625 2.625s2.84375-.098 2.84375-1.5625c0-1.4644-1.91053-3.9063-3.375-3.9063zm-15.46875 15.5938c-1.46446 0-1.5625 2.4417-1.5625 3.9062 0 1.4645 1.16054 1.2188 2.625 1.2188 1.46447 0 2.65625-1.1919 2.65625-2.6563 0-1.4645-2.25428-2.4687-3.71875-2.4687zm59.34375.6875c-1.46447 0-4.0625 1.348-4.0625 2.8125 0 1.4644.47303 2.8437 1.9375 2.8437 1.46446 0 3.34375-1.3793 3.34375-2.8437 0-1.4645.24571-2.8125-1.21875-2.8125zm-24.625 3.9687c-1.46447 0-2.125 1.3793-2.125 2.8438 0 1.4644 1.19178 2.625 2.65625 2.625s2.84375-.098 2.84375-1.5625c0-1.4644-1.91053-3.9063-3.375-3.9063zm-59.34375.8438c-1.46446 0-2.625 1.1605-2.625 2.625 0 1.4644.81862 3.0312 3.34375 3.0312 1.46447 0 1.9375-2.7855 1.9375-4.25 0-1.4642-1.19178-1.4062-2.65625-1.4062zm38.96875 7.1875c-1.46447 0-4.0625 1.348-4.0625 2.8125 0 1.4644.47303 2.8437 1.9375 2.8437 1.46446 0 3.34375-1.3793 3.34375-2.8437 0-1.4645.24571-2.8125-1.21875-2.8125z" opacity=".6" fill="url(#d)" filter="url(#e)" transform="translate(641.455 -1666.693) scale(1.06612)"/>
  <path d="M-560.8125 1575.6434c-1.0259-.01-2.10431.047-3.21875.1875-17.79816 2.25-17.25 17.25-17.25 17.25-7.28984 1.2171-13.25 7.4675-13.25 14 0 6.5324 7.61805 12.3188 14 14 3.79621 1 8.78125 0 8.78125 0 2.25347 3.9031 9.66184 6.5 14.84375 6.5 8.44939 0 17.125-2.75 19.125-6.5 0 0 34.98746 2.75 42.25 0 10.57262-4.0034 7.28463-16.521.25-20.75-7.03463-4.229-16.25-1.25-16.25-1.25s-.0204-8.6045-9.96875-12.7187c-9.94833-4.1143-18.375 4.9687-18.375 4.9687s-5.54894-15.5943-20.9375-15.6875z" fill="url(#f)" transform="translate(641.455 -1666.693) scale(1.06612)"/>
  <path transform="translate(435.25 -711.52)" d="M-409.53125 784.90625c-1.5613 0-4.34375 1.43867-4.34375 3 0 1.56122.5012 3.03125 2.0625 3.03125 1.56129 0 3.5625-1.47003 3.5625-3.03125 0-1.56133.28004-3-1.28125-3zm61.59375.0625c-1.56129 0-2.8125 1.25117-2.8125 2.8125 0 1.56122.87042 3.21875 3.5625 3.21875 1.5613 0 2.0625-2.96992 2.0625-4.53125 0-1.56101-1.2512-1.5-2.8125-1.5zm-32.6875 5.25c-1.5613 0-2.28125 1.46992-2.28125 3.03125 0 1.56122 1.28245 2.78125 2.84375 2.78125s3.03125-.0949 3.03125-1.65625c0-1.56122-2.03245-4.15625-3.59375-4.15625zm-16.5 16.625c-1.56129 0-1.65625 2.59492-1.65625 4.15625 0 1.56133 1.25121 1.3125 2.8125 1.3125 1.5613 0 2.8125-1.28253 2.8125-2.84375 0-1.56133-2.40745-2.625-3.96875-2.625zm63.28125.71875c-1.5613 0-4.34375 1.43867-4.34375 3 0 1.56122.5012 3.03125 2.0625 3.03125 1.56129 0 3.5625-1.47003 3.5625-3.03125 0-1.56133.28004-3-1.28125-3zm-26.25 4.25c-1.5613 0-2.28125 1.46992-2.28125 3.03125 0 1.56122 1.28245 2.78125 2.84375 2.78125s3.03125-.0949 3.03125-1.65625c0-1.56122-2.03245-4.15625-3.59375-4.15625zm-63.28125.875c-1.56129 0-2.78125 1.25117-2.78125 2.8125 0 1.56122.87042 3.21875 3.5625 3.21875 1.5613 0 2.0625-2.96992 2.0625-4.53125 0-1.56101-1.28245-1.5-2.84375-1.5zm41.5625 7.6875c-1.5613 0-4.34375 1.43867-4.34375 3 0 1.56122.5012 3.03125 2.0625 3.03125 1.56129 0 3.5625-1.47003 3.5625-3.03125 0-1.56133.28004-3-1.28125-3z" fill="url(#g)"/>
</svg>
