<svg xmlns:osb="http://www.openswatchbook.org/uri/2009/osb" xmlns="http://www.w3.org/2000/svg" xmlns:xlink="http://www.w3.org/1999/xlink" width="128" height="128">
  <defs>
    <linearGradient xlink:href="#a" id="d" x1="-451.43958" y1="913.87756" x2="-322.34338" y2="913.87756" gradientUnits="userSpaceOnUse"/>
    <linearGradient id="a" osb:paint="solid">
      <stop offset="0" stop-opacity="0"/>
    </linearGradient>
    <filter id="e" x="-.10489554" width="1.2097911" y="-.12938526" height="1.2587705" color-interpolation-filters="sRGB">
      <feGaussianBlur stdDeviation="4.6110333"/>
    </filter>
    <linearGradient xlink:href="#b" id="f" gradientUnits="userSpaceOnUse" gradientTransform="translate(-446.89 -81.25)" x1="62" y1="932.36218" x2="62" y2="1051.379"/>
    <linearGradient id="b">
      <stop offset="0" stop-color="#feb42f"/>
      <stop offset="1" stop-color="#feb42f"/>
    </linearGradient>
    <linearGradient xlink:href="#c" id="g" gradientUnits="userSpaceOnUse" gradientTransform="translate(-291.24 -1140.75) scale(1.0661)" x1="62" y1="932.36218" x2="62" y2="1051.379"/>
    <linearGradient id="c">
      <stop offset="0" stop-color="#e5e5e5"/>
      <stop offset="1" stop-color="#e5e5e5"/>
    </linearGradient>
  </defs>
  <path d="M-394.73524 871.11198c-1.19529 9.89838-6.90322 12.22848-14.71875 6.0625 2.68365 9.60233-1.70103 13.9245-11.28125 11.21875 6.15403 7.84441 3.76142 13.48985-6.125 14.65625 8.6875 4.89225 8.6562 11.04519-.0312 15.90625 3.68824.44538 6.3363 1.51974 7.875 3.09375.30711-.0246.5535-.0387.875-.0625 5.28891-.39215 12.42875-.625 20.3125-.625.75202 0 1.20002.0583 1.9375.0625.32923-1.65602 1.24558-2.83045 1.84375-3.28125.71282-.53721 1.16691-.69588 1.5625-.84375.79119-.29574 1.36647-.41117 2.03125-.53125 1.32956-.24017 2.90101-.41674 4.8125-.5625 3.82298-.29152 8.91682-.4375 14.5625-.4375 5.64568 0 10.76357.14606 14.59375.4375 1.91509.14572 3.48102.32268 4.8125.5625.60683.1093 1.15557.22758 1.84375.46875-5.61581-4.50871-4.63221-9.7331 2.9375-13.96875-9.89855-1.19527-12.22845-6.90312-6.0625-14.71875-9.60248 2.68373-13.92444-1.70094-11.21875-11.28125-7.84451 6.15415-13.48975 3.76148-14.65625-6.125-4.89224 8.68748-11.04526 8.6562-15.90625-.0312zm47.625 47.96875c.0264.0331.0363.0905.0625.125.0444-.005.0802-.026.125-.0312-.0632-.0356-.12526-.058-.1875-.0937zm-23.96875 1.6875c-11.08556 0-20.0625.68315-20.0625 1.53125 0 .848 8.97694 1.53125 20.0625 1.53125s20.09375-.68325 20.09375-1.53125c0-.8481-9.00819-1.53125-20.09375-1.53125zm-26.75 5.59375c-15.56758 0-28.1875.93192-28.1875 2.09372 0 1.1617 12.61992 2.0938 28.1875 2.0938s28.21875-.9321 28.21875-2.0938c0-1.1618-12.65117-2.09372-28.21875-2.09372zm27.6875 6.21872c-19.88312 0-36 1.5182-36 3.4063 0 1.888 16.11688 3.4062 36 3.4062s36-1.5182 36-3.4062c0-1.8881-16.11688-3.4063-36-3.4063zm-27.9375 9.6875c-22.95791 0-41.5625 1.4363-41.5625 3.25s18.60459 3.3125 41.5625 3.3125 41.59375-1.4988 41.59375-3.3125-18.63584-3.25-41.59375-3.25zm24.21875 9.3438c-15.32633 0-27.75 1.1094-27.75 2.5 0 1.3905 12.42367 2.5312 27.75 2.5312 15.32634 0 27.75-1.1407 27.75-2.5312 0-1.3906-12.42366-2.5-27.75-2.5z" opacity=".6" fill="url(#d)" filter="url(#e)" transform="translate(476.47 -910.295) scale(1.0661)"/>
  <path d="M-394.73524 871.11198c-1.19529 9.89838-6.90322 12.22848-14.71875 6.0625 2.68365 9.60233-1.70103 13.9245-11.28125 11.21875 6.15403 7.84441 3.76142 13.48985-6.125 14.65625 8.6875 4.89225 8.6562 11.04519-.0312 15.90625 3.68824.44538 6.3363 1.51974 7.875 3.09375.30711-.0246.5535-.0387.875-.0625 5.28891-.39215 12.42875-.625 20.3125-.625.75202 0 1.20002.0583 1.9375.0625.32923-1.65602 1.24558-2.83045 1.84375-3.28125.71282-.53721 1.16691-.69588 1.5625-.84375.79119-.29574 1.36647-.41117 2.03125-.53125 1.32956-.24017 2.90101-.41674 4.8125-.5625 3.82298-.29152 8.91682-.4375 14.5625-.4375 5.64568 0 10.76357.14606 14.59375.4375 1.91509.14572 3.48102.32268 4.8125.5625.60683.1093 1.15557.22758 1.84375.46875-5.61581-4.50871-4.63221-9.7331 2.9375-13.96875-9.89855-1.19527-12.22845-6.90312-6.0625-14.71875-9.60248 2.68373-13.92444-1.70094-11.21875-11.28125-7.84451 6.15415-13.48975 3.76148-14.65625-6.125-4.89224 8.68748-11.04526 8.6562-15.90625-.0312z" fill="url(#f)" transform="translate(476.47 -910.295) scale(1.0661)"/>
  <path transform="translate(291.272 143.832)" d="M-184.875-74.28125c.0282.03529.0658.08822.0937.125.0473-.0053.0772-.02571.125-.03125-.0674-.03795-.1524-.05569-.21875-.09375zM-210.40625-72.5c-11.81844 0-21.40625.752081-21.40625 1.65625 0 .904063 9.58781 1.625 21.40625 1.625S-189-69.939687-189-70.84375c0-.904169-9.58781-1.65625-21.40625-1.65625zm-28.53125 5.96875c-16.59678 0-30.03125 1.011392-30.03125 2.25 0 1.238502 13.43447 2.21875 30.03125 2.21875 16.59678 0 30.09375-.980248 30.09375-2.21875 0-1.238608-13.49697-2.25-30.09375-2.25zm29.53125 6.625c-21.19762 0-38.375 1.643325-38.375 3.65625 0 2.012819 17.17738 3.625 38.375 3.625s38.375-1.612181 38.375-3.625c0-2.012925-17.17738-3.65625-38.375-3.65625zM-239.1875-49.5625c-24.47569 0-44.3125 1.535144-44.3125 3.46875s19.83681 3.53125 44.3125 3.53125 44.34375-1.597644 44.34375-3.53125-19.86806-3.46875-44.34375-3.46875zm25.8125 9.96875c-16.33958 0-29.59375 1.173715-29.59375 2.65625 0 1.482428 13.25417 2.6875 29.59375 2.6875 16.33959 0 29.59375-1.205072 29.59375-2.6875 0-1.482535-13.25416-2.65625-29.59375-2.65625z" fill="url(#g)"/>
</svg>
