<svg xmlns:osb="http://www.openswatchbook.org/uri/2009/osb" xmlns="http://www.w3.org/2000/svg" xmlns:xlink="http://www.w3.org/1999/xlink" width="128" height="128">
  <defs>
    <linearGradient xlink:href="#a" id="c" x1="-779.78503" y1="573.03052" x2="-644.18884" y2="573.03052" gradientUnits="userSpaceOnUse"/>
    <linearGradient id="a" osb:paint="solid">
      <stop offset="0" stop-opacity="0"/>
    </linearGradient>
    <filter id="d" x="-.09880786" width="1.1976157" y="-.17376225" height="1.3475245" color-interpolation-filters="sRGB">
      <feGaussianBlur stdDeviation="4.6110333"/>
    </filter>
    <linearGradient xlink:href="#b" id="e" gradientUnits="userSpaceOnUse" gradientTransform="translate(-771.987 -419.332)" x1="58.689861" y1="932.15405" x2="58.689861" y2="1053.0775"/>
    <linearGradient id="b">
      <stop offset="0" stop-color="#e5e5e5"/>
      <stop offset="1" stop-color="#e5e5e5"/>
    </linearGradient>
  </defs>
  <path d="M-725.92446 541.18677c-15.50253 0-28.0625.6832-28.0625 1.53125s12.55997 1.53125 28.0625 1.53125c15.50252 0 28.09375-.6832 28.09375-1.53125s-12.59123-1.53125-28.09375-1.53125zm19.875 6.03125c-18.74349 0-33.9375 1.10948-33.9375 2.5 0 1.39053 15.19401 2.53125 33.9375 2.53125 18.74348 0 33.9375-1.14072 33.9375-2.53125 0-1.39052-15.19402-2.5-33.9375-2.5zm-25.375 10.46875c-18.54009 0-33.5625 1.01899-33.5625 2.28125 0 1.26227 15.02241 2.28125 33.5625 2.28125s33.59375-1.01898 33.59375-2.28125c0-1.26226-15.05366-2.28125-33.59375-2.28125zm34.4375 8.875c-22.64467 0-41 1.94342-41 4.34375 0 2.40034 18.35533 4.34375 41 4.34375 22.64466 0 41-1.94341 41-4.34375 0-2.40033-18.35534-4.34375-41-4.34375zm-33.1875 12.125c-20.8873 0-37.8125 1.76371-37.8125 3.96868 0 2.2051 16.9252 4 37.8125 4s37.84375-1.7949 37.84375-4c0-2.20497-16.95645-3.96868-37.84375-3.96868zm25.21875 11.99998c-20.2247 0-36.625 1.4087-36.625 3.1562 0 1.7476 16.4003 3.1563 36.625 3.1563 20.22469 0 36.625-1.4087 36.625-3.1563 0-1.7475-16.40031-3.1562-36.625-3.1562zm-12.59375 10c-19.44365 0-35.21875.9319-35.21875 2.0937 0 1.1617 15.7751 2.0938 35.21875 2.0938 19.44365 0 35.21875-.9321 35.21875-2.0938 0-1.1618-15.7751-2.0937-35.21875-2.0937z" opacity=".6" fill="url(#c)" filter="url(#d)" transform="translate(823.057 -546.914) scale(1.0661)"/>
  <path d="M-725.92446 541.18677c-15.50253 0-28.0625.6832-28.0625 1.53125s12.55997 1.53125 28.0625 1.53125c15.50252 0 28.09375-.6832 28.09375-1.53125s-12.59123-1.53125-28.09375-1.53125zm19.875 6.03125c-18.74349 0-33.9375 1.10948-33.9375 2.5 0 1.39053 15.19401 2.53125 33.9375 2.53125 18.74348 0 33.9375-1.14072 33.9375-2.53125 0-1.39052-15.19402-2.5-33.9375-2.5zm-25.375 10.46875c-18.54009 0-33.5625 1.01899-33.5625 2.28125 0 1.26227 15.02241 2.28125 33.5625 2.28125s33.59375-1.01898 33.59375-2.28125c0-1.26226-15.05366-2.28125-33.59375-2.28125zm34.4375 8.875c-22.64467 0-41 1.94342-41 4.34375 0 2.40034 18.35533 4.34375 41 4.34375 22.64466 0 41-1.94341 41-4.34375 0-2.40033-18.35534-4.34375-41-4.34375zm-33.1875 12.125c-20.8873 0-37.8125 1.76371-37.8125 3.96868 0 2.2051 16.9252 4 37.8125 4s37.84375-1.7949 37.84375-4c0-2.20497-16.95645-3.96868-37.84375-3.96868zm25.21875 11.99998c-20.2247 0-36.625 1.4087-36.625 3.1562 0 1.7476 16.4003 3.1563 36.625 3.1563 20.22469 0 36.625-1.4087 36.625-3.1563 0-1.7475-16.40031-3.1562-36.625-3.1562zm-12.59375 10c-19.44365 0-35.21875.9319-35.21875 2.0937 0 1.1617 15.7751 2.0938 35.21875 2.0938 19.44365 0 35.21875-.9321 35.21875-2.0938 0-1.1618-15.7751-2.0937-35.21875-2.0937z" fill="url(#e)" transform="translate(823.057 -546.914) scale(1.0661)"/>
</svg>
