<svg xmlns:osb="http://www.openswatchbook.org/uri/2009/osb" xmlns="http://www.w3.org/2000/svg" xmlns:xlink="http://www.w3.org/1999/xlink" width="128" height="128">
  <defs>
    <linearGradient xlink:href="#a" id="d" x1="-296.33179" y1="913.87762" x2="-167.2356" y2="913.87762" gradientUnits="userSpaceOnUse"/>
    <linearGradient id="a" osb:paint="solid">
      <stop offset="0" stop-opacity="0"/>
    </linearGradient>
    <filter id="e" x="-.10489554" width="1.2097911" y="-.12938519" height="1.2587703" color-interpolation-filters="sRGB">
      <feGaussianBlur stdDeviation="4.6110333"/>
    </filter>
    <linearGradient xlink:href="#b" id="f" gradientUnits="userSpaceOnUse" gradientTransform="translate(-287.784 -81.25)" x1="55.5" y1="932.36218" x2="55.5" y2="1052.8632"/>
    <linearGradient id="b">
      <stop offset="0" stop-color="#e0d9b5"/>
      <stop offset="1" stop-color="#e0d9b5"/>
    </linearGradient>
    <linearGradient xlink:href="#c" id="g" gradientUnits="userSpaceOnUse" gradientTransform="translate(-142.997 -1140.75) scale(1.0661)" x1="55.5" y1="932.36218" x2="55.5" y2="1052.8632"/>
    <linearGradient id="c">
      <stop offset="0" stop-color="#e5e5e5"/>
      <stop offset="1" stop-color="#e5e5e5"/>
    </linearGradient>
  </defs>
  <path d="M-220.2837 871.11201c-22.09139 0-40 17.90861-40 40 0 3.49672.46957 6.8923 1.3125 10.125 4.66551-.23846 10.23008-.375 16.25-.375.54549 0 .86826.029 1.40625.0312.42315-1.63712 1.44837-2.69341 2.0625-3.15625.77596-.5848 1.26623-.74878 1.6875-.90625.84254-.31494 1.4448-.40838 2.125-.53125 1.3604-.24574 2.95405-.41602 4.875-.5625 1.33449-.10176 2.86073-.17897 4.46875-.25-.15693-1.43904-.25-2.89406-.25-4.375 0-16.02235 9.45833-29.83348 23.0625-36.21875-5.15307-2.41865-10.93096-3.78125-17-3.78125zm4.3125 49.65625c-11.08556 0-20.0625.68315-20.0625 1.53125 0 .848 8.97694 1.53125 20.0625 1.53125s20.09375-.68325 20.09375-1.53125c0-.8481-9.00819-1.53125-20.09375-1.53125zm-26.75 5.59375c-15.56758 0-28.1875.93195-28.1875 2.09375 0 1.1617 12.61992 2.09377 28.1875 2.09377s28.21875-.93207 28.21875-2.09377c0-1.1618-12.65117-2.09375-28.21875-2.09375zm27.6875 6.21872c-19.88312 0-36 1.5182-36 3.4063 0 1.888 16.11688 3.4062 36 3.4062s36-1.5182 36-3.4062c0-1.8881-16.11688-3.4063-36-3.4063zm-27.9375 9.6875c-22.95791 0-41.5625 1.4363-41.5625 3.25s18.60459 3.3125 41.5625 3.3125 41.59375-1.4988 41.59375-3.3125-18.63584-3.25-41.59375-3.25zm24.21875 9.3438c-15.32633 0-27.75 1.1094-27.75 2.5 0 1.3905 12.42367 2.5312 27.75 2.5312 15.32634 0 27.75-1.1407 27.75-2.5312 0-1.3906-12.42366-2.5-27.75-2.5z" opacity=".6" fill="url(#d)" filter="url(#e)" transform="translate(311.107 -910.295) scale(1.0661)"/>
  <path d="M-220.2837 871.11201c-22.09139 0-40 17.90861-40 40 0 3.49672.46957 6.8923 1.3125 10.125 4.66551-.23846 10.23008-.375 16.25-.375.54549 0 .86826.029 1.40625.0312.42315-1.63712 1.44837-2.69341 2.0625-3.15625.77596-.5848 1.26623-.74878 1.6875-.90625.84254-.31494 1.4448-.40838 2.125-.53125 1.3604-.24574 2.95405-.41602 4.875-.5625 1.33449-.10176 2.86073-.17897 4.46875-.25-.15693-1.43904-.25-2.89406-.25-4.375 0-16.02235 9.45833-29.83348 23.0625-36.21875-5.15307-2.41865-10.93096-3.78125-17-3.78125z" fill="url(#f)" transform="translate(311.107 -910.295) scale(1.0661)"/>
  <path transform="translate(147.294 143.832)" d="M-66.4375-72.5c-11.818443 0-21.375.752081-21.375 1.65625 0 .904063 9.556557 1.625 21.375 1.625S-45-69.939687-45-70.84375C-45-71.747919-54.619057-72.5-66.4375-72.5zm-28.53125 5.96875c-16.59678 0-30.03125 1.011392-30.03125 2.25 0 1.238502 13.43447 2.21875 30.03125 2.21875 16.596776 0 30.09375-.980248 30.09375-2.21875 0-1.238608-13.496974-2.25-30.09375-2.25zm29.53125 6.625c-21.197623 0-38.375 1.643325-38.375 3.65625 0 2.012819 17.177377 3.625 38.375 3.625s38.375-1.612181 38.375-3.625c0-2.012925-17.177377-3.65625-38.375-3.65625zM-95.21875-49.5625c-24.47569 0-44.3125 1.535144-44.3125 3.46875s19.83681 3.53125 44.3125 3.53125c24.475692 0 44.34375-1.597644 44.34375-3.53125s-19.868058-3.46875-44.34375-3.46875zm25.8125 9.96875C-85.745827-39.59375-99-38.420035-99-36.9375c0 1.482428 13.254173 2.6875 29.59375 2.6875 16.339587 0 29.59375-1.205072 29.59375-2.6875 0-1.482535-13.254163-2.65625-29.59375-2.65625z" fill="url(#g)"/>
</svg>
