<svg xmlns:osb="http://www.openswatchbook.org/uri/2009/osb" xmlns="http://www.w3.org/2000/svg" xmlns:xlink="http://www.w3.org/1999/xlink" width="128" height="128">
  <defs>
    <linearGradient xlink:href="#a" id="e" x1="-776.67316" y1="1258.896" x2="-647.30078" y2="1258.896" gradientUnits="userSpaceOnUse"/>
    <linearGradient id="a" osb:paint="solid">
      <stop offset="0" stop-opacity="0"/>
    </linearGradient>
    <filter id="f" x="-.10462177" width="1.2092435" y="-.10676129" height="1.2135226" color-interpolation-filters="sRGB">
      <feGaussianBlur stdDeviation="4.6110333"/>
    </filter>
    <linearGradient xlink:href="#b" id="g" gradientUnits="userSpaceOnUse" gradientTransform="translate(-771.293 254.69)" x1="59.396969" y1="932.50757" x2="59.396969" y2="1052.7288"/>
    <linearGradient id="b">
      <stop offset="0" stop-color="#feb42f"/>
      <stop offset="1" stop-color="#feb42f"/>
    </linearGradient>
    <linearGradient xlink:href="#c" id="h" gradientUnits="userSpaceOnUse" gradientTransform="translate(-578.454 -723.022) scale(1.06612)" x1="59.396969" y1="932.50757" x2="59.396969" y2="1052.7288"/>
    <linearGradient id="c">
      <stop offset="0" stop-color="#fa502e"/>
      <stop offset="1" stop-color="#fa502e"/>
    </linearGradient>
    <linearGradient xlink:href="#d" id="i" gradientUnits="userSpaceOnUse" gradientTransform="translate(-578.454 -723.022) scale(1.06612)" x1="59.396969" y1="932.50757" x2="59.396969" y2="1052.7288"/>
    <linearGradient id="d">
      <stop offset="0" stop-color="#c6c6c6"/>
      <stop offset="1" stop-color="#c6c6c6"/>
    </linearGradient>
  </defs>
  <path d="M-719.28125 1207.0678c-1.19528 9.8983-6.90322 12.2284-14.71875 6.0625 2.68365 9.6023-1.70102 13.9246-11.28125 11.2188 6.15403 7.8444 3.76142 13.4898-6.125 14.6562.95901.5401 1.78465 1.1202 2.53125 1.6875 2.72472-2.1632 5.89367-3.784 9.25-4.75v-.6562a7.0183791 7.0183791 0 0 1 4.5-6.5625c2.96664-1.1442 6.40424-2.0433 10.40625-2.8438 4.11714-.8233 8.10564-1.2811 11.96875-1.2812 8.59585.0001 16.31759 2.1932 22.15625 7.0937 5.75439 4.8302 8.98206 12.052 9 19.6563 1.57322 1.6372 2.87935 3.5682 3.75 5.7187 1.56063-.9399 3.6756-1.619 6.375-1.9375-8.68766-4.8923-8.65617-11.0451.0312-15.9062-9.89855-1.1953-12.22846-6.9032-6.0625-14.7188-9.60248 2.6837-13.92444-1.7009-11.21875-11.2812-7.84452 6.1542-13.48975 3.7615-14.65625-6.125-4.89224 8.6875-11.04526 8.656-15.90625-.031zm6.53125 24.5938c-3.33084.0001-6.86396.3791-10.59375 1.125-3.72983.746-6.82129 1.5633-9.25 2.5v10.625h.53125c1.94296-1.2143 4.58933-2.414 7.9375-3.5938 3.34814-1.1796 6.87781-1.7499 10.625-1.75 4.19818.0001 7.62698.9495 10.28125 2.875 2.6542 1.9257 3.99996 4.8607 4 8.7813-.00004 2.9839-.57727 5.4182-1.6875 7.3437-1.11031 1.9257-2.67517 3.7896-4.6875 5.5938-1.66544 1.5613-3.78674 3.1297-6.40625 4.6562-2.61957 1.5267-5.05729 2.9038-7.3125 4.1875v15.875H-710v-11.6875c2.84503-1.6306 5.52966-3.3276 8.0625-5.0625 2.53276-1.7347 4.77573-3.5848 6.71875-5.5625 1.97762-2.047 3.56684-4.4082 4.78125-7.0625 1.21431-2.6542 1.81245-5.6622 1.8125-9.0625-.00005-5.9329-2.14915-10.7179-6.46875-14.3437-4.31969-3.6257-10.19666-5.4374-17.65625-5.4375zm-26.875 10.6562c-12.44971 4.2007-12 16.0625-12 16.0625-7.28984 1.2171-13.25 7.4675-13.25 14 0 6.5324 7.61805 12.3188 14 14 3.79621 1 8.78125 0 8.78125 0 2.25347 3.9031 9.66184 6.5 14.84375 6.5.52809 0 1.03433-.01 1.5625-.031a7.0183791 7.0183791 0 0 1-.65625-2.9688v-15.875a7.0183791 7.0183791 0 0 1 3.5625-6.0937c2.227-1.2677 4.64473-2.6692 7.25-4.1875 2.27304-1.3247 3.95223-2.588 5.125-3.6875a7.0183791 7.0183791 0 0 1 .125-.094c1.56995-1.4075 2.61735-2.7235 3.28125-3.875.26159-.4537.56112-1.2707.6875-2.5625-2.43387 1.551-3.90625 3.125-3.90625 3.125s-1.69254-4.6815-5.75-8.9375c-2.03428.1868-3.95295.5949-5.8125 1.25-3.03482 1.0693-5.28643 2.1088-6.5625 2.9063a7.0183791 7.0183791 0 0 1-3.71875 1.0937h-.53125a7.0183791 7.0183791 0 0 1-7.03125-7.0312v-3.5938zm56.75 17.9063c-.33271 1.0863-.71456 2.1537-1.1875 3.1875-1.52301 3.3288-3.54781 6.3959-6.09375 9.0312a7.0183791 7.0183791 0 0 1-.0625.031c-2.30193 2.3431-4.89173 4.4799-7.75 6.4375-1.58874 1.0882-3.31965 2.0936-5 3.125v4.7187c9.87063.6388 31.51419 1.7378 37.09375-.375 10.57262-4.0034 7.28463-16.521.25-20.75-7.03464-4.229-16.25-1.25-16.25-1.25s-.0394-1.7971-1-4.1562zm-36.90625 39.5v11h10.59375v-11h-10.59375z" opacity=".6" fill="url(#e)" filter="url(#f)" transform="translate(823.06 -1278.13) scale(1.06612)"/>
  <path d="M-719.28125 1207.0678c-1.19528 9.8983-6.90322 12.2284-14.71875 6.0625 2.68365 9.6023-1.70102 13.9246-11.28125 11.2188 6.15403 7.8444 3.76142 13.4898-6.125 14.6562.95901.5401 1.78465 1.1202 2.53125 1.6875 2.72472-2.1632 5.89367-3.784 9.25-4.75v-.6562a7.0183791 7.0183791 0 0 1 4.5-6.5625c2.96664-1.1442 6.40424-2.0433 10.40625-2.8438 4.11714-.8233 8.10564-1.2811 11.96875-1.2812 8.59585.0001 16.31759 2.1932 22.15625 7.0937 5.75439 4.8302 8.98206 12.052 9 19.6563 1.57322 1.6372 2.87935 3.5682 3.75 5.7187 1.56063-.9399 3.6756-1.619 6.375-1.9375-8.68766-4.8923-8.65617-11.0451.0312-15.9062-9.89855-1.1953-12.22846-6.9032-6.0625-14.7188-9.60248 2.6837-13.92444-1.7009-11.21875-11.2812-7.84452 6.1542-13.48975 3.7615-14.65625-6.125-4.89224 8.6875-11.04526 8.656-15.90625-.031z" fill="url(#g)" transform="translate(823.06 -1278.13) scale(1.06612)"/>
  <path transform="translate(579.227 -283.58)" d="M-516.03125 318.53125c-3.55107.00011-7.33611.42353-11.3125 1.21875-3.97644.79532-7.25446 1.65762-9.84375 2.65625V333.75h.5625c2.07142-1.29459 4.89921-2.58595 8.46875-3.84375 3.56951-1.25759 7.31756-1.87489 11.3125-1.875 4.47575.00011 8.13899 1.00969 10.96875 3.0625 2.82969 2.05302 4.24996 5.19518 4.25 9.375-.00004 3.18119-.59761 5.75969-1.78125 7.8125-1.18372 2.05302-2.85462 4.04526-5 5.96875-1.77555 1.66453-4.05105 3.34132-6.84375 4.96875-2.79277 1.62764-5.37693 3.10018-7.78125 4.46875v16.9375h9.9375v-12.46875c3.03313-1.73841 5.89345-3.55664 8.59375-5.40625 2.70022-1.84939 5.08476-3.82904 7.15625-5.9375 2.10837-2.18234 3.79905-4.70146 5.09375-7.53125 1.2946-2.82969 1.93745-6.03113 1.9375-9.65625-.00005-6.32517-2.30105-11.41572-6.90625-15.28125-4.60529-3.86542-10.8597-5.81239-18.8125-5.8125zm-7.5 72.5625v11.75H-512.25v-11.75h-11.28125z" fill="url(#h)"/>
  <path transform="translate(579.227 -283.58)" d="M-544.6875 329.90625c-13.27285 4.47844-12.8125 17.125-12.8125 17.125-7.77182 1.29757-14.125 7.97309-14.125 14.9375 0 6.9643 8.13359 13.11389 14.9375 14.90625 4.0472 1.06612 9.375 0 9.375 0 2.40246 4.16116 10.28798 6.9375 15.8125 6.9375.56301 0 1.09316-.009 1.65625-.0312a7.4824133 7.4824133 0 0 1-.6875-3.15625v-16.9375a7.4824133 7.4824133 0 0 1 3.78125-6.5c2.37424-1.35152 4.97248-2.85006 7.75-4.46875 2.42333-1.41229 4.21844-2.7653 5.46875-3.9375a7.4824133 7.4824133 0 0 1 .125-.0937c1.67375-1.50056 2.7922-2.89737 3.5-4.125.27889-.4837.58401-1.34154.71875-2.71875-2.59479 1.65355-4.15625 3.3125-4.15625 3.3125s-1.79927-4.99386-6.125-9.53125c-2.16878.19915-4.205.64534-6.1875 1.34375-3.23547 1.14-5.63956 2.24352-7 3.09375a7.4824133 7.4824133 0 0 1-3.96875 1.15625h-.5625a7.4824133 7.4824133 0 0 1-7.5-7.46875v-3.84375zm60.5 19.09375c-.35471 1.15812-.77704 2.3041-1.28125 3.40625-1.62371 3.54889-3.75448 6.81546-6.46875 9.625a7.4824133 7.4824133 0 0 1-.0937.0312c-2.45413 2.49802-5.20275 4.75672-8.25 6.84375-1.69378 1.16015-3.5523 2.24416-5.34375 3.34375v5.03125c10.52325.68104 33.61404 1.84624 39.5625-.40625 11.27165-4.26809 7.74974-17.61639.25-22.125-7.49975-4.50861-17.3125-1.3125-17.3125-1.3125s-.0384-1.92242-1.0625-4.4375z" fill="url(#i)"/>
</svg>
