<svg xmlns:osb="http://www.openswatchbook.org/uri/2009/osb" xmlns="http://www.w3.org/2000/svg" xmlns:xlink="http://www.w3.org/1999/xlink" width="128" height="128">
  <defs>
    <linearGradient xlink:href="#a" id="c" x1="-776.67316" y1="687.79468" x2="-647.30078" y2="687.79468" gradientUnits="userSpaceOnUse"/>
    <linearGradient id="a" osb:paint="solid">
      <stop offset="0" stop-opacity="0"/>
    </linearGradient>
    <filter id="d" x="-.10462177" width="1.2092435" y="-.155591" height="1.311182" color-interpolation-filters="sRGB">
      <feGaussianBlur stdDeviation="4.6110333"/>
    </filter>
    <linearGradient xlink:href="#b" id="e" gradientUnits="userSpaceOnUse" x1="56" x2="56" y2="120" gradientTransform="translate(-771.47 638.95)"/>
    <linearGradient id="b">
      <stop offset="0" stop-color="#c6c6c6"/>
      <stop offset="1" stop-color="#c6c6c6"/>
    </linearGradient>
  </defs>
  <path d="M-731.15625 652.2324c-1.0259-.006-2.10431.0466-3.21875.1875-17.79816 2.25-17.25 17.25-17.25 17.25-7.28984 1.2171-13.25 7.4675-13.25 14 0 6.5324 7.61805 12.3188 14 14 3.79621 1 8.78125 0 8.78125 0 1.03697 1.79607 3.15082 3.32038 5.65625 4.4375 1.46632-2.62103 3.66308-4.81796 6.46875-6.03125 3.10401-7.29346 10.52569-13.6718 19.03125-13.15625 6.23604-.32743 12.30756 2.80131 16.25 7.5 7.24478-2.34285 17.95366-.52804 21.0625 7.40625 2.0717-.42173 4.11313-.26242 6.03125.3125.67818-.13339 1.25252-.29221 1.71875-.46875 10.57262-4.0034 7.28463-16.521.25-20.75-7.03463-4.229-16.25-1.25-16.25-1.25s-.0204-8.60455-9.96875-12.71875c-9.94833-4.1143-18.375 4.96875-18.375 4.96875s-5.54894-15.59433-20.9375-15.6875zm20.875 36.6875c-.68362-.004-1.41363.0316-2.15625.125-11.86 1.49202-11.5 11.4375-11.5 11.4375-4.85767.807-8.8125 4.94932-8.8125 9.28125 0 4.3318 5.05982 8.16645 9.3125 9.28125 2.52965.6631 5.84375 0 5.84375 0 1.50162 2.5882 6.45323 4.3125 9.90625 4.3125 5.63035 0 11.41728-1.8258 12.75-4.3125 0 0 23.31678 1.8236 28.15625 0 7.04519-2.6548 4.84386-10.94572.15625-13.75-4.6876-2.8043-10.8125-.84375-10.8125-.84375s-.0271-5.7092-6.65625-8.4375c-6.62918-2.7282-12.21875 3.3125-12.21875 3.3125s-3.71441-10.34447-13.96875-10.40625z" opacity=".6" fill="url(#c)" filter="url(#d)" transform="translate(823.06 -669.27) scale(1.06612)"/>
  <path d="M-731.15625 652.2324c-1.0259-.006-2.10431.0466-3.21875.1875-17.79816 2.25-17.25 17.25-17.25 17.25-7.28984 1.2171-13.25 7.4675-13.25 14 0 6.5324 7.61805 12.3188 14 14 3.79621 1 8.78125 0 8.78125 0 1.03697 1.79607 3.15082 3.32038 5.65625 4.4375 1.46632-2.62103 3.66308-4.81796 6.46875-6.03125 3.10401-7.29346 10.52569-13.6718 19.03125-13.15625 6.23604-.32743 12.30756 2.80131 16.25 7.5 7.24478-2.34285 17.95366-.52804 21.0625 7.40625 2.0717-.42173 4.11313-.26242 6.03125.3125.67818-.13339 1.25252-.29221 1.71875-.46875 10.57262-4.0034 7.28463-16.521.25-20.75-7.03463-4.229-16.25-1.25-16.25-1.25s-.0204-8.60455-9.96875-12.71875c-9.94833-4.1143-18.375 4.96875-18.375 4.96875s-5.54894-15.59433-20.9375-15.6875zm20.875 36.6875c-.68362-.004-1.41363.0316-2.15625.125-11.86 1.49202-11.5 11.4375-11.5 11.4375-4.85767.807-8.8125 4.94932-8.8125 9.28125 0 4.3318 5.05982 8.16645 9.3125 9.28125 2.52965.6631 5.84375 0 5.84375 0 1.50162 2.5882 6.45323 4.3125 9.90625 4.3125 5.63035 0 11.41728-1.8258 12.75-4.3125 0 0 23.31678 1.8236 28.15625 0 7.04519-2.6548 4.84386-10.94572.15625-13.75-4.6876-2.8043-10.8125-.84375-10.8125-.84375s-.0271-5.7092-6.65625-8.4375c-6.62918-2.7282-12.21875 3.3125-12.21875 3.3125s-3.71441-10.34447-13.96875-10.40625z" fill="url(#e)" transform="translate(823.06 -669.27) scale(1.06612)"/>
</svg>
