<svg xmlns:osb="http://www.openswatchbook.org/uri/2009/osb" xmlns="http://www.w3.org/2000/svg" xmlns:xlink="http://www.w3.org/1999/xlink" width="128" height="128">
  <defs>
    <linearGradient xlink:href="#a" id="d" x1="-451.5777" y1="573.03052" x2="-322.20529" y2="573.03052" gradientUnits="userSpaceOnUse"/>
    <linearGradient id="a" osb:paint="solid">
      <stop offset="0" stop-opacity="0"/>
    </linearGradient>
    <filter id="e" x="-.10462176" width="1.2092435" y="-.12891427" height="1.2578285" color-interpolation-filters="sRGB">
      <feGaussianBlur stdDeviation="4.6110333"/>
    </filter>
    <linearGradient xlink:href="#b" id="f" gradientUnits="userSpaceOnUse" gradientTransform="translate(-446.184 -422.254)" x1="59.396969" y1="932.50757" x2="59.396969" y2="1052.7288"/>
    <linearGradient id="b">
      <stop offset="0" stop-color="#feb42f"/>
      <stop offset="1" stop-color="#feb42f"/>
    </linearGradient>
    <linearGradient xlink:href="#c" id="g" gradientUnits="userSpaceOnUse" x1="59.396969" y1="932.50757" x2="59.396969" y2="1052.7288" gradientTransform="translate(-446.184 -422.254)"/>
    <linearGradient id="c">
      <stop offset="0" stop-color="#c6c6c6"/>
      <stop offset="1" stop-color="#c6c6c6"/>
    </linearGradient>
  </defs>
  <path d="M-394.18578 530.10865c-1.19528 9.8983-6.90322 12.2284-14.71875 6.0625 2.68365 9.6023-1.70102 13.92455-11.28125 11.21875 6.15403 7.8444 3.76142 13.48985-6.125 14.65625.95901.54005 1.78465 1.12016 2.53125 1.6875 4.70174-3.73283 10.73457-5.90652 16.75-5.75 9.4083-.38111 18.72596 4.72478 23.78125 12.625 10.18597-6.39871 25.94758-1.74482 30.5 9.50002 1.56063-.9399 3.6756-1.619 6.375-1.9375-8.68766-4.89232-8.65622-11.04517.0312-15.90627-9.89855-1.1953-12.22846-6.90315-6.0625-14.71875-9.60248 2.6837-13.92444-1.70095-11.21875-11.28125-7.84452 6.1542-13.48975 3.7615-14.65625-6.125-4.89224 8.6875-11.04526 8.65605-15.90625-.0312zm-11.875 33.90625c-1.0259-.006-2.10431.0466-3.21875.1875-17.79816 2.25-17.25 17.24997-17.25 17.24997-7.28984 1.2171-13.25 7.4675-13.25 14 0 6.5324 7.61805 12.3188 14 14 3.79621 1 8.78125 0 8.78125 0 2.25347 3.9031 9.66184 6.5 14.84375 6.5 8.44939 0 17.125-2.75 19.125-6.5 0 0 34.98746 2.75 42.25001 0 10.57262-4.0034 7.28463-16.521.25-20.75-7.03464-4.229-16.25001-1.25-16.25001-1.25s-.0204-8.6357-9.96875-12.74997c-9.94833-4.11424-18.375 4.99997-18.375 4.99997s-5.54894-15.5943-20.9375-15.68747z" opacity=".6" fill="url(#d)" filter="url(#e)" transform="translate(476.472 -546.918) scale(1.06612)"/>
  <path d="M-394.18578 530.10865c-1.19528 9.8983-6.90322 12.2284-14.71875 6.0625 2.68365 9.6023-1.70102 13.92455-11.28125 11.21875 6.15403 7.8444 3.76142 13.48985-6.125 14.65625.95901.54005 1.78465 1.12016 2.53125 1.6875 4.70174-3.73283 10.73457-5.90652 16.75-5.75 9.4083-.38111 18.72596 4.72478 23.78125 12.625 10.18597-6.39871 25.94758-1.74482 30.5 9.50002 1.56063-.9399 3.6756-1.619 6.375-1.9375-8.68766-4.89232-8.65622-11.04517.0312-15.90627-9.89855-1.1953-12.22846-6.90315-6.0625-14.71875-9.60248 2.6837-13.92444-1.70095-11.21875-11.28125-7.84452 6.1542-13.48975 3.7615-14.65625-6.125-4.89224 8.6875-11.04526 8.65605-15.90625-.0312z" fill="url(#f)" transform="translate(476.472 -546.918) scale(1.06612)"/>
  <path d="M-406.06078 564.0149c-1.0259-.006-2.10431.0466-3.21875.1875-17.79816 2.25-17.25 17.24997-17.25 17.24997-7.28984 1.2171-13.25 7.4675-13.25 14 0 6.5324 7.61805 12.3188 14 14 3.79621 1 8.78125 0 8.78125 0 2.25347 3.9031 9.66184 6.5 14.84375 6.5 8.44939 0 17.125-2.75 19.125-6.5 0 0 34.98746 2.75 42.25001 0 10.57262-4.0034 7.28463-16.521.25-20.75-7.03464-4.229-16.25001-1.25-16.25001-1.25s-.0204-8.6357-9.96875-12.74997c-9.94833-4.11424-18.375 4.99997-18.375 4.99997s-5.54894-15.5943-20.9375-15.68747z" fill="url(#g)" transform="translate(476.472 -546.918) scale(1.06612)"/>
</svg>
