<svg xmlns:osb="http://www.openswatchbook.org/uri/2009/osb" xmlns="http://www.w3.org/2000/svg" xmlns:xlink="http://www.w3.org/1999/xlink" width="128" height="128">
  <defs>
    <linearGradient xlink:href="#a" id="d" x1="-284.88409" y1="687.79468" x2="-178.68332" y2="687.79468" gradientUnits="userSpaceOnUse"/>
    <linearGradient id="a" osb:paint="solid">
      <stop offset="0" stop-opacity="0"/>
    </linearGradient>
    <filter id="e" x="-.13396937" width="1.2679387" y="-.13333105" height="1.2666621" color-interpolation-filters="sRGB">
      <feGaussianBlur stdDeviation="4.6110333"/>
    </filter>
    <linearGradient xlink:href="#b" id="f" gradientUnits="userSpaceOnUse" gradientTransform="translate(-300.46 -306.068)" x1="51" y1="932.36218" x2="51" y2="1052.3633"/>
    <linearGradient id="b">
      <stop offset="0" stop-color="#e0d9b5"/>
      <stop offset="1" stop-color="#e0d9b5"/>
    </linearGradient>
    <linearGradient xlink:href="#c" id="g" gradientUnits="userSpaceOnUse" gradientTransform="translate(-300.46 -306.068)" x1="51" y1="932.36218" x2="51" y2="1052.3633"/>
    <linearGradient id="c">
      <stop offset="0" stop-color="#c6c6c6"/>
      <stop offset="1" stop-color="#c6c6c6"/>
    </linearGradient>
  </defs>
  <path d="M-233.08598 646.29466c-22.09139 0-40 17.90861-40 40 0 8.76422 2.81343 16.87822 7.59375 23.46872 1.36173-3.3387 3.82976-6.2204 7.25-7.6875 3.12768-7.278 10.5594-13.71101 19.09375-13.24997.0416-.002.0834.002.125 0-.0524-.83828-.0625-1.67976-.0625-2.53125 0-16.01133 9.41094-29.7964 23-36.1875-5.16024-2.42692-10.91994-3.8125-17-3.8125zm-5.40625 48.56252c-.68362 0-1.41363.032-2.15625.125-11.86 1.492-11.5 11.4375-11.5 11.4375-4.85767.807-8.8125 4.9493-8.8125 9.2812 0 4.3318 5.05982 8.1665 9.3125 9.2813 2.52965.6631 5.84375 0 5.84375 0 1.50162 2.5882 6.45323 4.3125 9.90625 4.3125 5.63035 0 11.41728-1.8258 12.75-4.3125 0 0 23.31678 1.8236 28.15625 0 7.04519-2.6548 4.84386-10.9457.15625-13.75-4.6876-2.8043-10.8125-.8438-10.8125-.8438s-.0271-5.7092-6.65625-8.4375c-6.62918-2.7282-12.21875 3.3125-12.21875 3.3125s-3.71441-10.3444-13.96875-10.4062z" opacity=".6" fill="url(#d)" filter="url(#e)" transform="translate(311.107 -669.266) scale(1.0661)"/>
  <path d="M-233.08598 646.29466c-22.09139 0-40 17.90861-40 40 0 8.76422 2.81343 16.87822 7.59375 23.46872 1.36173-3.3387 3.82976-6.2204 7.25-7.6875 3.12768-7.278 10.5594-13.71101 19.09375-13.24997.0416-.002.0834.002.125 0-.0524-.83828-.0625-1.67976-.0625-2.53125 0-16.01133 9.41094-29.7964 23-36.1875-5.16024-2.42692-10.91994-3.8125-17-3.8125z" fill="url(#f)" transform="translate(311.107 -669.266) scale(1.0661)"/>
  <path d="M-238.49223 694.85718c-.68362 0-1.41363.032-2.15625.125-11.86 1.492-11.5 11.4375-11.5 11.4375-4.85767.807-8.8125 4.9493-8.8125 9.2812 0 4.3318 5.05982 8.1665 9.3125 9.2813 2.52965.6631 5.84375 0 5.84375 0 1.50162 2.5882 6.45323 4.3125 9.90625 4.3125 5.63035 0 11.41728-1.8258 12.75-4.3125 0 0 23.31678 1.8236 28.15625 0 7.04519-2.6548 4.84386-10.9457.15625-13.75-4.6876-2.8043-10.8125-.8438-10.8125-.8438s-.0271-5.7092-6.65625-8.4375c-6.62918-2.7282-12.21875 3.3125-12.21875 3.3125s-3.71441-10.3444-13.96875-10.4062z" fill="url(#g)" transform="translate(311.107 -669.266) scale(1.0661)"/>
</svg>
