<svg xmlns:osb="http://www.openswatchbook.org/uri/2009/osb" xmlns="http://www.w3.org/2000/svg" xmlns:xlink="http://www.w3.org/1999/xlink" width="128" height="128">
  <defs>
    <linearGradient xlink:href="#a" id="d" x1="-445.02307" y1="687.79468" x2="-328.75992" y2="687.79468" gradientUnits="userSpaceOnUse"/>
    <linearGradient id="a" osb:paint="solid">
      <stop offset="0" stop-opacity="0"/>
    </linearGradient>
    <filter id="e" x="-.11942209" width="1.2388442" y="-.13223574" height="1.2644715" color-interpolation-filters="sRGB">
      <feGaussianBlur stdDeviation="4.6110333"/>
    </filter>
    <linearGradient xlink:href="#b" id="f" gradientUnits="userSpaceOnUse" gradientTransform="translate(-453.255 -306.41)" x1="54.447224" y1="932.15405" x2="54.447224" y2="1051.7074"/>
    <linearGradient id="b">
      <stop offset="0" stop-color="#feb42f"/>
      <stop offset="1" stop-color="#feb42f"/>
    </linearGradient>
    <linearGradient xlink:href="#c" id="g" gradientUnits="userSpaceOnUse" gradientTransform="translate(-453.255 -306.41)" x1="54.447224" y1="932.15405" x2="54.447224" y2="1051.7074"/>
    <linearGradient id="c">
      <stop offset="0" stop-color="#c6c6c6"/>
      <stop offset="1" stop-color="#c6c6c6"/>
    </linearGradient>
  </defs>
  <path d="M-401.06876 645.95091c-1.19528 9.89838-6.90322 12.22848-14.71875 6.0625 2.68366 9.60233-1.70102 13.9245-11.28125 11.21875 6.15403 7.84441 3.76142 13.48985-6.125 14.65625 8.68751 4.89225 8.6562 11.04522-.0312 15.90622 9.89839 1.1953 12.22847 6.9032 6.0625 14.7188 5.8267-1.6285 9.70218-.6271 11.25 2.5312 1.25952-3.7358 3.85603-7.0218 7.59375-8.625 3.12768-7.278 10.5594-13.71101 19.09375-13.24997 6.3233-.31903 12.34155 2.9004 16.375 7.65627 3.63882-1.4877 8.21717-1.5143 12.25-.1875 1.59025-1.3122 4.02887-2.2339 7.34375-2.625-8.68766-4.89237-8.65622-11.04517.0312-15.90627-9.89854-1.19527-12.22844-6.90312-6.06249-14.71875-9.60248 2.68373-13.92444-1.70094-11.21875-11.28125-7.84451 6.15415-13.48975 3.76148-14.65625-6.125-4.89224 8.68748-11.04526 8.6562-15.90625-.0312zm12.5 49.25002c-.68362 0-1.41363.032-2.15625.125-11.86 1.492-11.5 11.4375-11.5 11.4375-4.85767.807-8.8125 4.9493-8.8125 9.2812 0 4.3318 5.05982 8.1665 9.3125 9.2813 2.52965.6631 5.84375 0 5.84375 0 1.50162 2.5882 6.45323 4.3125 9.90625 4.3125 5.63035 0 11.41728-1.8258 12.75-4.3125 0 0 23.31676 1.8236 28.15619 0 7.04519-2.6548 4.84386-10.9457.15625-13.75-4.68757-2.8043-10.81244-.8438-10.81244-.8438s-.0271-5.7092-6.65625-8.4375c-6.62918-2.7282-12.21875 3.3125-12.21875 3.3125s-3.71441-10.3444-13.96875-10.4062z" opacity=".6" fill="url(#d)" filter="url(#e)" transform="translate(476.47 -669.266) scale(1.0661)"/>
  <path d="M-401.06876 645.95091c-1.19528 9.89838-6.90322 12.22848-14.71875 6.0625 2.68366 9.60233-1.70102 13.9245-11.28125 11.21875 6.15403 7.84441 3.76142 13.48985-6.125 14.65625 8.68751 4.89225 8.6562 11.04522-.0312 15.90622 9.89839 1.1953 12.22847 6.9032 6.0625 14.7188 5.8267-1.6285 9.70218-.6271 11.25 2.5312 1.25952-3.7358 3.85603-7.0218 7.59375-8.625 3.12768-7.278 10.5594-13.71101 19.09375-13.24997 6.3233-.31903 12.34155 2.9004 16.375 7.65627 3.63882-1.4877 8.21717-1.5143 12.25-.1875 1.59025-1.3122 4.02887-2.2339 7.34375-2.625-8.68766-4.89237-8.65622-11.04517.0312-15.90627-9.89854-1.19527-12.22844-6.90312-6.06249-14.71875-9.60248 2.68373-13.92444-1.70094-11.21875-11.28125-7.84451 6.15415-13.48975 3.76148-14.65625-6.125-4.89224 8.68748-11.04526 8.6562-15.90625-.0312z" fill="url(#f)" transform="translate(476.47 -669.266) scale(1.0661)"/>
  <path d="M-388.56876 695.20093c-.68362 0-1.41363.032-2.15625.125-11.86 1.492-11.5 11.4375-11.5 11.4375-4.85767.807-8.8125 4.9493-8.8125 9.2812 0 4.3318 5.05982 8.1665 9.3125 9.2813 2.52965.6631 5.84375 0 5.84375 0 1.50162 2.5882 6.45323 4.3125 9.90625 4.3125 5.63035 0 11.41728-1.8258 12.75-4.3125 0 0 23.31676 1.8236 28.15619 0 7.04519-2.6548 4.84386-10.9457.15625-13.75-4.68757-2.8043-10.81244-.8438-10.81244-.8438s-.0271-5.7092-6.65625-8.4375c-6.62918-2.7282-12.21875 3.3125-12.21875 3.3125s-3.71441-10.3444-13.96875-10.4062z" fill="url(#g)" transform="translate(476.47 -669.266) scale(1.0661)"/>
</svg>
