<svg xmlns:osb="http://www.openswatchbook.org/uri/2009/osb" xmlns="http://www.w3.org/2000/svg" xmlns:xlink="http://www.w3.org/1999/xlink" width="128" height="128">
  <defs>
    <linearGradient xlink:href="#a" id="c" x1="-438.68958" y1="461.12576" x2="-335.09341" y2="461.12576" gradientUnits="userSpaceOnUse"/>
    <linearGradient id="a" osb:paint="solid">
      <stop offset="0" stop-opacity="0"/>
    </linearGradient>
    <filter id="d" x="-.13833109" width="1.2766622" y="-.13833097" height="1.2766619" color-interpolation-filters="sRGB">
      <feGaussianBlur stdDeviation="4.6110333"/>
    </filter>
    <linearGradient xlink:href="#b" id="e" gradientUnits="userSpaceOnUse" gradientTransform="translate(-446.89 -531.236)" x1="62" y1="932.36218" x2="62" y2="1051.379"/>
    <linearGradient id="b">
      <stop offset="0" stop-color="#feb42f"/>
      <stop offset="1" stop-color="#feb42f"/>
    </linearGradient>
  </defs>
  <path d="M-394.73526 421.126c-1.19529 9.89838-6.90322 12.22848-14.71875 6.0625 2.68365 9.60233-1.70103 13.9245-11.28125 11.21875 6.15403 7.84441 3.76142 13.48985-6.125 14.65625 8.6875 4.89225 8.65625 11.04522-.0312 15.90627 9.89839 1.1953 12.22847 6.9032 6.0625 14.7188 9.60234-2.6837 13.92446 1.7009 11.21875 11.2812 7.8444-6.1541 13.48978-3.7615 14.65625 6.125 4.8922-8.6878 11.04516-8.6562 15.90625.031 1.1952-9.8985 6.90314-12.2285 14.71875-6.0625-2.68376-9.6024 1.70094-13.9245 11.28125-11.2188-6.15416-7.8445-3.76148-13.4897 6.125-14.6562-8.68766-4.89237-8.65627-11.04522.0312-15.90632-9.89855-1.19527-12.22845-6.90312-6.0625-14.71875-9.60248 2.68373-13.92444-1.70094-11.21875-11.28125-7.84451 6.15415-13.48975 3.76148-14.65625-6.125-4.89224 8.68748-11.04526 8.65625-15.90625-.0312z" opacity=".6" fill="url(#c)" filter="url(#d)" transform="translate(476.47 -427.61) scale(1.0661)"/>
  <path d="M-394.73526 421.126c-1.19529 9.89838-6.90322 12.22848-14.71875 6.0625 2.68365 9.60233-1.70103 13.9245-11.28125 11.21875 6.15403 7.84441 3.76142 13.48985-6.125 14.65625 8.6875 4.89225 8.65625 11.04522-.0312 15.90627 9.89839 1.1953 12.22847 6.9032 6.0625 14.7188 9.60234-2.6837 13.92446 1.7009 11.21875 11.2812 7.8444-6.1541 13.48978-3.7615 14.65625 6.125 4.8922-8.6878 11.04516-8.6562 15.90625.031 1.1952-9.8985 6.90314-12.2285 14.71875-6.0625-2.68376-9.6024 1.70094-13.9245 11.28125-11.2188-6.15416-7.8445-3.76148-13.4897 6.125-14.6562-8.68766-4.89237-8.65627-11.04522.0312-15.90632-9.89855-1.19527-12.22845-6.90312-6.0625-14.71875-9.60248 2.68373-13.92444-1.70094-11.21875-11.28125-7.84451 6.15415-13.48975 3.76148-14.65625-6.125-4.89224 8.68748-11.04526 8.65625-15.90625-.0312z" fill="url(#e)" transform="translate(476.47 -427.61) scale(1.0661)"/>
</svg>
