<svg xmlns:osb="http://www.openswatchbook.org/uri/2009/osb" xmlns="http://www.w3.org/2000/svg" xmlns:xlink="http://www.w3.org/1999/xlink" width="128" height="128">
  <defs>
    <linearGradient xlink:href="#a" id="d" x1="-284.31848" y1="800.41412" x2="-179.24892" y2="800.41412" gradientUnits="userSpaceOnUse"/>
    <linearGradient id="a" osb:paint="solid">
      <stop offset="0" stop-opacity="0"/>
    </linearGradient>
    <filter id="e" x="-.13582942" width="1.2716588" y="-.1272006" height="1.2544012" color-interpolation-filters="sRGB">
      <feGaussianBlur stdDeviation="4.6110333"/>
    </filter>
    <linearGradient xlink:href="#b" id="f" gradientUnits="userSpaceOnUse" gradientTransform="translate(-300.46 -195.448)" x1="61" y1="932.36218" x2="61" y2="1052.6285"/>
    <linearGradient id="b">
      <stop offset="0" stop-color="#e0d9b5"/>
      <stop offset="1" stop-color="#e0d9b5"/>
    </linearGradient>
    <linearGradient xlink:href="#c" id="g" gradientUnits="userSpaceOnUse" gradientTransform="translate(-300.46 -195.448)" x1="61" y1="932.36218" x2="61" y2="1052.6285"/>
    <linearGradient id="c">
      <stop offset="0" stop-color="#c6c6c6"/>
      <stop offset="1" stop-color="#c6c6c6"/>
    </linearGradient>
  </defs>
  <path d="M-232.52038 756.91399c-22.09139 0-40 17.90861-40 40 0 13.85642 7.04578 26.04062 17.75 33.21872.66064-3.8277 2.84749-7.405 6.5-9.25 2.69155-4.5713 6.73854-9.2067 11.96875-10.8125-1.43386-4.1192-2.21875-8.5488-2.21875-13.15622 0-16.01133 9.41094-29.7964 23-36.1875-5.16024-2.42692-10.91994-3.8125-17-3.8125zm.9375 58.56252c-.29437.018-.59961.055-.90625.094-9.79426 1.2321-9.46875 9.4375-9.46875 9.4375-4.01157.6664-7.3125 4.1101-7.3125 7.6875 0 3.5773 4.20678 6.7355 7.71875 7.6562 2.08904.5476 4.8125 0 4.8125 0 1.24007 2.1373 5.33592 3.5625 8.1875 3.5625 4.64968 0 9.43066-1.509 10.53125-3.5625 0 0 19.25345 1.5059 23.25 0 5.81808-2.1924 3.99614-9.0279.125-11.3437-3.87113-2.3159-8.9375-.6875-8.9375-.6875s-.0255-4.7469-5.5-7c-5.47453-2.253-10.09375 2.75-10.09375 2.75s-3.28081-9.1458-12.40625-8.5938z" opacity=".6" fill="url(#d)" filter="url(#e)" transform="translate(311.107 -789.33) scale(1.0661)"/>
  <path d="M-232.52038 756.91399c-22.09139 0-40 17.90861-40 40 0 13.85642 7.04578 26.04062 17.75 33.21872.66064-3.8277 2.84749-7.405 6.5-9.25 2.69155-4.5713 6.73854-9.2067 11.96875-10.8125-1.43386-4.1192-2.21875-8.5488-2.21875-13.15622 0-16.01133 9.41094-29.7964 23-36.1875-5.16024-2.42692-10.91994-3.8125-17-3.8125z" fill="url(#f)" transform="translate(311.107 -789.33) scale(1.0661)"/>
  <path d="M-231.58288 815.47651c-.29437.018-.59961.055-.90625.094-9.79426 1.2321-9.46875 9.4375-9.46875 9.4375-4.01157.6664-7.3125 4.1101-7.3125 7.6875 0 3.5773 4.20678 6.7355 7.71875 7.6562 2.08904.5476 4.8125 0 4.8125 0 1.24007 2.1373 5.33592 3.5625 8.1875 3.5625 4.64968 0 9.43066-1.509 10.53125-3.5625 0 0 19.25345 1.5059 23.25 0 5.81808-2.1924 3.99614-9.0279.125-11.3437-3.87113-2.3159-8.9375-.6875-8.9375-.6875s-.0255-4.7469-5.5-7c-5.47453-2.253-10.09375 2.75-10.09375 2.75s-3.28081-9.1458-12.40625-8.5938z" fill="url(#g)" transform="translate(311.107 -789.33) scale(1.0661)"/>
</svg>
