<svg xmlns:osb="http://www.openswatchbook.org/uri/2009/osb" xmlns="http://www.w3.org/2000/svg" xmlns:xlink="http://www.w3.org/1999/xlink" width="128" height="128">
  <defs>
    <linearGradient xlink:href="#a" id="d" x1="-449.27048" y1="1026.2157" x2="-324.51251" y2="1026.2157" gradientUnits="userSpaceOnUse"/>
    <linearGradient id="a" osb:paint="solid">
      <stop offset="0" stop-opacity="0"/>
    </linearGradient>
    <filter color-interpolation-filters="sRGB" id="e" x="-.10799991" width="1.2159998" y="-.10800009" height="1.2160002">
      <feGaussianBlur stdDeviation="4.6181212"/>
    </filter>
    <linearGradient xlink:href="#b" id="f" gradientUnits="userSpaceOnUse" gradientTransform="translate(-291.24 -995.33) scale(1.0661)" x1="55.861435" y1="932.50757" x2="55.861435" y2="1052.3627"/>
    <linearGradient id="b">
      <stop offset="0" stop-color="#fe5416"/>
      <stop offset="1" stop-color="#fe5416"/>
    </linearGradient>
    <linearGradient xlink:href="#c" id="g" gradientUnits="userSpaceOnUse" gradientTransform="translate(-446.89 33.854)" x1="55.861435" y1="932.50757" x2="55.861435" y2="1052.3627"/>
    <linearGradient id="c">
      <stop offset="0" stop-color="#feb42f"/>
      <stop offset="1" stop-color="#feb42f"/>
    </linearGradient>
  </defs>
  <path d="M-396.95404 974.90327c-1.53336 12.698-8.88015 15.6911-18.90625 7.7813 3.4427 12.3182-2.17881 17.84613-14.46875 14.375 7.89466 10.06313 4.83898 17.31623-7.84375 18.81253 11.14472 6.2759 11.11333 14.1703-.0312 20.4062 12.69809 1.5334 15.65998 8.8488 7.75 18.875 12.3183-3.4428 17.87725 2.1788 14.40625 14.4688 10.06314-7.8947 17.3161-4.8078 18.8125 7.875 6.27594-11.145 14.17024-11.1131 20.40625.031 1.53327-12.6982 8.84879-15.6913 18.875-7.7813-3.44285-12.3184 2.17871-17.846 14.46875-14.375-7.89481-10.0633-4.83906-17.3161 7.84375-18.8125-11.14491-6.2761-11.08218-14.1702.0625-20.4062-12.6983-1.5334-15.69122-8.8489-7.78125-18.87503-12.31849 3.44273-17.87723-2.1788-14.40625-14.4688-10.06329 7.8949-17.28481 4.8078-18.78125-7.875-6.27598 11.1447-14.17036 11.1128-20.40625-.031zm.6875 3.5313c5.80623 10.3762 13.15644 10.408 19 .031 1.39333 11.8089 8.13007 14.6634 17.5 7.3125-3.23183 11.4432 1.93652 16.70553 13.40625 13.5-7.36496 9.33533-4.57338 16.13473 7.25 17.56253-10.37677 5.8063-10.43952 13.1563-.0625 19-11.80896 1.3933-14.66336 8.1301-7.3125 17.5-11.44325-3.2318-16.67438 1.9366-13.46875 13.4062-9.3354-7.365-16.16613-4.5733-17.59375 7.25-5.80634-10.3762-13.15648-10.4083-19-.031-1.3933-11.8089-8.13022-14.6633-17.5-7.3125 3.23185-11.4432-1.93669-16.7056-13.40625-13.5 7.36497-9.3354 4.60443-16.1348-7.21875-17.5625 10.37671-5.8063 10.40809-13.1565.0312-19 11.80888-1.3932 14.66321-8.1302 7.3125-17.50003 11.44315 3.23203 16.67425-1.9367 13.46875-13.4062 9.3353 7.3648 16.16604 4.573 17.59375-7.25zm1.53125 7.7812c-1.19528 9.8983-6.90322 12.2284-14.71875 6.0625 2.68365 9.60233-1.70102 13.92463-11.28125 11.21883 6.15403 7.8444 3.76142 13.4898-6.125 14.6562 8.68751 4.8922 8.65615 11.0452-.0312 15.9063 9.89839 1.1953 12.22847 6.9031 6.0625 14.7187 9.60234-2.6837 13.92446 1.701 11.21875 11.2813 7.8444-6.1541 13.48978-3.7615 14.65625 6.125 4.89221-8.6878 11.04517-8.6558 15.90625.031 1.19521-9.8985 6.90314-12.2285 14.71875-6.0625-2.68376-9.6024 1.70094-13.9245 11.28125-11.2188-6.15415-7.8445-3.76148-13.4897 6.125-14.6562-8.68766-4.8924-8.65617-11.0452.0312-15.9063-9.89855-1.1953-12.22846-6.9031-6.0625-14.7187-9.60248 2.6837-13.92444-1.701-11.21875-11.28133-7.84452 6.1542-13.48975 3.7615-14.65625-6.125-4.89224 8.6875-11.04526 8.6558-15.90625-.031z" opacity=".6" fill="url(#d)" filter="url(#e)" transform="translate(476.47 -1030.06) scale(1.0661)"/>
  <path transform="translate(291.272 1.362)" d="M-238 7.9375c-1.63473 13.537484-9.46731 16.713979-20.15625 8.28125 3.6703 13.132575-2.33505 19.044362-15.4375 15.34375 8.41659 10.728419 5.17745 18.467277-8.34375 20.0625 11.88151 6.690809 11.85006 15.101835-.0312 21.75 13.53758 1.634775 16.68292 9.435953 8.25 20.125 13.13268-3.670409 19.07547 2.30374 15.375 15.40625 10.72843-8.41663 18.43592-5.11503 20.03125 8.40625 6.69085-11.88181 15.13297-11.8496 21.78125.0312 1.63464-13.5377 9.43594-16.71419 20.125-8.28125-3.67046-13.132788 2.3037-19.044223 15.40625-15.34375-8.41675-10.7286-5.14629-18.467171 8.375-20.0625-11.88172-6.691022-11.81897-15.101729.0625-21.75-13.5378-1.634775-16.74541-9.436028-8.3125-20.125-13.13288 3.670334-19.0442-2.30374-15.34375-15.40625-10.72859 8.416844-18.43588 5.115029-20.03125-8.40625-6.69089 11.881493-15.10185 11.849283-21.75-.03125zm.71875 3.75c6.19009 11.062186 14.05136 11.094289 20.28125.03125 1.48545 12.589604 8.66686 15.649379 18.65625 7.8125-3.44549 12.199727 2.05324 17.792452 14.28125 14.375-7.85187 9.952503-4.88629 17.227806 7.71875 18.75-11.06279 6.190163-11.12556 14.019964-.0625 20.25-12.58967 1.485413-15.61809 8.666892-7.78125 18.65625-12.19978-3.445459-17.79256 2.053378-14.375 14.28125-9.95258-7.851911-17.228-4.85496-18.75 7.75-6.19021-11.06219-14.02016-11.12586-20.25-.0625-1.48541-12.5896-8.66702-15.618022-18.65625-7.78125 3.44551-12.199727-2.08467-17.823777-14.3125-14.40625 7.85188-9.952577 4.91733-17.196663-7.6875-18.71875 11.06273-6.190163 11.09417-14.020177.0312-20.25 12.58958-1.485307 15.64918-8.666966 7.8125-18.65625 12.19967 3.445704 17.76117-2.053484 14.34375-14.28125 9.95247 7.851698 17.2279 4.854636 18.75-7.75z" fill="url(#f)"/>
  <path d="M-394.73529 986.21577c-1.19528 9.8983-6.90322 12.2284-14.71875 6.0625 2.68365 9.60233-1.70102 13.92463-11.28125 11.21883 6.15403 7.8444 3.76142 13.4898-6.125 14.6562 8.68751 4.8922 8.65615 11.0452-.0312 15.9063 9.89839 1.1953 12.22847 6.9031 6.0625 14.7187 9.60234-2.6837 13.92446 1.701 11.21875 11.2813 7.8444-6.1541 13.48978-3.7615 14.65625 6.125 4.89221-8.6878 11.04517-8.6558 15.90625.031 1.19521-9.8985 6.90314-12.2285 14.71875-6.0625-2.68376-9.6024 1.70094-13.9245 11.28125-11.2188-6.15415-7.8445-3.76148-13.4897 6.125-14.6562-8.68766-4.8924-8.65617-11.0452.0312-15.9063-9.89855-1.1953-12.22846-6.9031-6.0625-14.7187-9.60248 2.6837-13.92444-1.701-11.21875-11.28133-7.84452 6.1542-13.48975 3.7615-14.65625-6.125-4.89224 8.6875-11.04526 8.6558-15.90625-.031z" fill="url(#g)" transform="translate(476.47 -1030.06) scale(1.0661)"/>
</svg>
