<svg xmlns:osb="http://www.openswatchbook.org/uri/2009/osb" xmlns="http://www.w3.org/2000/svg" xmlns:xlink="http://www.w3.org/1999/xlink" width="128" height="128">
  <defs>
    <linearGradient xlink:href="#a" id="g" x1="-451.81476" y1="1258.896" x2="-321.9682" y2="1258.896" gradientUnits="userSpaceOnUse"/>
    <linearGradient id="a" osb:paint="solid">
      <stop offset="0" stop-opacity="0"/>
    </linearGradient>
    <filter color-interpolation-filters="sRGB" id="h" x="-.10250186" width="1.2050037" y="-.09915373" height="1.1983075">
      <feGaussianBlur stdDeviation="4.600351"/>
    </filter>
    <linearGradient xlink:href="#b" id="i" gradientUnits="userSpaceOnUse" gradientTransform="translate(-460.74 -1611.867)" x1="75.305702" y1="2811.4314" x2="75.305702" y2="2931.9324"/>
    <linearGradient id="b">
      <stop offset="0" stop-color="#feb42f"/>
      <stop offset="1" stop-color="#feb42f"/>
    </linearGradient>
    <linearGradient xlink:href="#c" id="j" gradientUnits="userSpaceOnUse" gradientTransform="translate(-460.74 -1611.867)" x1="75.305702" y1="2811.4314" x2="75.305702" y2="2931.9324"/>
    <linearGradient id="c">
      <stop offset="0" stop-color="#787878"/>
      <stop offset="1" stop-color="#787878"/>
    </linearGradient>
    <linearGradient xlink:href="#d" id="l" gradientUnits="userSpaceOnUse" gradientTransform="translate(-460.74 -1611.867)" x1="75.305702" y1="2811.4314" x2="75.305702" y2="2931.9324"/>
    <linearGradient id="d">
      <stop offset="0" stop-color="#c6c6c6"/>
      <stop offset="1" stop-color="#c6c6c6"/>
    </linearGradient>
    <linearGradient xlink:href="#e" id="m" gradientUnits="userSpaceOnUse" gradientTransform="translate(-460.74 -1611.867)" x1="75.305702" y1="2811.4314" x2="75.305702" y2="2931.9324"/>
    <linearGradient id="e">
      <stop offset="0" stop-color="#ffea31"/>
      <stop offset="1" stop-color="#ffea31"/>
    </linearGradient>
    <linearGradient xlink:href="#f" id="n" gradientUnits="userSpaceOnUse" gradientTransform="translate(-306.004 -2855.445) scale(1.0661)" x1="75.305702" y1="2811.4314" x2="75.305702" y2="2931.9324"/>
    <linearGradient id="f">
      <stop offset="0" stop-color="#22a0ef"/>
      <stop offset="1" stop-color="#22a0ef"/>
    </linearGradient>
    <linearGradient y2="2931.9324" x2="75.305702" y1="2811.4314" x1="75.305702" gradientTransform="translate(-460.74 -1611.867)" gradientUnits="userSpaceOnUse" id="k" xlink:href="#d"/>
  </defs>
  <path d="M-408.59202 1203.2206c-1.19529 9.8984-6.90322 12.2285-14.71875 6.0625 2.68365 9.6024-1.70103 13.9245-11.28125 11.2188 6.15403 7.8444 3.76142 13.4898-6.125 14.6562 2.63238 1.4824 4.43874 3.0761 5.46875 4.7188 4.112-4.5364 9.44206-8.0931 15.21875-10.4688.26013-.1164.5187-.2325.78125-.3437.12293-.048.25172-.078.375-.125 4.22043-1.7419 8.71719-2.8253 13.25-2.9375 2.07527-.052 4.57174.1127 7.25.5h.0625c.1668.02.33347.072.5.094 3.46069.4432 6.88209 1.2351 10.0625 2.5938.12559.051.25042.1034.375.1562.0632.028.12451.065.1875.094.31405.1363.63091.2882.9375.4375.11857.059.22589.1272.34375.1875.246.1254.47861.24.71875.375.18763.1027.37688.2053.5625.3125 2.96514-2.4674 6.55556-3.847 10.28125-4.2813h.0625c1.39304-.2535 2.85716-.3611 4.40625-.25.47906-1.6872 1.48033-3.557 3.0625-5.5625-9.60248 2.6838-13.92444-1.7009-11.21875-11.2812-7.84451 6.1541-13.48975 3.7615-14.65625-6.125-4.89224 8.6875-11.04526 8.6558-15.90625-.031zm3.0625 28.8438c-22.45295.5556-48.68582 30.5382-16.5 35.9687 2.25347 3.9031 9.69309 6.5 14.875 6.5 8.44939 0 23.09375-2.75 25.09375-6.5 0 0 34.98746 2.75 42.25 0 10.57262-4.0033 7.28463-16.521.25-20.75-7.03463-4.229-16.25-1.25-16.25-1.25s-.0204-8.6357-9.96875-12.75c-9.94833-4.1142-18.34375 5-18.34375 5-4.20278-4.5736-15.68295-6.3603-21.40625-6.2187zm-35.15625 20.9687c-.021.012-.0414.02-.0625.031h.0625c.002-.01-.002-.022 0-.031zm6.09375 14.625c-.0332.043-.0602.082-.0937.125.0759-.021.14351-.043.21875-.062-.0391-.025-.0862-.038-.125-.062zm58.78125 5.375l-1.25 22.25 11.25-2.25-8.75 19.5 22-24.25-14-1.75 11.625-12.5c-6.60086 0-11.82304-.5-20.875-1zm-45 3.9063c-3.50193 3.4124-9.36089 13.83-3.65625 15.375 5.70464 1.545 5.3433-10.8654 3.65625-15.375zm26 2.5937c-3.50193 3.4124-9.32964 13.8613-3.625 15.4063 5.70464 1.545 5.31205-10.8967 3.625-15.4063zm44 15.75c-3.50193 3.4124-9.32964 13.8613-3.625 15.4063 5.70464 1.545 5.31205-10.8967 3.625-15.4063zm-59.28125 1.3125c-3.50193 3.4124-9.36089 13.8613-3.65625 15.4063 5.70464 1.545 5.3433-10.8967 3.65625-15.4063zm25.53125 2.4375c-3.50193 3.4124-9.32964 13.8613-3.625 15.4063 5.70464 1.545 5.31205-10.8967 3.625-15.4063z" opacity=".6" fill="url(#g)" filter="url(#h)" transform="translate(476.47 -1278.123) scale(1.0661)"/>
  <path d="M-408.59202 1203.2206c-1.19529 9.8984-6.90322 12.2285-14.71875 6.0625 2.68365 9.6024-1.70103 13.9245-11.28125 11.2188 6.15403 7.8444 3.76142 13.4898-6.125 14.6562 2.63238 1.4824 4.43874 3.0761 5.46875 4.7188 4.112-4.5364 9.44206-8.0931 15.21875-10.4688.26013-.1164.5187-.2325.78125-.3437.12293-.048.25172-.078.375-.125 4.22043-1.7419 8.71719-2.8253 13.25-2.9375 2.07527-.052 4.57174.1127 7.25.5h.0625c.1668.02.33347.072.5.094 3.46069.4432 6.88209 1.2351 10.0625 2.5938.12559.051.25042.1034.375.1562.0632.028.12451.065.1875.094.31405.1363.63091.2882.9375.4375.11857.059.22589.1272.34375.1875.246.1254.47861.24.71875.375.18763.1027.37688.2053.5625.3125 2.96514-2.4674 6.55556-3.847 10.28125-4.2813h.0625c1.39304-.2535 2.85716-.3611 4.40625-.25.47906-1.6872 1.48033-3.557 3.0625-5.5625-9.60248 2.6838-13.92444-1.7009-11.21875-11.2812-7.84451 6.1541-13.48975 3.7615-14.65625-6.125-4.89224 8.6875-11.04526 8.6558-15.90625-.031z" fill="url(#i)" transform="translate(476.47 -1278.123) scale(1.0661)"/>
  <path d="M-405.52952 1232.0644c-22.45295.5556-48.68582 30.5382-16.5 35.9687 2.25347 3.9031 9.69309 6.5 14.875 6.5 8.44939 0 23.09375-2.75 25.09375-6.5 0 0 34.98746 2.75 42.25 0 10.57262-4.0033 7.28463-16.521.25-20.75-7.03463-4.229-16.25-1.25-16.25-1.25s-.0204-8.6357-9.96875-12.75c-9.94833-4.1142-18.34375 5-18.34375 5-4.20278-4.5736-15.68295-6.3603-21.40625-6.2187z" fill="url(#j)" transform="translate(476.47 -1278.123) scale(1.0661)"/>
  <path d="M-440.68577 1253.0331c-.021.012-.0414.02-.0625.031h.0625c.002-.01-.002-.022 0-.031z" fill="url(#k)" transform="translate(476.47 -1278.123) scale(1.0661)"/>
  <path d="M-434.59202 1267.6581c-.0332.043-.0602.082-.0937.125.0759-.021.14351-.043.21875-.062-.0391-.025-.0862-.038-.125-.062z" fill="url(#l)" transform="translate(476.47 -1278.123) scale(1.0661)"/>
  <path d="M-375.81077 1273.0331l-1.25 22.25 11.25-2.25-8.75 19.5 22-24.25-14-1.75 11.625-12.5c-6.60086 0-11.82304-.5-20.875-1z" fill="url(#m)" transform="translate(476.47 -1278.123) scale(1.0661)"/>
  <path transform="translate(291.272 -141.11)" d="M-263.4375 224.34375c-3.73345 3.638-9.98803 14.75911-3.90625 16.40625 6.08178 1.64714 5.70483-11.59851 3.90625-16.40625zm27.71875 2.78125c-3.73345 3.638-9.95678 14.75911-3.875 16.40625 6.08178 1.64714 5.67358-11.59851 3.875-16.40625zm46.90625 16.78125c-3.73345 3.638-9.92553 14.75911-3.84375 16.40625 6.08178 1.64714 5.64233-11.59851 3.84375-16.40625zM-252 245.3125c-3.73345 3.638-9.98803 14.75911-3.90625 16.40625 6.08178 1.64714 5.70483-11.59851 3.90625-16.40625zm27.21875 2.59375c-3.73345 3.638-9.95678 14.75911-3.875 16.40625 6.08178 1.64714 5.67358-11.59851 3.875-16.40625z" fill="url(#n)"/>
</svg>
