<svg xmlns:osb="http://www.openswatchbook.org/uri/2009/osb" xmlns="http://www.w3.org/2000/svg" xmlns:xlink="http://www.w3.org/1999/xlink" width="128" height="128">
  <defs>
    <linearGradient xlink:href="#a" id="e" x1="-451.81476" y1="1384.2234" x2="-321.96823" y2="1384.2234" gradientUnits="userSpaceOnUse"/>
    <linearGradient id="a" osb:paint="solid">
      <stop offset="0" stop-opacity="0"/>
    </linearGradient>
    <filter color-interpolation-filters="sRGB" id="f" x="-.10242006" width="1.2048401" y="-.10158337" height="1.2031667">
      <feGaussianBlur stdDeviation="4.5966793"/>
    </filter>
    <linearGradient xlink:href="#b" id="g" gradientUnits="userSpaceOnUse" gradientTransform="translate(-460.735 -4284.248)" x1="70.305702" y1="5607.5181" x2="70.305702" y2="5728.5439"/>
    <linearGradient id="b">
      <stop offset="0" stop-color="#feb42f"/>
      <stop offset="1" stop-color="#feb42f"/>
    </linearGradient>
    <linearGradient xlink:href="#c" id="i" gradientUnits="userSpaceOnUse" gradientTransform="translate(-460.735 -4284.248)" x1="70.305702" y1="5607.5181" x2="70.305702" y2="5728.5439"/>
    <linearGradient id="c">
      <stop offset="0" stop-color="#c6c6c6"/>
      <stop offset="1" stop-color="#c6c6c6"/>
    </linearGradient>
    <linearGradient xlink:href="#d" id="j" gradientUnits="userSpaceOnUse" gradientTransform="translate(-305.997 -5695.643) scale(1.0661)" x1="70.305702" y1="5607.5181" x2="70.305702" y2="5728.5439"/>
    <linearGradient id="d">
      <stop offset="0" stop-color="#22a0ef"/>
      <stop offset="1" stop-color="#22a0ef"/>
    </linearGradient>
    <linearGradient y2="5728.5439" x2="70.305702" y1="5607.5181" x1="70.305702" gradientTransform="translate(-460.735 -4284.248)" gradientUnits="userSpaceOnUse" id="h" xlink:href="#c"/>
  </defs>
  <path d="M-408.59202 1329.923c-1.19529 9.8984-6.90322 12.2285-14.71875 6.0625 2.68365 9.6023-1.70103 13.9245-11.28125 11.2188 6.15403 7.8444 3.76142 13.4898-6.125 14.6562 2.62011 1.4755 4.43625 3.0529 5.46875 4.6875 4.05975-4.4485 9.30208-7.9332 14.96875-10.3125.021-.01.0415-.022.0625-.031.0633-.026.12408-.068.1875-.094 4.54498-2.0345 9.45947-3.2838 14.40625-3.4062 2.1956-.054 4.89669.1244 7.75.5625.0637.01.12385.023.1875.031 4.55931.6021 9.02043 1.8478 13.0625 4.0313 2.88184-2.306 6.3695-3.6381 10-4.0938 1.49298-.301 3.07262-.4328 4.75-.3125.47906-1.6873 1.48033-3.557 3.0625-5.5625-9.60248 2.6837-13.92444-1.7009-11.21875-11.2812-7.84451 6.1541-13.48975 3.7614-14.65625-6.125-4.89224 8.6874-11.04526 8.6556-15.90625-.031zm3.0625 28.8438c-22.45295.5556-48.68582 30.5382-16.5 35.9687 2.25347 3.9031 9.69309 6.5 14.875 6.5 8.44939 0 23.09375-2.75 25.09375-6.5 0 0 34.98746 2.75 42.24999 0 10.57262-4.0033 7.28463-16.521.25-20.75-7.03463-4.229-16.24999-1.25-16.24999-1.25s-.0204-8.6357-9.96875-12.75c-9.94833-4.1142-18.34375 5-18.34375 5-4.20278-4.5736-15.68295-6.3603-21.40625-6.2187zm-35.15625 20.9687c-.0209.012-.0414.02-.0625.031h.0625c.002-.01-.002-.021 0-.031zm74.375 21.6563c-3.50193 3.4124-9.36089 13.83-3.65625 15.375 5.70464 1.545 5.3433-10.8654 3.65625-15.375zm-31.28125 8.5c-3.50193 3.4124-9.36089 13.8612-3.65625 15.4062 5.70464 1.545 5.3433-10.8966 3.65625-15.4062zm-22.21875 7.8437c-3.50193 3.4124-9.36089 13.83-3.65625 15.375 5.70464 1.545 5.3433-10.8654 3.65625-15.375zm68.03125 4.8438c-3.50193 3.4124-9.32964 13.83-3.625 15.375 5.70464 1.545 5.31205-10.8654 3.625-15.375zm-28.34375.4062c-3.50193 3.4124-9.36089 13.8613-3.65625 15.4063 5.70464 1.545 5.3433-10.8967 3.65625-15.4063z" opacity=".6" fill="url(#e)" filter="url(#f)" transform="translate(476.47 -1411.736) scale(1.0661)"/>
  <path d="M-408.59202 1329.923c-1.19529 9.8984-6.90322 12.2285-14.71875 6.0625 2.68365 9.6023-1.70103 13.9245-11.28125 11.2188 6.15403 7.8444 3.76142 13.4898-6.125 14.6562 2.62011 1.4755 4.43625 3.0529 5.46875 4.6875 4.05975-4.4485 9.30208-7.9332 14.96875-10.3125.021-.01.0415-.022.0625-.031.0633-.026.12408-.068.1875-.094 4.54498-2.0345 9.45947-3.2838 14.40625-3.4062 2.1956-.054 4.89669.1244 7.75.5625.0637.01.12385.023.1875.031 4.55931.6021 9.02043 1.8478 13.0625 4.0313 2.88184-2.306 6.3695-3.6381 10-4.0938 1.49298-.301 3.07262-.4328 4.75-.3125.47906-1.6873 1.48033-3.557 3.0625-5.5625-9.60248 2.6837-13.92444-1.7009-11.21875-11.2812-7.84451 6.1541-13.48975 3.7614-14.65625-6.125-4.89224 8.6874-11.04526 8.6556-15.90625-.031z" fill="url(#g)" transform="translate(476.47 -1411.736) scale(1.0661)"/>
  <path d="M-405.52952 1358.7668c-22.45295.5556-48.68582 30.5382-16.5 35.9687 2.25347 3.9031 9.69309 6.5 14.875 6.5 8.44939 0 23.09375-2.75 25.09375-6.5 0 0 34.98746 2.75 42.24999 0 10.57262-4.0033 7.28463-16.521.25-20.75-7.03463-4.229-16.24999-1.25-16.24999-1.25s-.0204-8.6357-9.96875-12.75c-9.94833-4.1142-18.34375 5-18.34375 5-4.20278-4.5736-15.68295-6.3603-21.40625-6.2187z" fill="url(#h)" transform="translate(476.47 -1411.736) scale(1.0661)"/>
  <path d="M-440.68577 1379.7355c-.0209.012-.0414.02-.0625.031h.0625c.002-.01-.002-.021 0-.031z" fill="url(#i)" transform="translate(476.47 -1411.736) scale(1.0661)"/>
  <path transform="translate(291.272 -283.58)" d="M-205.34375 365.875c-3.73345 3.638-9.95678 14.75911-3.875 16.40625 6.08178 1.64714 5.67358-11.59851 3.875-16.40625zm-33.34375 9.0625c-3.73345 3.638-9.95678 14.79036-3.875 16.4375 6.08178 1.64714 5.67358-11.62976 3.875-16.4375zm-23.6875 8.375c-3.73345 3.638-9.95678 14.72786-3.875 16.375 6.08178 1.64714 5.67358-11.56726 3.875-16.375zm72.53125 5.15625c-3.73345 3.638-9.95678 14.75911-3.875 16.40625 6.08178 1.64714 5.67358-11.59851 3.875-16.40625zm-30.21875.4375c-3.73345 3.638-9.98803 14.79036-3.90625 16.4375 6.08178 1.64714 5.70483-11.62976 3.90625-16.4375z" fill="url(#j)"/>
</svg>
