<svg xmlns:osb="http://www.openswatchbook.org/uri/2009/osb" xmlns="http://www.w3.org/2000/svg" xmlns:xlink="http://www.w3.org/1999/xlink" width="128" height="128">
  <defs>
    <linearGradient xlink:href="#a" id="d" x1="-776.67316" y1="913.87756" x2="-647.30078" y2="913.87756" gradientUnits="userSpaceOnUse"/>
    <linearGradient id="a" osb:paint="solid">
      <stop offset="0" stop-opacity="0"/>
    </linearGradient>
    <filter id="e" x="-.10462177" width="1.2092435" y="-.12097665" height="1.2419533" color-interpolation-filters="sRGB">
      <feGaussianBlur stdDeviation="4.6110333"/>
    </filter>
    <linearGradient xlink:href="#b" id="f" gradientUnits="userSpaceOnUse" x1="57.982758" y1="-.20815283" x2="57.982758" y2="120.03327" gradientTransform="translate(-771.47 854.86)"/>
    <linearGradient id="b">
      <stop offset="0" stop-color="#c6c6c6"/>
      <stop offset="1" stop-color="#c6c6c6"/>
    </linearGradient>
    <linearGradient xlink:href="#c" id="g" gradientUnits="userSpaceOnUse" gradientTransform="translate(-578.642 -142.753) scale(1.06612)" x1="57.982758" y1="-.20815283" x2="57.982758" y2="120.03327"/>
    <linearGradient id="c">
      <stop offset="0" stop-color="#22a0ef"/>
      <stop offset="1" stop-color="#22a0ef"/>
    </linearGradient>
  </defs>
  <path d="M-731.15625 868.13997c-1.0259-.006-2.10431.0466-3.21875.1875-17.79816 2.25-17.25 17.25-17.25 17.25-7.28984 1.2171-13.25 7.46752-13.25 14 0 6.5324 7.61805 12.3188 14 14 3.79621 1 8.78125 0 8.78125 0 2.25347 3.9031 9.66184 6.5 14.84375 6.5 8.44939 0 17.125-2.75 19.125-6.5 0 0 34.98746 2.75 42.25 0 10.57262-4.0034 7.28463-16.52101.25-20.75s-16.25-1.25-16.25-1.25-.0204-8.6045-9.96875-12.71875c-9.94833-4.11424-18.375 4.96875-18.375 4.96875s-5.54894-15.59433-20.9375-15.6875zm-20.21875 51.4375c-3.50193 3.41242-9.36089 13.86125-3.65625 15.40625 5.70464 1.545 5.3433-10.89663 3.65625-15.40625zm52 1c-3.50193 3.41242-9.36089 13.86125-3.65625 15.40625 5.70464 1.545 5.3433-10.89663 3.65625-15.40625zm17.25.25c-3.50193 3.41242-9.36089 13.86125-3.65625 15.40625 5.70464 1.545 5.3433-10.89663 3.65625-15.40625zm-36 2.25c-3.50193 3.4124-9.36089 13.86125-3.65625 15.40625 5.70464 1.545 5.3433-10.89665 3.65625-15.40625zm-19.25 6.5c-3.50193 3.4124-9.36089 13.86125-3.65625 15.40625 5.70464 1.545 5.3433-10.89665 3.65625-15.40625zm62.5 7c-3.50193 3.4124-9.36089 13.86125-3.65625 15.40625 5.70464 1.545 5.3433-10.89665 3.65625-15.40625zm-35.25.5c-3.50193 3.4124-9.36089 13.86125-3.65625 15.40625 5.70464 1.545 5.3433-10.89665 3.65625-15.40625zm16.5 5c-3.50193 3.4124-9.36089 13.86125-3.65625 15.40625 5.70464 1.545 5.3433-10.89665 3.65625-15.40625zm-33.5 1.5c-3.50193 3.4124-9.36089 13.86125-3.65625 15.40625 5.70464 1.545 5.3433-10.89665 3.65625-15.40625zm-24 .5c-3.50193 3.4124-9.36089 13.86125-3.65625 15.40625 5.70464 1.545 5.3433-10.89665 3.65625-15.40625z" opacity=".6" fill="url(#d)" filter="url(#e)" transform="translate(823.06 -910.3) scale(1.06612)"/>
  <path d="M-731.15625 868.13997c-1.0259-.006-2.10431.0466-3.21875.1875-17.79816 2.25-17.25 17.25-17.25 17.25-7.28984 1.2171-13.25 7.46752-13.25 14 0 6.5324 7.61805 12.3188 14 14 3.79621 1 8.78125 0 8.78125 0 2.25347 3.9031 9.66184 6.5 14.84375 6.5 8.44939 0 17.125-2.75 19.125-6.5 0 0 34.98746 2.75 42.25 0 10.57262-4.0034 7.28463-16.52101.25-20.75s-16.25-1.25-16.25-1.25-.0204-8.6045-9.96875-12.71875c-9.94833-4.11424-18.375 4.96875-18.375 4.96875s-5.54894-15.59433-20.9375-15.6875z" fill="url(#f)" transform="translate(823.06 -910.3) scale(1.06612)"/>
  <path transform="translate(579.227 143.832)" d="M-557.21875-73.75c-3.73347 3.638039-9.98806 14.759099-3.90625 16.40625 6.08181 1.647151 5.70484-11.598467 3.90625-16.40625zm55.4375 1.0625c-3.73347 3.638039-9.98806 14.790349-3.90625 16.4375 6.08181 1.647151 5.70484-11.629717 3.90625-16.4375zm18.375.25c-3.73347 3.638039-9.95681 14.790349-3.875 16.4375 6.08181 1.647151 5.67359-11.629717 3.875-16.4375zm-38.375 2.40625c-3.73347 3.638018-9.95681 14.790349-3.875 16.4375 6.08181 1.647151 5.67359-11.629739 3.875-16.4375zm-20.5 6.9375c-3.73347 3.638018-9.98806 14.790349-3.90625 16.4375 6.08181 1.647151 5.70484-11.629739 3.90625-16.4375zm66.625 7.46875c-3.73347 3.638018-9.98806 14.759099-3.90625 16.40625 6.08181 1.647151 5.70484-11.598489 3.90625-16.40625zm-37.59375.53125c-3.73347 3.638018-9.95681 14.759099-3.875 16.40625 6.08181 1.647151 5.67359-11.598489 3.875-16.40625zm17.59375 5.3125c-3.73347 3.638018-9.98806 14.790349-3.90625 16.4375 6.08181 1.647151 5.70484-11.629739 3.90625-16.4375zm-35.71875 1.625c-3.73347 3.638018-9.95681 14.759099-3.875 16.40625 6.08181 1.647151 5.67359-11.598489 3.875-16.40625zm-25.5625.53125c-3.73347 3.638018-9.98806 14.759099-3.90625 16.40625 6.08181 1.647151 5.70484-11.598489 3.90625-16.40625z" fill="url(#g)"/>
</svg>
