<svg xmlns:osb="http://www.openswatchbook.org/uri/2009/osb" xmlns="http://www.w3.org/2000/svg" xmlns:xlink="http://www.w3.org/1999/xlink" width="128" height="128">
  <defs>
    <linearGradient xlink:href="#a" id="e" x1="-606.32941" y1="913.87756" x2="-476.957" y2="913.87756" gradientUnits="userSpaceOnUse"/>
    <linearGradient id="a" osb:paint="solid">
      <stop offset="0" stop-opacity="0"/>
    </linearGradient>
    <filter id="f" x="-.10462177" width="1.2092435" y="-.11503117" height="1.2300622" color-interpolation-filters="sRGB">
      <feGaussianBlur stdDeviation="4.6110333"/>
    </filter>
    <linearGradient xlink:href="#b" id="g" x1="53.5" y1="-e-8" x2="53.5" y2="120.50934" gradientUnits="userSpaceOnUse" gradientTransform="translate(-601.656 852.558)"/>
    <linearGradient id="b">
      <stop offset="0" stop-color="#c6c6c6"/>
      <stop offset="1" stop-color="#c6c6c6"/>
    </linearGradient>
    <linearGradient xlink:href="#c" id="h" gradientUnits="userSpaceOnUse" gradientTransform="translate(-435.23 -145.206) scale(1.06612)" x1="53.5" y1="-e-8" x2="53.5" y2="120.50934"/>
    <linearGradient id="c">
      <stop offset="0" stop-color="#22a0ef"/>
      <stop offset="1" stop-color="#22a0ef"/>
    </linearGradient>
    <linearGradient xlink:href="#d" id="i" gradientUnits="userSpaceOnUse" gradientTransform="translate(-435.23 -145.206) scale(1.06612)" x1="53.5" y1="-e-8" x2="53.5" y2="120.50934"/>
    <linearGradient id="d">
      <stop offset="0" stop-color="#fff"/>
      <stop offset="1" stop-color="#fff"/>
    </linearGradient>
  </defs>
  <path d="M-560.8125 865.77661c-1.0259-.01-2.10431.047-3.21875.1875-17.79816 2.25-17.25 17.25-17.25 17.25-7.28984 1.2171-13.25 7.4675-13.25 14 0 6.5324 7.61805 12.3188 14 14 3.79621 1 8.78125 0 8.78125 0 2.25347 3.9031 9.66184 6.5 14.84375 6.5 8.44939 0 17.125-2.75 19.125-6.5 0 0 34.98746 2.75 42.25 0 10.57262-4.0034 7.28463-16.521.25-20.75-7.03463-4.229-16.25-1.25-16.25-1.25s-.0204-8.60455-9.96875-12.71875c-9.94833-4.1143-18.375 4.96875-18.375 4.96875s-5.54893-15.5943-20.9375-15.6875zm-22.375 50.125c-3.50193 3.4124-9.32964 13.86125-3.625 15.40625 5.70464 1.545 5.31205-10.89656 3.625-15.40625zm60.28125.15625a.81470476.81470476 0 0 0-.0937.0312.81470476.81470476 0 0 0-.625.8125v2.53125l-2.25-1.4375a.8149214.8149214 0 1 0-.875 1.375l3.125 1.96875v4.5625l-3.96875-2.28125-.15625-3.6875a.81470476.81470476 0 0 0-1-.78125.81470476.81470476 0 0 0-.625.84375l.125 2.65625-2.15625-1.25a.81999905.81999905 0 1 0-.84375 1.40625l2.1875 1.25-2.34375 1.21875a.82460194.82460194 0 1 0 .75 1.46875l3.25-1.71875 3.96875 2.28125-3.9375 2.28125-3.2813-1.7187a.81470476.81470476 0 1 0-.75 1.4375l2.34375 1.21875-2.1875 1.28125a.81999905.81999905 0 1 0 .84375 1.40625l2.15625-1.25-.125 2.625a.81470476.81470476 0 1 0 1.625.0937l.15625-3.6875 3.96875-2.28125v4.5625l-3.125 1.96875a.8149003.8149003 0 1 0 .875 1.375l2.25-1.4375v2.5a.81470476.81470476 0 1 0 1.625 0v-2.46875l2.21875 1.40625a.8149003.8149003 0 1 0 .875-1.375L-522 933.27656v-4.5625l3.9375 2.25.15625 3.71875a.81470476.81470476 0 1 0 1.625-.0937l-.125-2.625 2.1875 1.25a.81470476.81470476 0 1 0 .8125-1.40625l-2.1875-1.28125 2.375-1.21875a.81470476.81470476 0 1 0-.75-1.4375l-3.28125 1.6875-3.9375-2.28125 3.9375-2.25 3.28125 1.71875a.82460194.82460194 0 1 0 .75-1.46875l-2.34375-1.21875 2.15625-1.25a.81470476.81470476 0 1 0-.8125-1.40625l-2.1875 1.25.125-2.65625a.81470476.81470476 0 0 0-.9375-.84375.81470476.81470476 0 0 0-.6875.78125l-.15625 3.6875-3.9375 2.28125v-4.5625l3.09375-1.96875a.8149214.8149214 0 1 0-.875-1.375L-522 919.40161v-2.5a.81470476.81470476 0 0 0-.90625-.84375zm-39.8125 6.375a.60915636.60915636 0 0 0-.15625.0312.60915636.60915636 0 0 0-.46875.625v1.875l-1.6875-1.0625a.60915636.60915636 0 1 0-.625 1l2.3125 1.5v3.40625l-2.9375-1.71875-.125-2.75a.60915636.60915636 0 0 0-.71875-.59375.60915636.60915636 0 0 0-.5.65625l.0937 1.96875-1.625-.9375a.61634634.61634634 0 1 0-.625 1.0625l1.625.9375-1.75.90625a.61498063.61498063 0 0 0 .5625 1.09375l2.4375-1.28125 2.96875 1.71875-2.96875 1.6875-2.4375-1.28125a.61498063.61498063 0 1 0-.5625 1.09375l1.75.90625-1.625.9375a.61634634.61634634 0 1 0 .625 1.0625l1.625-.9375-.0937 1.96875a.61017576.61017576 0 1 0 1.21875.0625l.125-2.75 2.9375-1.71875v3.40625l-2.3125 1.5a.60915636.60915636 0 1 0 .625 1l1.6875-1.0625v1.875a.609375.609375 0 0 0 1.21875 0v-1.875l1.6875 1.0625a.60915636.60915636 0 1 0 .625-1l-2.3125-1.5v-3.40625l2.9375 1.71875.125 2.75a.61017576.61017576 0 1 0 1.21875-.0625l-.0937-1.96875 1.625.9375a.61634634.61634634 0 1 0 .625-1.0625l-1.625-.9375 1.75-.90625a.61498063.61498063 0 0 0-.5625-1.09375l-2.4375 1.28125-2.96875-1.71875 2.96875-1.6875 2.4375 1.28125a.61498063.61498063 0 0 0 .5625-1.09375l-1.75-.90625 1.625-.9375a.61634634.61634634 0 1 0-.625-1.0625l-1.625.9375.0937-1.96875a.60915636.60915636 0 0 0-.71875-.65625.60915636.60915636 0 0 0-.5.59375l-.125 2.75-2.9375 1.71875v-3.40625l2.3125-1.5a.60915636.60915636 0 1 0-.625-1l-1.6875 1.0625v-1.875a.60915636.60915636 0 0 0-.59375-.65625zm54.1875 19.53125c-3.50193 3.4124-9.36089 13.86125-3.65625 15.40625 5.70464 1.545 5.3433-10.89655 3.65625-15.40625zm-31.4375 3.21875a.60915636.60915636 0 0 0-.15625.0312.60915636.60915636 0 0 0-.46875.625v1.875l-1.6875-1.0625a.60915636.60915636 0 1 0-.625 1l2.3125 1.5v3.40625l-2.9375-1.71875-.125-2.75a.60915636.60915636 0 0 0-.71875-.59375.60915636.60915636 0 0 0-.5.65625l.0937 1.96875-1.625-.9375a.61634634.61634634 0 1 0-.625 1.0625l1.625.9375-1.75.90625a.61498063.61498063 0 0 0 .5625 1.09375l2.4375-1.28125 2.96875 1.71875-2.96875 1.6875-2.4375-1.28125a.61498063.61498063 0 1 0-.5625 1.09375l1.75.90625-1.625.9375a.61634634.61634634 0 1 0 .625 1.0625l1.625-.9375-.0937 1.96875a.61017576.61017576 0 1 0 1.21875.0625l.125-2.75 2.9375-1.71875v3.40625l-2.3125 1.5a.60915636.60915636 0 1 0 .625 1l1.6875-1.0625v1.875a.609375.609375 0 0 0 1.21875 0v-1.875l1.6875 1.0625a.60915636.60915636 0 1 0 .625-1l-2.3125-1.5v-3.40625l2.9375 1.71875.125 2.75a.61017576.61017576 0 1 0 1.21875-.0625l-.0937-1.96875 1.625.9375a.61634634.61634634 0 1 0 .625-1.0625l-1.625-.9375 1.75-.90625a.61498063.61498063 0 0 0-.5625-1.09375l-2.4375 1.28125-2.96875-1.71875 2.96875-1.6875 2.4375 1.28125a.61498063.61498063 0 0 0 .5625-1.09375l-1.75-.90625 1.625-.9375a.61634634.61634634 0 1 0-.625-1.0625l-1.625.9375.0937-1.96875a.60915636.60915636 0 0 0-.71875-.65625.60915636.60915636 0 0 0-.5.59375l-.125 2.75-2.9375 1.71875v-3.40625l2.3125-1.5a.60915636.60915636 0 1 0-.625-1l-1.6875 1.0625v-1.875a.60915636.60915636 0 0 0-.59375-.65625zm-27.71875.28125c-3.50193 3.4124-9.32964 13.86125-3.625 15.40625 5.70464 1.545 5.31205-10.89665 3.625-15.40625z" opacity=".6" fill="url(#e)" filter="url(#f)" transform="translate(641.455 -910.3) scale(1.06612)"/>
  <path d="M-560.8125 865.77661c-1.0259-.01-2.10431.047-3.21875.1875-17.79816 2.25-17.25 17.25-17.25 17.25-7.28984 1.2171-13.25 7.4675-13.25 14 0 6.5324 7.61805 12.3188 14 14 3.79621 1 8.78125 0 8.78125 0 2.25347 3.9031 9.66184 6.5 14.84375 6.5 8.44939 0 17.125-2.75 19.125-6.5 0 0 34.98746 2.75 42.25 0 10.57262-4.0034 7.28463-16.521.25-20.75-7.03463-4.229-16.25-1.25-16.25-1.25s-.0204-8.60455-9.96875-12.71875c-9.94833-4.1143-18.375 4.96875-18.375 4.96875s-5.54893-15.5943-20.9375-15.6875z" fill="url(#g)" transform="translate(641.455 -910.3) scale(1.06612)"/>
  <path transform="translate(435.25 143.832)" d="M-415.53125-77.6875c-3.73347 3.638018-9.95681 14.790349-3.875 16.4375 6.08181 1.647151 5.67359-11.629643 3.875-16.4375zm79.59375 27.8125c-3.73347 3.638018-9.98806 14.759099-3.90625 16.40625 6.08181 1.647151 5.70484-11.598382 3.90625-16.40625zm-63.09375 3.71875c-3.73347 3.638018-9.92556 14.790349-3.84375 16.4375 6.08181 1.647151 5.64234-11.629739 3.84375-16.4375z" fill="url(#h)"/>
  <path transform="translate(435.25 143.832)" d="M-351.28125-77.5a.8685706.8685706 0 0 0-.0937.03125.8685706.8685706 0 0 0-.65625.875v2.6875l-2.40625-1.53125a.87122512.87122512 0 1 0-.9375 1.46875l3.34375 2.09375V-67l-4.25-2.4375-.15625-3.9375a.8685706.8685706 0 0 0-1.0625-.84375.8685706.8685706 0 0 0-.65625.90625l.125 2.84375-2.3125-1.34375a.87625468.87625468 0 1 0-.90625 1.5l2.34375 1.34375-2.5 1.28125a.88056268.88056268 0 1 0 .8125 1.5625l3.46875-1.8125 4.21875 2.4375-4.1875 2.40625-3.5-1.8125a.8685706.8685706 0 1 0-.8125 1.53125l2.5 1.28125-2.34375 1.375a.87625468.87625468 0 1 0 .90625 1.5l2.3125-1.34375-.125 2.8125a.8685706.8685706 0 1 0 1.71875.09375l.15625-3.9375 4.25-2.40625v4.84375l-3.34375 2.09375a.87122512.87122512 0 0 0 .9375 1.46875l2.40625-1.53125v2.65625a.8685706.8685706 0 1 0 1.71875 0v-2.625l2.375 1.5A.87122512.87122512 0 0 0-347-57.0625l-3.3125-2.09375V-64l4.1875 2.375.1875 3.96875a.8685706.8685706 0 1 0 1.71875-.09375l-.125-2.8125L-342-59.21875a.8685706.8685706 0 1 0 .84375-1.5l-2.3125-1.375 2.53125-1.28125a.8685706.8685706 0 1 0-.8125-1.53125l-3.5 1.78125-4.1875-2.4375 4.1875-2.375 3.5 1.8125a.88056268.88056268 0 1 0 .8125-1.5625l-2.5-1.28125 2.28125-1.34375a.8685706.8685706 0 1 0-.84375-1.5l-2.34375 1.34375.125-2.84375a.8685706.8685706 0 0 0-1-.90625.8685706.8685706 0 0 0-.71875.84375l-.1875 3.9375L-350.3125-67v-4.875L-347-73.96875a.87122512.87122512 0 1 0-.9375-1.46875l-2.375 1.5v-2.65625a.8685706.8685706 0 0 0-.96875-.90625zm-42.5 6.78125a.64943195.64943195 0 0 0-.0937.03125.64943195.64943195 0 0 0-.5.6875v2l-1.8125-1.15625a.64943195.64943195 0 1 0-.65625 1.0625l2.46875 1.625v3.625l-3.15625-1.84375-.125-2.9375a.64943195.64943195 0 0 0-.75-.625.64943195.64943195 0 0 0-.53125.71875l.0937 2.09375-1.75-1a.6570973.6570973 0 1 0-.65625 1.125l1.75 1-1.875.96875a.6556413.6556413 0 0 0 .59375 1.15625l2.59375-1.375 3.15625 1.84375-3.15625 1.8125-2.59375-1.375a.6556413.6556413 0 1 0-.59375 1.15625l1.875.96875-1.75 1a.6570973.6570973 0 1 0 .65625 1.125l1.75-1-.0937 2.125a.65051875.65051875 0 1 0 1.28125.0625l.125-2.9375 3.15625-1.84375V-57l-2.46875 1.625a.64943195.64943195 0 1 0 .65625 1.0625l1.8125-1.125v1.96875a.64966505.64966505 0 0 0 1.28125 0v-1.96875l1.8125 1.125a.64943195.64943195 0 1 0 .65625-1.0625L-393.0937-57v-3.625l3.125 1.84375.15625 2.9375a.65051875.65051875 0 0 0 1.28125-.0625l-.0937-2.125 1.75 1a.6570973.6570973 0 1 0 .65625-1.125l-1.75-1 1.875-.96875a.6556413.6556413 0 0 0-.59375-1.15625l-2.59375 1.375-3.15625-1.84375 3.15625-1.8125 2.59375 1.375a.6556413.6556413 0 0 0 .59375-1.15625l-1.875-.96875 1.75-1a.6570973.6570973 0 0 0-.65625-1.125l-1.75 1 .0937-2.09375a.64943195.64943195 0 0 0-.75-.71875.64943195.64943195 0 0 0-.53125.625l-.15625 2.9375-3.125 1.84375v-3.625l2.46875-1.625a.64943195.64943195 0 1 0-.65625-1.0625L-393.0937-68v-2a.64943195.64943195 0 0 0-.625-.71875.64943195.64943195 0 0 0-.0625 0zm24.3125 24.25a.64943195.64943195 0 0 0-.15625.03125.64943195.64943195 0 0 0-.5.6875v2l-1.8125-1.15625a.64943195.64943195 0 1 0-.65625 1.09375l2.46875 1.59375v3.625l-3.125-1.84375-.15625-2.90625a.64943195.64943195 0 0 0-.75-.65625.64943195.64943195 0 0 0-.53125.71875l.0937 2.09375-1.71875-1a.65921947.65921947 0 1 0-.6875 1.125l1.75 1-1.875.96875a.6556413.6556413 0 0 0 .59375 1.15625l2.59375-1.34375 3.1875 1.8125-3.1875 1.8125-2.59375-1.375a.6556413.6556413 0 1 0-.59375 1.15625l1.875.96875-1.75 1a.67260135.67260135 0 1 0 .6875 1.15625l1.71875-1-.0937 2.09375a.65051875.65051875 0 1 0 1.28125.0625l.15625-2.9375 3.125-1.84375v3.65625l-2.46875 1.59375a.64943195.64943195 0 1 0 .65625 1.0625l1.8125-1.125v2a.64966505.64966505 0 0 0 1.28125 0v-2l1.8125 1.125a.64943195.64943195 0 1 0 .65625-1.0625l-2.46875-1.59375V-36.375l3.15625 1.84375.125 2.9375a.65051875.65051875 0 1 0 1.28125-.0625l-.0937-2.09375 1.75 1a.66475148.66475148 0 1 0 .65625-1.15625l-1.71875-1 1.84375-.96875a.6556413.6556413 0 0 0-.59375-1.15625l-2.59375 1.375-3.15625-1.84375 3.15625-1.78125 2.59375 1.34375a.6556413.6556413 0 0 0 .59375-1.15625l-1.84375-.96875 1.71875-1a.6570973.6570973 0 0 0-.65625-1.125l-1.75 1 .0937-2.09375a.64943195.64943195 0 0 0-.75-.71875.64943195.64943195 0 0 0-.53125.65625l-.125 2.90625-3.15625 1.84375v-3.625l2.46875-1.59375a.64943195.64943195 0 1 0-.65625-1.09375l-1.8125 1.15625v-2a.64943195.64943195 0 0 0-.625-.71875z" fill="url(#i)"/>
</svg>
