<svg xmlns:osb="http://www.openswatchbook.org/uri/2009/osb" xmlns="http://www.w3.org/2000/svg" xmlns:xlink="http://www.w3.org/1999/xlink" width="128" height="128">
  <defs>
    <linearGradient xlink:href="#a" id="d" x1="-606.32941" y1="1506.1128" x2="-476.957" y2="1506.1128" gradientUnits="userSpaceOnUse"/>
    <linearGradient id="a" osb:paint="solid">
      <stop offset="0" stop-opacity="0"/>
    </linearGradient>
    <filter id="e" x="-.10462177" width="1.2092435" y="-.11310329" height="1.2262065" color-interpolation-filters="sRGB">
      <feGaussianBlur stdDeviation="4.6110333"/>
    </filter>
    <linearGradient xlink:href="#b" id="f" gradientUnits="userSpaceOnUse" x1="63.5" y1="-e-8" x2="63.5" y2="119.52615" gradientTransform="translate(-601.125 1443.91)"/>
    <linearGradient id="b">
      <stop offset="0" stop-color="#c6c6c6"/>
      <stop offset="1" stop-color="#c6c6c6"/>
    </linearGradient>
    <linearGradient xlink:href="#c" id="g" gradientUnits="userSpaceOnUse" gradientTransform="translate(-434.664 566.206) scale(1.06612)" x1="63.5" y1="-e-8" x2="63.5" y2="119.52615"/>
    <linearGradient id="c">
      <stop offset="0" stop-color="#fff"/>
      <stop offset="1" stop-color="#fff"/>
    </linearGradient>
    <linearGradient xlink:href="#c" id="h" gradientUnits="userSpaceOnUse" gradientTransform="translate(-434.664 566.206) scale(1.06612)" x1="63.5" y1="-e-8" x2="63.5" y2="119.52615"/>
  </defs>
  <path d="M-560.8125 1457.1919c-1.0259-.01-2.10431.047-3.21875.1875-17.79816 2.25-17.25 17.25-17.25 17.25-7.28984 1.2171-13.25 7.4676-13.25 14s7.61805 12.3188 14 14c3.79621 1 8.78125 0 8.78125 0 2.25347 3.9031 9.66184 6.5 14.84375 6.5 8.44939 0 17.125-2.75 19.125-6.5 0 0 34.98746 2.75 42.25 0 10.57262-4.0034 7.28463-16.521.25-20.75-7.03463-4.229-16.25-1.25-16.25-1.25s-.0204-8.6045-9.96875-12.7187c-9.94833-4.1143-18.375 4.9687-18.375 4.9687s-5.54894-15.5943-20.9375-15.6875zm37.09375 52.7188a.60915636.60915636 0 0 0-.125.031.60915636.60915636 0 0 0-.46875.5938v1.875l-1.65625-1.0625a.61119632.61119632 0 0 0-.65625 1.0312l2.3125 1.4688v3.4062l-2.9375-1.6875-.125-2.75a.60915636.60915636 0 0 0-.75-.5937.60915636.60915636 0 0 0-.46875.625l.0937 2-1.625-.9375a.61634634.61634634 0 1 0-.625 1.0625l1.625.9375-1.75.9062a.60915636.60915636 0 1 0 .5625 1.0625l2.4375-1.25 2.96875 1.6875-2.9375 1.6875-2.46875-1.25a.60915636.60915636 0 1 0-.5625 1.0625l1.78125.9375-1.65625.9375a.60915636.60915636 0 1 0 .625 1.0313l1.625-.9375-.0937 2a.61017576.61017576 0 1 0 1.21875.062l.125-2.7813 2.9375-1.6875v3.4063l-2.3125 1.4687a.61119632.61119632 0 1 0 .65625 1.0313l1.65625-1.0625v1.875a.609375.609375 0 0 0 1.21875 0v-1.875l1.6875 1.0625a.61119632.61119632 0 1 0 .65625-1.0313l-2.34375-1.4687v-3.4375l2.9375 1.7187.125 2.7813a.61017576.61017576 0 1 0 1.21875-.062l-.0937-2 1.625.9375a.60915636.60915636 0 1 0 .625-1.0313l-1.65625-.9375 1.78125-.9375a.60915636.60915636 0 1 0-.5625-1.0625l-2.46875 1.25-2.9375-1.6875 2.96875-1.6875 2.4375 1.25a.60915636.60915636 0 1 0 .5625-1.0625l-1.75-.9062 1.625-.9375a.61634634.61634634 0 1 0-.625-1.0625l-1.625.9375.0937-2a.60915636.60915636 0 0 0-.78125-.625.60915636.60915636 0 0 0-.4375.5937l-.125 2.75-2.9375 1.6875v-3.4062l2.34375-1.4688a.61119632.61119632 0 0 0-.65625-1.0312l-1.6875 1.0625v-1.875a.60915636.60915636 0 0 0-.625-.625zm-62.46875 2.625a.60915636.60915636 0 0 0-.125.031.60915636.60915636 0 0 0-.46875.5938v1.875l-1.6875-1.0625a.60915636.60915636 0 1 0-.625 1.0312l2.3125 1.4688v3.4062l-2.9375-1.6875-.125-2.75a.60915636.60915636 0 0 0-.71875-.5937.60915636.60915636 0 0 0-.5.6562l.0937 1.9688-1.625-.9375a.61634634.61634634 0 1 0-.625 1.0625l1.625.9375-1.75.9062a.61498063.61498063 0 0 0 .5625 1.0938l2.4375-1.2813 2.96875 1.6875-2.96875 1.7188-2.4375-1.2813a.60915636.60915636 0 1 0-.5625 1.0625l1.78125.9375-1.65625.9375a.60915636.60915636 0 1 0 .625 1.0313l1.625-.9375-.0937 2a.61017576.61017576 0 1 0 1.21875.062l.125-2.7813 2.9375-1.6875v3.4063l-2.3125 1.4687a.60915636.60915636 0 1 0 .625 1.0313l1.6875-1.0625v1.875a.609375.609375 0 0 0 1.21875 0v-1.875l1.6875 1.0625a.60915636.60915636 0 1 0 .625-1.0313l-2.3125-1.4687v-3.4375l2.9375 1.7187.125 2.7813a.61017576.61017576 0 1 0 1.21875-.062l-.0937-2 1.625.9375a.60915636.60915636 0 1 0 .625-1.0313l-1.65625-.9375 1.78125-.9375a.60915636.60915636 0 1 0-.5625-1.0625l-2.4375 1.2813-2.96875-1.7188 2.96875-1.6875 2.4375 1.2813a.61498063.61498063 0 0 0 .5625-1.0938l-1.75-.9062 1.625-.9375a.61634634.61634634 0 1 0-.625-1.0625l-1.625.9375.0937-1.9688a.60915636.60915636 0 0 0-.71875-.6562.60915636.60915636 0 0 0-.5.5937l-.125 2.75-2.9375 1.6875v-3.4062l2.3125-1.4688a.60915636.60915636 0 1 0-.625-1.0312l-1.6875 1.0625v-1.875a.60915636.60915636 0 0 0-.625-.625zm71.875 1.9062v2.625c6.68456 0 21.8125-1.1875 21.8125-1.1875s-15.12794-1.4375-21.8125-1.4375zm-62.15625 3.25v2.625c6.68456 0 21.84375-1.1875 21.84375-1.1875s-15.15919-1.4375-21.84375-1.4375zm62.03125 2.125v2.625c6.68456 0 21.8125-1.1875 21.8125-1.1875s-15.12794-1.4375-21.8125-1.4375zm-62.15625 3v2.625c6.68456 0 21.84375-1.1875 21.84375-1.1875s-15.15919-1.4375-21.84375-1.4375zM-553 1532.5357a.81470476.81470476 0 0 0-.71875.8437v2.5l-2.25-1.4375a.8149003.8149003 0 1 0-.875 1.375l3.125 1.9688v4.5937l-3.96875-2.2812-.125-3.6875a.81470476.81470476 0 0 0-.875-.8125.81470476.81470476 0 0 0-.75.875l.0937 2.6562-2.15625-1.25a.81470476.81470476 0 1 0-.8125 1.4063l2.15625 1.25-2.34375 1.2187a.81470476.81470476 0 1 0 .75 1.4375l3.25-1.6875 3.9375 2.25-3.9375 2.2813-3.25-1.6875a.81470476.81470476 0 1 0-.75 1.4375l2.34375 1.2187-2.15625 1.25a.81470476.81470476 0 1 0 .8125 1.4063l2.15625-1.25-.0937 2.6562a.81470476.81470476 0 1 0 1.625.062l.125-3.6875 3.96875-2.2812v4.5937l-3.125 1.9688a.8149003.8149003 0 1 0 .875 1.375l2.25-1.4375v2.5a.81470476.81470476 0 1 0 1.625 0v-2.5l2.25 1.4375a.8149003.8149003 0 1 0 .875-1.375l-3.125-1.9688v-4.5937l3.9375 2.2812.15625 3.6875a.81470476.81470476 0 1 0 1.625-.062l-.0937-2.6562 2.15625 1.25a.81470476.81470476 0 1 0 .8125-1.4063l-2.15625-1.25 2.34375-1.2187a.81470476.81470476 0 1 0-.75-1.4375l-3.28125 1.6875-3.9375-2.25 3.9375-2.2813 3.28125 1.6875a.81470476.81470476 0 1 0 .75-1.4375l-2.34375-1.2187 2.15625-1.25a.81470476.81470476 0 1 0-.8125-1.4063l-2.15625 1.25.0937-2.6562a.81470476.81470476 0 0 0-.875-.875.81470476.81470476 0 0 0-.75.8125l-.15625 3.6875-3.9375 2.2812v-4.5937l3.125-1.9688a.8149003.8149003 0 1 0-.875-1.375l-2.25 1.4375v-2.5a.81470476.81470476 0 0 0-.8125-.8437.81470476.81470476 0 0 0-.0937 0zm13.15625 5.1875v2.9062c6.68456 0 21.84375-1.3125 21.84375-1.3125s-15.15919-1.5937-21.84375-1.5937zm1.5 5.25v2.4062c8.75204 0 28.59375-1.0937 28.59375-1.0937s-19.84171-1.3125-28.59375-1.3125zm-1.5 4.75v2.9062c6.68456 0 21.84375-1.3125 21.84375-1.3125s-15.15919-1.5937-21.84375-1.5937z" opacity=".6" fill="url(#d)" filter="url(#e)" transform="translate(641.455 -1541.692) scale(1.06612)"/>
  <path d="M-560.8125 1457.1919c-1.0259-.01-2.10431.047-3.21875.1875-17.79816 2.25-17.25 17.25-17.25 17.25-7.28984 1.2171-13.25 7.4676-13.25 14s7.61805 12.3188 14 14c3.79621 1 8.78125 0 8.78125 0 2.25347 3.9031 9.66184 6.5 14.84375 6.5 8.44939 0 17.125-2.75 19.125-6.5 0 0 34.98746 2.75 42.25 0 10.57262-4.0034 7.28463-16.521.25-20.75-7.03463-4.229-16.25-1.25-16.25-1.25s-.0204-8.6045-9.96875-12.7187c-9.94833-4.1143-18.375 4.9687-18.375 4.9687s-5.54894-15.5943-20.9375-15.6875z" fill="url(#f)" transform="translate(641.455 -1541.692) scale(1.06612)"/>
  <path transform="translate(435.25 -568.52)" d="M-352.125 636.5625a.64943195.64943195 0 0 0-.15625.0312.64943195.64943195 0 0 0-.5.65625v1.96875l-1.75-1.125a.65438724.65438724 0 0 0-.71875 1.09375l2.46875 1.59375v3.625l-3.125-1.8125-.125-2.9375a.64943195.64943195 0 0 0-.8125-.625.64943195.64943195 0 0 0-.5.65625l.0937 2.15625-1.71875-1a.6570973.6570973 0 1 0-.65625 1.125l1.71875 1-1.875.96875a.64943195.64943195 0 1 0 .625 1.125l2.59375-1.34375 3.15625 1.8125-3.125 1.8125-2.625-1.34375a.64943195.64943195 0 1 0-.625 1.125l1.90625 1-1.75 1a.64943195.64943195 0 1 0 .65625 1.09375l1.71875-1-.0937 2.15625a.65699363.65699363 0 1 0 1.3125.0625l.125-2.96875 3.125-1.8125v3.625l-2.46875 1.59375a.65438724.65438724 0 1 0 .71875 1.09375l1.75-1.15625v2a.65625.65625 0 0 0 1.3125 0v-2l1.78125 1.15625a.65438724.65438724 0 1 0 .71875-1.09375l-2.5-1.59375v-3.65625l3.125 1.84375.125 2.96875a.65699363.65699363 0 1 0 1.3125-.0625l-.0937-2.15625 1.71875 1a.64943195.64943195 0 1 0 .65625-1.09375l-1.75-1 1.90625-1A.64943195.64943195 0 1 0-345.0625 646l-2.65625 1.34375-3.125-1.8125 3.15625-1.8125 2.625 1.34375a.64943195.64943195 0 1 0 .59375-1.125l-1.875-.96875 1.71875-1a.6570973.6570973 0 1 0-.65625-1.125l-1.71875 1 .0937-2.15625a.64943195.64943195 0 0 0-.84375-.65625.64943195.64943195 0 0 0-.46875.625l-.125 2.9375-3.125 1.8125v-3.625l2.5-1.59375a.65438724.65438724 0 0 0-.71875-1.09375l-1.78125 1.125V637.25a.64943195.64943195 0 0 0-.65625-.6875zm-66.6875 2.8125a.64943195.64943195 0 0 0-.0625.0312.64943195.64943195 0 0 0-.5.625v2l-1.78125-1.125a.64943195.64943195 0 1 0-.6875 1.0938l2.46875 1.5625v3.625l-3.125-1.78125-.125-2.9375a.64943195.64943195 0 0 0-.78125-.625.64943195.64943195 0 0 0-.53125.6875l.0937 2.09375-1.71875-1a.65921947.65921947 0 0 0-.6875 1.125l1.75 1-1.875.96875a.66383268.66383268 0 0 0 .59375 1.1875l2.625-1.375 3.15625 1.8125-3.15625 1.8125-2.625-1.375a.64989482.64989482 0 1 0-.59375 1.15625l1.90625 1-1.78125 1a.64943195.64943195 0 1 0 .6875 1.09375l1.71875-1-.0937 2.125a.65699363.65699363 0 1 0 1.3125.0625l.125-2.96875 3.125-1.78125v3.625l-2.46875 1.5625a.64943195.64943195 0 1 0 .6875 1.09375l1.78125-1.125v2a.65625.65625 0 0 0 1.3125 0v-2l1.78125 1.125a.64943195.64943195 0 1 0 .6875-1.09375l-2.46875-1.5625v-3.65625l3.125 1.8125.125 2.96875a.65699363.65699363 0 1 0 1.3125-.0625l-.0937-2.125 1.71875 1a.64943195.64943195 0 1 0 .65625-1.09375l-1.75-1 1.90625-1a.6571794.6571794 0 1 0-.625-1.15625l-2.59375 1.375-3.15625-1.8125 3.15625-1.8125 2.59375 1.375a.67096595.67096595 0 0 0 .625-1.1875l-1.875-.96875 1.71875-1a.6570973.6570973 0 1 0-.65625-1.125l-1.71875 1 .0937-2.09375a.64943195.64943195 0 0 0-.78125-.6875.64943195.64943195 0 0 0-.53125.625l-.125 2.9375-3.125 1.78125v-3.625l2.46875-1.5625a.64943195.64943195 0 1 0-.6875-1.09375l-1.78125 1.125v-2a.64943195.64943195 0 0 0-.6875-.65625.64943195.64943195 0 0 0-.0625 0zm35.46875 21.3125a.8685706.8685706 0 0 0-.78125.90625V664.25l-2.40625-1.53125a.87122512.87122512 0 0 0-.9375 1.46875l3.34375 2.09375v4.90625l-4.21875-2.4375-.15625-3.9375a.8685706.8685706 0 0 0-.90625-.84375.8685706.8685706 0 0 0-.8125.90625l.0937 2.84375-2.28125-1.34375a.8685706.8685706 0 1 0-.875 1.5l2.28125 1.34375-2.5 1.3125a.8685706.8685706 0 1 0 .8125 1.53125l3.46875-1.8125 4.1875 2.40625-4.1875 2.4375-3.46875-1.8125a.8685706.8685706 0 1 0-.8125 1.53125l2.5 1.3125-2.28125 1.3125a.8685706.8685706 0 1 0 .875 1.5l2.28125-1.3125-.0937 2.8125A.8685706.8685706 0 1 0-388.5 680.5l.15625-3.90625 4.21875-2.4375v4.875l-3.34375 2.125a.87122512.87122512 0 1 0 .9375 1.46875l2.40625-1.53125V683.75a.8685706.8685706 0 1 0 1.71875 0v-2.65625L-380 682.625a.87122512.87122512 0 1 0 .9375-1.46875l-3.34375-2.125v-4.875l4.21875 2.4375.15625 3.90625a.87555786.87555786 0 1 0 1.75-.0625l-.125-2.8125 2.3125 1.3125a.8685706.8685706 0 1 0 .875-1.5l-2.3125-1.3125 2.5-1.3125a.8685706.8685706 0 1 0-.8125-1.53125l-3.46875 1.8125-4.21875-2.40625 4.21875-2.4375 3.46875 1.8125a.8685706.8685706 0 1 0 .8125-1.53125l-2.5-1.3125 2.3125-1.34375a.8685706.8685706 0 1 0-.875-1.5l-2.3125 1.34375.125-2.84375a.8685706.8685706 0 0 0-.9375-.90625.8685706.8685706 0 0 0-.8125.84375l-.15625 3.9375-4.21875 2.4375v-4.90625l3.34375-2.09375a.87122512.87122512 0 1 0-.9375-1.46875l-2.40625 1.53125v-2.65625a.8685706.8685706 0 0 0-.84375-.90625.8685706.8685706 0 0 0-.0937 0z" fill="url(#g)"/>
  <path transform="translate(435.25 -568.52)" d="M-342.125 641.40625v2.78125c7.12652 0 23.28125-1.25 23.28125-1.25s-16.15473-1.53125-23.28125-1.53125zm-66.25 3.46875v2.78125c7.12652 0 23.28125-1.25 23.28125-1.25s-16.15473-1.53125-23.28125-1.53125zm66.125 2.25v2.8125c7.12652 0 23.25-1.28125 23.25-1.28125s-16.12348-1.53125-23.25-1.53125zm-66.25 3.21875v2.78125c7.12652 0 23.28125-1.25 23.28125-1.25s-16.15473-1.53125-23.28125-1.53125zm39.15625 15.875v3.09375c7.12652 0 23.3125-1.40625 23.3125-1.40625s-16.18598-1.6875-23.3125-1.6875zm1.625 5.59375v2.5625c9.3307 0 30.46875-1.15625 30.46875-1.15625s-21.13805-1.40625-30.46875-1.40625zm-1.625 5.0625v3.09375c7.12652 0 23.3125-1.375 23.3125-1.375s-16.18598-1.71875-23.3125-1.71875z" fill="url(#h)"/>
</svg>
