<svg xmlns:osb="http://www.openswatchbook.org/uri/2009/osb" xmlns="http://www.w3.org/2000/svg" xmlns:xlink="http://www.w3.org/1999/xlink" width="128" height="128">
  <defs>
    <linearGradient xlink:href="#a" id="e" x1="-296.70697" y1="1384.2233" x2="-166.86043" y2="1384.2233" gradientUnits="userSpaceOnUse"/>
    <linearGradient id="a" osb:paint="solid">
      <stop offset="0" stop-opacity="0"/>
    </linearGradient>
    <filter color-interpolation-filters="sRGB" id="f" x="-.10269684" width="1.2053937" y="-.10370811" height="1.2074162">
      <feGaussianBlur stdDeviation="4.6091019"/>
    </filter>
    <linearGradient xlink:href="#b" id="g" gradientUnits="userSpaceOnUse" gradientTransform="translate(-305.485 -553.83)" x1="70.156853" y1="1878.1285" x2="70.156853" y2="1999.1656"/>
    <linearGradient id="b">
      <stop offset="0" stop-color="#e0d9b5"/>
      <stop offset="1" stop-color="#e0d9b5"/>
    </linearGradient>
    <linearGradient xlink:href="#c" id="i" gradientUnits="userSpaceOnUse" gradientTransform="translate(-305.485 -553.83)" x1="70.156853" y1="1878.1285" x2="70.156853" y2="1999.1656"/>
    <linearGradient id="c">
      <stop offset="0" stop-color="#c6c6c6"/>
      <stop offset="1" stop-color="#c6c6c6"/>
    </linearGradient>
    <linearGradient xlink:href="#d" id="j" gradientUnits="userSpaceOnUse" gradientTransform="translate(-161.868 -1718.602) scale(1.0661)" x1="70.156853" y1="1878.1285" x2="70.156853" y2="1999.1656"/>
    <linearGradient id="d">
      <stop offset="0" stop-color="#22a0ef"/>
      <stop offset="1" stop-color="#22a0ef"/>
    </linearGradient>
    <linearGradient y2="1999.1656" x2="70.156853" y1="1878.1285" x1="70.156853" gradientTransform="translate(-305.485 -553.83)" gradientUnits="userSpaceOnUse" id="h" xlink:href="#c"/>
  </defs>
  <path d="M-237.98424 1330.8917c-19.45065 0-35.65299 13.8838-39.25 32.2813 7.05936-6.3294 16.71494-10.7845 26.6875-11.0313 3.01193-.075 6.74643.2705 10.65625 1.0625 4.01405-8.1116 10.66848-14.6794 18.875-18.5312-5.15307-2.4187-10.89971-3.7813-16.96875-3.7813zm-12.4375 26.9063c-22.45295.5556-48.68582 30.5383-16.5 35.9687 2.25347 3.9031 9.69309 6.5 14.875 6.5 8.44939 0 23.09375-2.75 25.09375-6.5 0 0 34.98746 2.75 42.25 0 10.57262-4.0032 7.28463-16.521.25-20.75-7.03463-4.229-16.25-1.25-16.25-1.25s-.0204-8.6357-9.96875-12.75c-9.94833-4.1142-18.34375 5-18.34375 5-4.20278-4.5736-15.68295-6.3603-21.40625-6.2187zm-35.15625 20.9687c-.021.012-.0414.02-.0625.031h.0625c.002-.01-.002-.022 0-.031zm74.375 21.6563c-3.50193 3.4124-9.36089 13.83-3.65625 15.375 5.70464 1.545 5.3433-10.8654 3.65625-15.375zm-31.28125 8.5c-3.50193 3.4124-9.36089 13.8612-3.65625 15.4062 5.70464 1.545 5.3433-10.8966 3.65625-15.4062zm-22.21875 7.8437c-3.50193 3.4124-9.36089 13.83-3.65625 15.375 5.70464 1.545 5.3433-10.8654 3.65625-15.375zm68.03125 4.8438c-3.50193 3.4124-9.32964 13.83-3.625 15.375 5.70464 1.545 5.31205-10.8654 3.625-15.375zm-28.34375.4062c-3.50193 3.4124-9.36089 13.8613-3.65625 15.4063 5.70464 1.545 5.3433-10.8967 3.65625-15.4063z" opacity=".6" fill="url(#e)" filter="url(#f)" transform="translate(311.107 -1411.736) scale(1.0661)"/>
  <path d="M-237.98424 1330.8917c-19.45065 0-35.65299 13.8838-39.25 32.2813 7.05936-6.3294 16.71494-10.7845 26.6875-11.0313 3.01193-.075 6.74643.2705 10.65625 1.0625 4.01405-8.1116 10.66848-14.6794 18.875-18.5312-5.15307-2.4187-10.89971-3.7813-16.96875-3.7813z" fill="url(#g)" transform="translate(311.107 -1411.736) scale(1.0661)"/>
  <path d="M-250.42174 1357.798c-22.45295.5556-48.68582 30.5383-16.5 35.9687 2.25347 3.9031 9.69309 6.5 14.875 6.5 8.44939 0 23.09375-2.75 25.09375-6.5 0 0 34.98746 2.75 42.25 0 10.57262-4.0032 7.28463-16.521.25-20.75-7.03463-4.229-16.25-1.25-16.25-1.25s-.0204-8.6357-9.96875-12.75c-9.94833-4.1142-18.34375 5-18.34375 5-4.20278-4.5736-15.68295-6.3603-21.40625-6.2187z" fill="url(#h)" transform="translate(311.107 -1411.736) scale(1.0661)"/>
  <path d="M-285.57799 1378.7667c-.021.012-.0414.02-.0625.031h.0625c.002-.01-.002-.022 0-.031z" fill="url(#i)" transform="translate(311.107 -1411.736) scale(1.0661)"/>
  <path transform="translate(147.294 -283.58)" d="M-61.34375 364.84375c-3.733448 3.638-9.988032 14.75911-3.90625 16.40625 6.081782 1.64714 5.704833-11.59851 3.90625-16.40625zm-33.34375 9.0625c-3.733448 3.638-9.98803 14.79036-3.90625 16.4375 6.081782 1.64714 5.704833-11.62976 3.90625-16.4375zm-23.6875 8.375c-3.73345 3.638-9.98803 14.72786-3.90625 16.375 6.08178 1.64714 5.70483-11.56726 3.90625-16.375zm72.5 5.15625c-3.733448 3.638-9.925532 14.75911-3.84375 16.40625 6.081782 1.64714 5.642333-11.59851 3.84375-16.40625zm-30.21875.4375c-3.733448 3.638-9.956782 14.75911-3.875 16.40625 6.081782 1.64714 5.673583-11.59851 3.875-16.40625z" fill="url(#j)"/>
</svg>
