<svg xmlns:osb="http://www.openswatchbook.org/uri/2009/osb" xmlns="http://www.w3.org/2000/svg" xmlns:xlink="http://www.w3.org/1999/xlink" width="128" height="128">
  <defs>
    <linearGradient xlink:href="#a" id="e" x1="-295.54306" y1="1506.1128" x2="-168.02435" y2="1506.1128" gradientUnits="userSpaceOnUse"/>
    <linearGradient id="a" osb:paint="solid">
      <stop offset="0" stop-opacity="0"/>
    </linearGradient>
    <filter color-interpolation-filters="sRGB" id="f" x="-.10599345" width="1.2119869" y="-.10285375" height="1.2057076">
      <feGaussianBlur stdDeviation="4.593573"/>
    </filter>
    <linearGradient xlink:href="#b" id="g" gradientUnits="userSpaceOnUse" gradientTransform="translate(-299.398 514)" x1="59.396969" y1="932.15405" x2="59.396969" y2="1052.3955"/>
    <linearGradient id="b">
      <stop offset="0" stop-color="#e0d9b5"/>
      <stop offset="1" stop-color="#e0d9b5"/>
    </linearGradient>
    <linearGradient xlink:href="#c" id="h" gradientUnits="userSpaceOnUse" gradientTransform="translate(-299.398 514)" x1="59.396969" y1="932.15405" x2="59.396969" y2="1052.3955"/>
    <linearGradient id="c">
      <stop offset="0" stop-color="#c6c6c6"/>
      <stop offset="1" stop-color="#c6c6c6"/>
    </linearGradient>
    <linearGradient xlink:href="#d" id="i" gradientUnits="userSpaceOnUse" gradientTransform="translate(-155.378 -567.652) scale(1.0661)" x1="59.396969" y1="932.15405" x2="59.396969" y2="1052.3955"/>
    <linearGradient id="d">
      <stop offset="0" stop-color="#fff"/>
      <stop offset="1" stop-color="#fff"/>
    </linearGradient>
  </defs>
  <path d="M-239.8351 1452.5193c-19.45065 0-35.65299 13.8837-39.25 32.2812 7.05936-6.3294 16.71494-10.7844 26.6875-11.0312 3.01193-.075 6.74643.2705 10.65625 1.0625 4.01405-8.1116 10.66848-14.6795 18.875-18.5313-5.15307-2.4187-10.89971-3.7812-16.96875-3.7812zm-12.4375 26.9062c-22.45295.5556-48.68582 30.5384-16.5 35.9688 2.25347 3.9031 9.69309 6.5 14.875 6.5 8.44939 0 23.09375-2.75 25.09375-6.5 0 0 34.98746 2.75 42.25 0 10.57262-4.0032 7.28463-16.521.25-20.75-7.03463-4.229-16.25-1.25-16.25-1.25s-.0204-8.6357-9.96875-12.75c-9.94833-4.1142-18.34375 5-18.34375 5-4.20278-4.5736-15.68295-6.3604-21.40625-6.2188zm40 47.0625a.81470476.81470476 0 0 0-.0625.031.81470476.81470476 0 0 0-.71875.8125v3.9375l-3.46875-2.2188a.8149003.8149003 0 1 0-.875 1.375l4.34375 2.7813v6.5312l-5.65625-3.2812-.1875-5a1.106121 1.106121 0 0 0-1.0625-1.0938 1.106121 1.106121 0 0 0-1.15625 1.1875l.15625 3.5938-2.9375-1.6875a1.1067525 1.1067525 0 0 0-1.125 1.9062l2.96875 1.7188-3.21875 1.6562a1.106121 1.106121 0 1 0 1.03125 1.9375l4.4375-2.3125 5.375 3.0938-5.375 3.0937-4.4375-2.3125a1.1112662 1.1112662 0 1 0-1.03125 1.9688l3.1875 1.6562-2.9375 1.6875a1.1202155 1.1202155 0 1 0 1.125 1.9375l2.9375-1.6875-.15625 3.5625a1.1111342 1.1111342 0 1 0 2.21875.125l.1875-5 5.375-3.0937v6.1562l-4.21875 2.6875a1.1097051 1.1097051 0 1 0 1.1875 1.875l3.03125-1.9375v3.4063a1.109375 1.109375 0 0 0 2.21875 0v-3.4063l3.03125 1.9375a1.1097051 1.1097051 0 1 0 1.1875-1.875l-4.21875-2.6562v-6.2188l5.34375 3.0938.21875 5a1.106121 1.106121 0 1 0 2.1875-.094l-.125-3.5937 2.9375 1.7187a1.1124517 1.1124517 0 1 0 1.09375-1.9375l-2.9375-1.6875 3.1875-1.6562a1.1112662 1.1112662 0 1 0-1.03125-1.9688l-4.4375 2.3125-5.34375-3.0937 5.375-3.0938 4.40625 2.3125a1.106121 1.106121 0 1 0 1.03125-1.9375l-3.1875-1.6562 2.9375-1.7188a1.106121 1.106121 0 1 0-1.09375-1.9062l-2.9375 1.6875.15625-3.5938a1.106121 1.106121 0 0 0-1.09375-1.1875 1.106121 1.106121 0 0 0-1.125 1.0938l-.21875 5.0312-5.65625 3.25v-6.5312l4.375-2.7813a.8149003.8149003 0 1 0-.875-1.375l-3.5 2.2188v-3.9375a.81470476.81470476 0 0 0-.84375-.8438zm-39.125 10.75a.81470476.81470476 0 0 0-.65625.8438v2.4687l-2.21875-1.4062a.8149003.8149003 0 1 0-.875 1.375l3.09375 1.9687v4.5938l-3.9375-2.2813-.15625-3.6875a.81470476.81470476 0 0 0-.875-.8125.81470476.81470476 0 0 0-.75.875l.125 2.6563-2.1875-1.25a.81470476.81470476 0 1 0-.8125 1.4062l2.15625 1.25-2.34375 1.2188a.81470476.81470476 0 1 0 .75 1.4375l3.28125-1.6875 3.9375 2.25-3.9375 2.2812-3.28125-1.6875a.81470476.81470476 0 1 0-.75 1.4375l2.34375 1.2188-2.15625 1.25a.81470476.81470476 0 1 0 .8125 1.4062l2.1875-1.25-.125 2.6563a.81470476.81470476 0 1 0 1.625.031l.15625-3.6875 3.9375-2.2812v4.5937l-3.09375 1.9688a.8149003.8149003 0 1 0 .875 1.375l2.21875-1.4063v2.4688a.81470476.81470476 0 1 0 1.625 0v-2.5l2.25 1.4375a.8149003.8149003 0 1 0 .875-1.375l-3.125-1.9688v-4.5937l3.96875 2.2812.15625 3.6875a.81470476.81470476 0 1 0 1.625-.031l-.125-2.6563 2.15625 1.25a.81470476.81470476 0 1 0 .8125-1.4062l-2.15625-1.25 2.34375-1.2188a.81470476.81470476 0 1 0-.75-1.4375l-3.25 1.6875-3.96875-2.25 3.96875-2.2812 3.25 1.6875a.81470476.81470476 0 1 0 .75-1.4375l-2.34375-1.2188 2.15625-1.25a.81470476.81470476 0 1 0-.8125-1.4062l-2.15625 1.25.125-2.6563a.81470476.81470476 0 0 0-.875-.875.81470476.81470476 0 0 0-.75.8125l-.15625 3.6875-3.96875 2.2813v-4.5938l3.125-1.9687a.8149003.8149003 0 1 0-.875-1.375l-2.25 1.4375v-2.5a.81470476.81470476 0 0 0-.8125-.8438.81470476.81470476 0 0 0-.15625 0z" opacity=".6" fill="url(#e)" filter="url(#f)" transform="translate(311.107 -1541.684) scale(1.0661)"/>
  <path d="M-239.8351 1452.5193c-19.45065 0-35.65299 13.8837-39.25 32.2812 7.05936-6.3294 16.71494-10.7844 26.6875-11.0312 3.01193-.075 6.74643.2705 10.65625 1.0625 4.01405-8.1116 10.66848-14.6795 18.875-18.5313-5.15307-2.4187-10.89971-3.7812-16.96875-3.7812z" fill="url(#g)" transform="translate(311.107 -1541.684) scale(1.0661)"/>
  <path d="M-252.2726 1479.4255c-22.45295.5556-48.68582 30.5384-16.5 35.9688 2.25347 3.9031 9.69309 6.5 14.875 6.5 8.44939 0 23.09375-2.75 25.09375-6.5 0 0 34.98746 2.75 42.25 0 10.57262-4.0032 7.28463-16.521.25-20.75-7.03463-4.229-16.25-1.25-16.25-1.25s-.0204-8.6357-9.96875-12.75c-9.94833-4.1142-18.34375 5-18.34375 5-4.20278-4.5736-15.68295-6.3604-21.40625-6.2188z" fill="url(#h)" transform="translate(311.107 -1541.684) scale(1.0661)"/>
  <path transform="translate(147.294 -426.05)" d="M-62.5 511.78125a.8685661.8685661 0 0 0-.0625.0312.8685661.8685661 0 0 0-.75.84375v4.21875l-3.71875-2.375a.87122512.87122512 0 1 0-.9375 1.46875l4.65625 2.96875v6.96875l-6.03125-3.5-.21875-5.34375a1.1792483 1.1792483 0 0 0-1.125-1.15625 1.1792483 1.1792483 0 0 0-1.21875 1.25L-71.75 521l-3.125-1.8125a1.1844121 1.1844121 0 0 0-1.21875 2.03125l3.1875 1.84375-3.4375 1.78125a1.1792483 1.1792483 0 1 0 1.09375 2.0625l4.71875-2.46875 5.75 3.28125-5.75 3.3125-4.71875-2.46875a1.1847337 1.1847337 0 1 0-1.09375 2.09375l3.375 1.78125-3.125 1.78125a1.1978374 1.1978374 0 0 0 1.21875 2.0625L-71.75 534.5l-.15625 3.78125a1.1845929 1.1845929 0 1 0 2.34375.15625l.21875-5.34375 5.71875-3.3125v6.5625l-4.5 2.875a1.1876028 1.1876028 0 1 0 1.28125 2l3.21875-2.0625v3.625a1.1875 1.1875 0 0 0 2.375 0v-3.625l3.21875 2.0625a1.1876028 1.1876028 0 1 0 1.28125-2l-4.5-2.8125V529.75l5.6875 3.3125.21875 5.34375a1.1792483 1.1792483 0 1 0 2.34375-.125l-.125-3.8125 3.125 1.8125a1.1859976 1.1859976 0 1 0 1.15625-2.0625l-3.125-1.78125 3.40625-1.78125a1.1847337 1.1847337 0 1 0-1.09375-2.09375l-4.75 2.46875-5.6875-3.3125 5.71875-3.28125 4.71875 2.46875a1.1792483 1.1792483 0 1 0 1.09375-2.0625l-3.40625-1.78125 3.125-1.84375A1.1792483 1.1792483 0 1 0-50 519.1875L-53.125 521l.15625-3.84375a1.1792483 1.1792483 0 0 0-1.15625-1.25 1.1792483 1.1792483 0 0 0-1.21875 1.15625l-.21875 5.375-6.03125 3.46875v-6.96875l4.65625-2.96875A.87122512.87122512 0 1 0-57.875 514.5l-3.71875 2.375v-4.21875a.8685661.8685661 0 0 0-.90625-.875zm-41.71875 11.4375a.8685661.8685661 0 0 0-.6875.90625v2.625l-2.375-1.5a.86877458.86877458 0 1 0-.90625 1.46875l3.28125 2.125v4.875l-4.1875-2.4375-.1875-3.90625a.8685661.8685661 0 0 0-.90625-.875.8685661.8685661 0 0 0-.8125.9375l.125 2.8125-2.3125-1.3125a.8685661.8685661 0 1 0-.875 1.5l2.28125 1.3125-2.5 1.3125a.8685661.8685661 0 1 0 .8125 1.53125l3.5-1.8125 4.1875 2.40625-4.1875 2.4375-3.5-1.8125a.8685661.8685661 0 1 0-.8125 1.53125l2.5 1.3125L-114.0625 540a.8685661.8685661 0 1 0 .875 1.5l2.3125-1.34375L-111 543a.8685661.8685661 0 1 0 1.71875.0312l.1875-3.9375 4.1875-2.4375v4.90625l-3.28125 2.09375a.86877458.86877458 0 0 0 .90625 1.46875l2.375-1.5v2.625a.8685661.8685661 0 1 0 1.71875 0v-2.65625l2.40625 1.53125a.87122512.87122512 0 0 0 .9375-1.46875l-3.34375-2.09375v-4.90625l4.25 2.4375.15625 3.9375a.8751395.8751395 0 1 0 1.75-.0312l-.15625-2.84375L-94.875 541.5A.8685661.8685661 0 1 0-94 540l-2.3125-1.34375 2.5-1.3125a.8685661.8685661 0 1 0-.8125-1.53125l-3.4375 1.8125-4.25-2.40625 4.25-2.4375 3.4375 1.8125a.8685661.8685661 0 1 0 .8125-1.53125l-2.5-1.3125L-94 530.4375a.8685661.8685661 0 1 0-.875-1.5l-2.3125 1.3125.15625-2.8125a.8685661.8685661 0 0 0-.9375-.9375.8685661.8685661 0 0 0-.8125.875l-.15625 3.90625-4.25 2.4375v-4.875l3.34375-2.125a.87122512.87122512 0 1 0-.9375-1.46875l-2.40625 1.5625v-2.6875a.8685661.8685661 0 0 0-.84375-.90625.8685661.8685661 0 0 0-.1875 0z" fill="url(#i)"/>
</svg>
