<svg xmlns:osb="http://www.openswatchbook.org/uri/2009/osb" xmlns="http://www.w3.org/2000/svg" xmlns:xlink="http://www.w3.org/1999/xlink" width="128" height="128">
  <defs>
    <linearGradient xlink:href="#a" id="g" gradientUnits="userSpaceOnUse" x1="-296.70697" y1="1258.896" x2="-166.86043" y2="1258.896"/>
    <linearGradient id="a" osb:paint="solid">
      <stop offset="0" stop-opacity="0"/>
    </linearGradient>
    <filter color-interpolation-filters="sRGB" id="h" x="-.10295272" width="1.2059054" y="-.10106475" height="1.2021295">
      <feGaussianBlur stdDeviation="4.6205858"/>
    </filter>
    <linearGradient xlink:href="#b" id="i" gradientUnits="userSpaceOnUse" gradientTransform="translate(-305.5 -1613.04)" x1="69.325851" y1="2810.0637" x2="69.325851" y2="2931.575"/>
    <linearGradient id="b">
      <stop offset="0" stop-color="#e0d9b5"/>
      <stop offset="1" stop-color="#e0d9b5"/>
    </linearGradient>
    <linearGradient xlink:href="#c" id="j" gradientUnits="userSpaceOnUse" gradientTransform="translate(-305.5 -1613.04)" x1="69.325851" y1="2810.0637" x2="69.325851" y2="2931.575"/>
    <linearGradient id="c">
      <stop offset="0" stop-color="#787878"/>
      <stop offset="1" stop-color="#787878"/>
    </linearGradient>
    <linearGradient xlink:href="#d" id="k" gradientUnits="userSpaceOnUse" gradientTransform="translate(-305.5 -1613.04)" x1="69.325851" y1="2810.0637" x2="69.325851" y2="2931.575"/>
    <linearGradient id="d">
      <stop offset="0" stop-color="#c6c6c6"/>
      <stop offset="1" stop-color="#c6c6c6"/>
    </linearGradient>
    <linearGradient xlink:href="#e" id="l" gradientUnits="userSpaceOnUse" gradientTransform="translate(-305.5 -1613.04)" x1="69.325851" y1="2810.0637" x2="69.325851" y2="2931.575"/>
    <linearGradient id="e">
      <stop offset="0" stop-color="#ffea31"/>
      <stop offset="1" stop-color="#ffea31"/>
    </linearGradient>
    <linearGradient xlink:href="#f" id="m" gradientUnits="userSpaceOnUse" gradientTransform="translate(-161.884 -2856.695) scale(1.0661)" x1="69.325851" y1="2810.0637" x2="69.325851" y2="2931.575"/>
    <linearGradient id="f">
      <stop offset="0" stop-color="#22a0ef"/>
      <stop offset="1" stop-color="#22a0ef"/>
    </linearGradient>
  </defs>
  <path d="M-237.98424 1204.0331c-19.45066 0-35.653 13.8837-39.25 32.2812 7.05936-6.3293 16.71493-10.7844 26.6875-11.0312 3.01192-.074 6.74642.2705 10.65625 1.0625 4.01404-8.1116 10.66847-14.6794 18.875-18.5313-5.15307-2.4186-10.89971-3.7812-16.96875-3.7812zm-12.4375 26.9062c-22.45295.5556-48.68582 30.5383-16.5 35.9688 2.25347 3.9031 9.69309 6.5 14.875 6.5 8.44939 0 23.09375-2.75 25.09375-6.5 0 0 34.98746 2.75 42.25 0 10.57262-4.0033 7.28463-16.521.25-20.75-7.03463-4.229-16.25-1.25-16.25-1.25s-.0204-8.6357-9.96875-12.75c-9.94833-4.1142-18.34375 5-18.34375 5-4.20278-4.5736-15.68295-6.3604-21.40625-6.2188zm-35.15625 20.9688c-.021.012-.0414.02-.0625.031h.0625c.002-.01-.002-.021 0-.031zm65.625 20.3125l-1.25 22.25 11.25-2.25-8.75 19.5 22-24.25-14-1.75 11.625-12.5c-6.60086 0-11.82304-.5-20.875-1zm-45.5 6.9063c-3.50193 3.4124-9.36089 13.83-3.65625 15.375 5.70464 1.545 5.3433-10.8654 3.65625-15.375zm25.5 3.5937c-3.50193 3.4124-9.32964 13.8613-3.625 15.4063 5.70464 1.545 5.31205-10.8967 3.625-15.4063zm45 11.75c-3.50193 3.4124-9.32964 13.8613-3.625 15.4063 5.70465 1.545 5.31206-10.8967 3.625-15.4063zm-59.28125 1.3125c-3.50193 3.4124-9.36089 13.8613-3.65625 15.4063 5.70464 1.545 5.3433-10.8967 3.65625-15.4063zm25.53125 2.4375c-3.50193 3.4124-9.32964 13.8613-3.625 15.4063 5.70464 1.545 5.31205-10.8967 3.625-15.4063z" opacity=".6" fill="url(#g)" filter="url(#h)" transform="translate(311.107 -1278.123) scale(1.0661)"/>
  <path d="M-237.98424 1204.0331c-19.45066 0-35.653 13.8837-39.25 32.2812 7.05936-6.3293 16.71493-10.7844 26.6875-11.0312 3.01192-.074 6.74642.2705 10.65625 1.0625 4.01404-8.1116 10.66847-14.6794 18.875-18.5313-5.15307-2.4186-10.89971-3.7812-16.96875-3.7812z" fill="url(#i)" transform="translate(311.107 -1278.123) scale(1.0661)"/>
  <path d="M-250.42174 1230.9393c-22.45295.5556-48.68582 30.5383-16.5 35.9688 2.25347 3.9031 9.69309 6.5 14.875 6.5 8.44939 0 23.09375-2.75 25.09375-6.5 0 0 34.98746 2.75 42.25 0 10.57262-4.0033 7.28463-16.521.25-20.75-7.03463-4.229-16.25-1.25-16.25-1.25s-.0204-8.6357-9.96875-12.75c-9.94833-4.1142-18.34375 5-18.34375 5-4.20278-4.5736-15.68295-6.3604-21.40625-6.2188z" fill="url(#j)" transform="translate(311.107 -1278.123) scale(1.0661)"/>
  <path d="M-285.57799 1251.9081c-.021.012-.0414.02-.0625.031h.0625c.002-.01-.002-.021 0-.031z" fill="url(#k)" transform="translate(311.107 -1278.123) scale(1.0661)"/>
  <path d="M-219.95299 1272.2206l-1.25 22.25 11.25-2.25-8.75 19.5 22-24.25-14-1.75 11.625-12.5c-6.60086 0-11.82304-.5-20.875-1z" fill="url(#l)" transform="translate(311.107 -1278.123) scale(1.0661)"/>
  <path transform="translate(147.294 -141.11)" d="M-119.1875 226.6875c-3.73345 3.638-9.98803 14.72786-3.90625 16.375 6.08178 1.64714 5.70483-11.56726 3.90625-16.375zM-92 230.5c-3.733448 3.638-9.95678 14.79036-3.875 16.4375 6.081782 1.64714 5.673583-11.62976 3.875-16.4375zm47.96875 12.53125c-3.733448 3.638-9.956782 14.79036-3.875 16.4375 6.081793 1.64714 5.673594-11.62976 3.875-16.4375zm-63.1875 1.40625c-3.73345 3.638-9.98803 14.75911-3.90625 16.40625 6.08178 1.64714 5.70483-11.59851 3.90625-16.40625zM-80 247.03125c-3.733448 3.638-9.956782 14.79036-3.875 16.4375 6.081782 1.64714 5.673583-11.62976 3.875-16.4375z" fill="url(#m)"/>
</svg>
