<?xml version="1.0" encoding="iso-8859-1"?>
<!-- Generator: Adobe Illustrator 19.0.0, SVG Export Plug-In . SVG Version: 6.00 Build 0)  -->
<svg version="1.1" id="Layer_1" xmlns="http://www.w3.org/2000/svg" xmlns:xlink="http://www.w3.org/1999/xlink" x="0px" y="0px"
	 viewBox="0 0 512 512" style="enable-background:new 0 0 512 512;" xml:space="preserve">
<path style="fill:#FED766;" d="M512,255.999L512,255.999c0,24.588-19.933,44.522-44.522,44.522h-16.103
	C431.128,389.74,351.346,456.347,256,456.347S80.872,389.741,60.625,300.522H44.522C19.933,300.522,0,280.588,0,256l0,0
	c0-24.588,19.933-44.522,44.522-44.522h16.104C80.872,122.258,160.653,55.652,256,55.652s175.128,66.607,195.375,155.826h16.104
	C492.066,211.478,512,231.411,512,255.999z"/>
<path style="fill:#E8BA52;" d="M0,256h512c0,24.588-19.933,44.522-44.522,44.522h-16.103
	C431.128,389.741,351.346,456.348,256,456.348S80.872,389.741,60.625,300.522H44.522C19.933,300.522,0,280.588,0,256z"/>
<path style="fill:#DCF3F9;" d="M368.068,206.638c6.66,15.101,10.367,31.797,10.367,49.362c0,67.619-54.816,122.435-122.435,122.435
	S133.565,323.618,133.565,256S188.381,133.565,256,133.565c17.565,0,34.261,3.706,49.361,10.367
	c7.73-6.469,17.684-10.367,28.552-10.367c24.588,0,44.522,19.933,44.522,44.522C378.435,188.954,374.536,198.909,368.068,206.638z"
	/>
<path style="fill:#84A7B7;" d="M368.068,206.638c6.66,15.101,10.367,31.797,10.367,49.362c0,67.619-54.816,122.435-122.435,122.435
	S133.565,323.618,133.565,256S188.381,133.565,256,133.565c17.565,0,34.261,3.706,49.361,10.367
	c-9.759,8.166-15.97,20.433-15.97,34.155c0,24.588,19.933,44.522,44.522,44.522C347.634,222.609,359.9,216.397,368.068,206.638z"/>
<path style="fill:#FFFFFF;" d="M331.13,256c0,41.427-33.703,75.13-75.13,75.13s-75.13-33.703-75.13-75.13
	c0-23.929,11.006-45.876,30.196-60.217c3.694-2.759,8.925-2.002,11.685,1.69c2.759,3.693,2.003,8.924-1.69,11.685
	c-14.931,11.156-23.495,28.23-23.495,46.842c0,32.222,26.213,58.435,58.435,58.435s58.435-26.213,58.435-58.435l-0.006-0.147
	c-0.007-0.186-0.012-0.372-0.014-0.56c-0.056-4.61,3.636-8.392,8.247-8.448c0.033,0,0.069,0,0.102,0c4.563,0,8.29,3.671,8.346,8.248
	l0.006,0.164C331.124,255.504,331.13,255.75,331.13,256z M254.229,197.587c0.073,0,0.147-0.001,0.22-0.002
	c0.514-0.013,1.031-0.02,1.532-0.02l0.165,0.006c0.186,0.007,0.372,0.012,0.56,0.014c0.035,0,0.068,0,0.102,0
	c4.557,0,8.268-3.663,8.331-8.232c0.063-4.605-3.627-8.391-8.231-8.462l-0.166-0.006c-0.904-0.031-1.82-0.013-2.726,0.01
	c-4.609,0.119-8.249,3.952-8.129,8.562C246.006,193.991,249.719,197.587,254.229,197.587z"/>
<path style="fill:#AD8653;" d="M264.348,8.348v11.13c0,4.61-3.738,8.348-8.348,8.348s-8.348-3.738-8.348-8.348V8.348
	C247.652,3.738,251.39,0,256,0S264.348,3.738,264.348,8.348z M256,484.174c-4.61,0-8.348,3.738-8.348,8.348v11.13
	c0,4.61,3.738,8.348,8.348,8.348s8.348-3.738,8.348-8.348v-11.13C264.348,487.911,260.61,484.174,256,484.174z M80.883,77.426
	c-3.26-3.26-8.546-3.26-11.805,0c-3.26,3.26-3.26,8.546,0,11.805l7.87,7.87c1.629,1.629,3.767,2.445,5.902,2.445
	c2.136,0,4.273-0.815,5.902-2.445c3.26-3.26,3.26-8.546,0-11.805L80.883,77.426z M435.052,414.898c-3.26-3.26-8.546-3.26-11.805,0
	c-3.26,3.26-3.26,8.546,0,11.805l7.87,7.87c1.629,1.629,3.767,2.445,5.902,2.445c2.136,0,4.273-0.815,5.902-2.445
	c3.26-3.26,3.26-8.546,0-11.805L435.052,414.898z M429.148,99.547c2.136,0,4.273-0.815,5.902-2.445l7.87-7.87
	c3.26-3.26,3.26-8.546,0-11.805c-3.26-3.26-8.546-3.26-11.805,0l-7.87,7.87c-3.26,3.26-3.26,8.546,0,11.805
	C424.876,98.731,427.012,99.547,429.148,99.547z M76.948,414.898l-7.87,7.87c-3.26,3.26-3.26,8.546,0,11.805
	c1.629,1.629,3.767,2.445,5.902,2.445c2.136,0,4.273-0.815,5.902-2.445l7.87-7.87c3.26-3.26,3.26-8.546,0-11.805
	C85.494,411.639,80.208,411.639,76.948,414.898z"/>
<g>
</g>
<g>
</g>
<g>
</g>
<g>
</g>
<g>
</g>
<g>
</g>
<g>
</g>
<g>
</g>
<g>
</g>
<g>
</g>
<g>
</g>
<g>
</g>
<g>
</g>
<g>
</g>
<g>
</g>
</svg>
