<?xml version="1.0" encoding="iso-8859-1"?>
<!-- Generator: Adobe Illustrator 19.0.0, SVG Export Plug-In . SVG Version: 6.00 Build 0)  -->
<svg version="1.1" id="Layer_1" xmlns="http://www.w3.org/2000/svg" xmlns:xlink="http://www.w3.org/1999/xlink" x="0px" y="0px"
	 viewBox="0 0 333.964 333.964" style="enable-background:new 0 0 333.964 333.964;" xml:space="preserve">
<g id="XMLID_1045_">
	<g id="XMLID_1046_">
		<circle id="XMLID_1047_" style="fill:#9FCBA5;" cx="214.336" cy="102.88" r="68.878"/>
		<circle id="XMLID_1048_" style="fill:#9FCBA5;" cx="120.003" cy="93.361" r="75.991"/>
		<circle id="XMLID_1049_" style="fill:#9FCBA5;" cx="278.722" cy="158.121" r="55.242"/>
		<circle id="XMLID_1050_" style="fill:#9FCBA5;" cx="52.621" cy="160.742" r="52.621"/>
		<rect id="XMLID_36_" x="52.621" y="131.169" style="fill:#9FCBA5;" width="226.101" height="82.194"/>
	</g>
	<g id="XMLID_1051_">
		<g id="XMLID_1052_">
			<path id="XMLID_1053_" style="fill:#2B7B57;" d="M260.288,213.359H86.728c-6.487,0-11.746-5.259-11.746-11.746l0,0
				c0-6.487,5.259-11.746,11.746-11.746h173.56V213.359z"/>
		</g>
		<circle id="XMLID_1054_" style="fill:#2B7B57;" cx="260.288" cy="191.78" r="21.579"/>
		<g id="XMLID_1055_">
			<path id="XMLID_18_" style="fill:#2B7B57;" d="M283.782,273.436H86.728c-6.487,0-11.746,5.259-11.746,11.746l0,0
				c0,6.487,5.259,11.746,11.746,11.746h197.054L283.782,273.436L283.782,273.436z"/>
		</g>
		<circle id="XMLID_16_" style="fill:#2B7B57;" cx="283.782" cy="295.015" r="21.579"/>
		<g id="XMLID_1056_">
			<path id="XMLID_1057_" style="fill:#2B7B57;" d="M309.013,254.383H86.728c-6.487,0-11.746-5.259-11.746-11.746l0,0
				c0-6.487,5.259-11.746,11.746-11.746h222.285V254.383z"/>
		</g>
		<circle id="XMLID_1058_" style="fill:#2B7B57;" cx="309.013" cy="232.804" r="21.579"/>
	</g>
</g>
<g>
</g>
<g>
</g>
<g>
</g>
<g>
</g>
<g>
</g>
<g>
</g>
<g>
</g>
<g>
</g>
<g>
</g>
<g>
</g>
<g>
</g>
<g>
</g>
<g>
</g>
<g>
</g>
<g>
</g>
</svg>
