<?xml version="1.0" encoding="iso-8859-1"?>
<!-- Generator: Adobe Illustrator 19.0.0, SVG Export Plug-In . SVG Version: 6.00 Build 0)  -->
<svg version="1.1" id="Layer_1" xmlns="http://www.w3.org/2000/svg" xmlns:xlink="http://www.w3.org/1999/xlink" x="0px" y="0px"
	 viewBox="0 0 512 512" style="enable-background:new 0 0 512 512;" xml:space="preserve">
<path style="fill:#93C7EF;" d="M256,0C114.842,0,0,114.842,0,256s114.842,256,256,256s256-114.842,256-256S397.158,0,256,0z"/>
<path style="fill:#78B9EB;" d="M256,512c141.158,0,256-114.842,256-256S397.158,0,256,0"/>
<path style="fill:#FFAD41;" d="M256,62.439C149.27,62.439,62.439,149.27,62.439,256S149.27,449.561,256,449.561
	S449.561,362.73,449.561,256S362.73,62.439,256,62.439z"/>
<path style="fill:#FF9811;" d="M256,449.561c106.73,0,193.561-86.831,193.561-193.561S362.73,62.439,256,62.439"/>
<g>
	<path style="fill:#FFFFFF;" d="M359.595,115.585l-32.361-18.875l-71.068,121.834c-0.056-0.002-0.111-0.006-0.166-0.006
		c-20.69,0-37.463,16.774-37.463,37.463S235.31,293.463,256,293.463S293.463,276.69,293.463,256c0-6.765-1.802-13.105-4.938-18.582
		L359.595,115.585z"/>
	<circle style="fill:#FFFFFF;" cx="256" cy="62.439" r="18.732"/>
	<circle style="fill:#FFFFFF;" cx="88.376" cy="159.22" r="18.732"/>
	<circle style="fill:#FFFFFF;" cx="88.376" cy="352.78" r="18.732"/>
	<circle style="fill:#FFFFFF;" cx="423.624" cy="352.78" r="18.732"/>
	<circle style="fill:#FFFFFF;" cx="423.624" cy="159.22" r="18.732"/>
	<rect x="206.049" y="362.146" style="fill:#FFFFFF;" width="99.902" height="37.463"/>
</g>
<g>
</g>
<g>
</g>
<g>
</g>
<g>
</g>
<g>
</g>
<g>
</g>
<g>
</g>
<g>
</g>
<g>
</g>
<g>
</g>
<g>
</g>
<g>
</g>
<g>
</g>
<g>
</g>
<g>
</g>
</svg>
