<?xml version="1.0" encoding="iso-8859-1"?>
<!-- Generator: Adobe Illustrator 19.0.0, SVG Export Plug-In . SVG Version: 6.00 Build 0)  -->
<svg version="1.1" id="Layer_1" xmlns="http://www.w3.org/2000/svg" xmlns:xlink="http://www.w3.org/1999/xlink" x="0px" y="0px"
	 viewBox="0 0 512 512" style="enable-background:new 0 0 512 512;" xml:space="preserve">
<path style="fill:#93C7EF;" d="M256,1.243C115.526,1.243,1.243,115.527,1.243,256S115.526,510.757,256,510.757
	c140.473,0,254.757-114.284,254.757-254.757S396.473,1.243,256,1.243z"/>
<path style="fill:#78B9EB;" d="M256,510.757c140.473,0,254.757-114.284,254.757-254.757S396.473,1.243,256,1.243"/>
<path style="fill:#FFAD41;" d="M256,63.379c-106.213,0-192.621,86.41-192.621,192.621S149.787,448.621,256,448.621
	c106.211,0,192.621-86.41,192.621-192.621S362.211,63.379,256,63.379z"/>
<path style="fill:#FF9811;" d="M256,448.621c106.211,0,192.621-86.41,192.621-192.621S362.211,63.379,256,63.379"/>
<g>
	<path style="fill:#FFFFFF;" d="M256,218.718c-0.055,0-0.109,0.004-0.165,0.005L185.11,97.481l-32.203,18.784l70.724,121.242
		c-3.12,5.452-4.914,11.761-4.914,18.493c0,20.589,16.692,37.282,37.282,37.282s37.282-16.692,37.282-37.282
		S276.589,218.718,256,218.718z"/>
	<rect x="206.291" y="361.631" style="fill:#FFFFFF;" width="99.417" height="37.282"/>
	<path style="fill:#FFFFFF;" d="M431.852,175.996l54.558-31.5c-5.458-11.233-11.715-22.009-18.694-32.255l-54.504,31.468
		L431.852,175.996z"/>
	<path style="fill:#FFFFFF;" d="M431.852,336.004l-18.641,32.286l54.504,31.468c6.979-10.246,13.236-21.022,18.694-32.255
		L431.852,336.004z"/>
	<path style="fill:#FFFFFF;" d="M237.359,448.293v63.024C243.517,511.761,249.73,512,256,512c6.27,0,12.483-0.237,18.641-0.682
		v-63.024H237.359z"/>
	<path style="fill:#FFFFFF;" d="M274.641,63.707V0.682C268.483,0.237,262.27,0,256,0c-6.27,0-12.483,0.237-18.641,0.682v63.024
		H274.641z"/>
	<path style="fill:#FFFFFF;" d="M98.789,143.71l-54.504-31.469c-6.979,10.246-13.236,21.022-18.694,32.255l54.559,31.5
		L98.789,143.71z"/>
	<path style="fill:#FFFFFF;" d="M80.148,336.004l-54.559,31.5c5.458,11.233,11.715,22.009,18.694,32.255l54.504-31.468
		L80.148,336.004z"/>
</g>
<g>
</g>
<g>
</g>
<g>
</g>
<g>
</g>
<g>
</g>
<g>
</g>
<g>
</g>
<g>
</g>
<g>
</g>
<g>
</g>
<g>
</g>
<g>
</g>
<g>
</g>
<g>
</g>
<g>
</g>
</svg>
