<?xml version="1.0" encoding="iso-8859-1"?>
<!-- Generator: Adobe Illustrator 19.0.0, SVG Export Plug-In . SVG Version: 6.00 Build 0)  -->
<svg version="1.1" id="Layer_1" xmlns="http://www.w3.org/2000/svg" xmlns:xlink="http://www.w3.org/1999/xlink" x="0px" y="0px"
	 viewBox="0 0 512 512" style="enable-background:new 0 0 512 512;" xml:space="preserve">
<path style="fill:#EDEDEF;" d="M0,101.275v365.714h512V101.275L256,67.516L0,101.275z"/>
<polygon style="fill:#FFFFFF;" points="112.527,381.187 109.591,279.788 256,192.703 402.409,279.788 399.473,381.187 "/>
<polygon style="fill:#BEC3CC;" points="410.725,45.011 433.231,73.143 410.725,101.275 0,101.275 0,45.011 "/>
<rect x="410.725" y="45.011" style="fill:#FF615C;" width="101.275" height="56.264"/>
<path style="fill:#FFA72E;" d="M466.989,381.187h-67.517c0-39.553-16.091-75.427-42.074-101.398l0.056-0.056l0.156-45.167
	l47.578-2.567C443.37,270.178,466.989,322.931,466.989,381.187z"/>
<path style="fill:#FF615C;" d="M405.189,231.998l-47.734,47.734l-0.056,0.056c-25.983-25.983-61.845-42.074-101.398-42.074
	l-22.506-33.758L256,170.198C314.267,170.198,367.008,193.817,405.189,231.998z"/>
<path style="fill:#4AAEE2;" d="M256,170.198v67.516c-39.553,0-75.416,16.091-101.398,42.074l-0.056-0.056l-49.06-4.049l1.326-43.685
	C144.992,193.817,197.733,170.198,256,170.198z"/>
<path style="fill:#A3E1FF;" d="M154.545,279.732l0.056,0.056c-25.983,25.971-42.074,61.845-42.074,101.398H45.011
	c0-58.255,23.62-111.008,61.8-149.189L154.545,279.732z"/>
<path style="fill:#A7AFBA;" d="M256,263.033c-4.662,0-8.44,3.779-8.44,8.44v98.462h16.879v-98.462
	C264.44,266.812,260.662,263.033,256,263.033z"/>
<path style="fill:#BEC3CC;" d="M256,358.681c12.434,0,22.505,10.071,22.505,22.505S268.434,403.692,256,403.692
	c-12.434,0-22.505-10.071-22.505-22.505S243.566,358.681,256,358.681z"/>
<g>
</g>
<g>
</g>
<g>
</g>
<g>
</g>
<g>
</g>
<g>
</g>
<g>
</g>
<g>
</g>
<g>
</g>
<g>
</g>
<g>
</g>
<g>
</g>
<g>
</g>
<g>
</g>
<g>
</g>
</svg>
