<?xml version="1.0" encoding="iso-8859-1"?>
<!-- Generator: Adobe Illustrator 19.0.0, SVG Export Plug-In . SVG Version: 6.00 Build 0)  -->
<svg version="1.1" id="Capa_1" xmlns="http://www.w3.org/2000/svg" xmlns:xlink="http://www.w3.org/1999/xlink" x="0px" y="0px"
	 viewBox="0 0 460.001 460.001" style="enable-background:new 0 0 460.001 460.001;" xml:space="preserve">
<g>
	<path style="fill:#07806D;" d="M24.75,435.254c32.994,32.994,86.495,32.996,119.489,0.002l63.456-63.456
		c16.509-16.509,24.758-38.148,24.751-59.783l-42.229-42.229L24.75,435.254z"/>
	<path style="fill:#42968A;" d="M147.985,227.557c-21.636-0.009-43.275,8.241-59.784,24.75l-63.456,63.456
		C-8.248,348.755-8.25,402.253,24.75,435.254l165.466-165.466L147.985,227.557z"/>
	
		<rect x="150.578" y="173.749" transform="matrix(0.7071 -0.7071 0.7071 0.7071 -84.9692 172.3646)" style="fill:#96B5A5;" width="30" height="30"/>
	<path style="fill:#D5310E;" d="M423.392,36.609l-21.213,21.213c37.038,37.038,37.038,97.312,0,134.35s-97.312,37.038-134.35,0
		l-21.212,21.214c48.814,48.812,127.965,48.81,176.776-0.001C472.203,164.574,472.203,85.421,423.392,36.609z"/>
	<path style="fill:#C7FFE9;" d="M352.681,107.32c9.763,9.763,9.763,25.592,0,35.355c-5.783,5.783-13.695,8.139-21.214,7.071
		l-31.819,31.819l-10.607-10.606l-21.213,21.213c37.038,37.038,97.312,37.038,134.35,0s37.038-97.312,0-134.35L352.681,107.32z"/>
	<path style="fill:#F46A1A;" d="M246.616,213.387l21.212-21.214c-37.038-37.038-37.038-97.312,0-134.35
		c37.038-37.038,97.312-37.038,134.35,0l21.213-21.213c-48.812-48.812-127.965-48.812-176.777,0
		C197.804,85.42,197.805,164.573,246.616,213.387z"/>
	<path style="fill:#FFFFFF;" d="M267.828,57.822c-37.038,37.038-37.038,97.312,0,134.35l21.213-21.213l-10.606-10.606l31.819-31.819
		c-1.068-7.519,1.288-15.43,7.071-21.214c9.763-9.763,25.592-9.763,35.355,0l49.497-49.498
		C365.14,20.784,304.867,20.784,267.828,57.822z"/>
	<path style="fill:#F46A1A;" d="M331.468,149.747c-5.174-0.735-10.162-3.092-14.142-7.071c-3.98-3.98-6.336-8.968-7.071-14.142
		l-31.819,31.819l10.606,10.606l10.607,10.606L331.468,149.747z"/>
	<path style="fill:#D5310E;" d="M317.326,142.675c3.98,3.98,8.968,6.336,14.142,7.071c7.519,1.068,15.43-1.288,21.214-7.071
		c9.763-9.763,9.763-25.592,0-35.355c-9.763-9.763-25.592-9.763-35.355,0c-5.783,5.783-8.14,13.695-7.071,21.214
		C310.99,133.708,313.346,138.696,317.326,142.675z"/>
	
		<rect x="167.439" y="180.59" transform="matrix(0.7071 0.7071 -0.7071 0.7071 213.684 -74.938)" style="fill:#B7D6CA;" width="59.724" height="79.762"/>
	
		<rect x="199.65" y="232.841" transform="matrix(0.7071 -0.7071 0.7071 0.7071 -115.6012 246.3177)" style="fill:#96B5A5;" width="79.762" height="59.721"/>
</g>
<g>
</g>
<g>
</g>
<g>
</g>
<g>
</g>
<g>
</g>
<g>
</g>
<g>
</g>
<g>
</g>
<g>
</g>
<g>
</g>
<g>
</g>
<g>
</g>
<g>
</g>
<g>
</g>
<g>
</g>
</svg>
